<?xml version="1.0" encoding="UTF-8" standalone="no"?><svg xmlns="http://www.w3.org/2000/svg" xmlns:xlink="http://www.w3.org/1999/xlink" contentScriptType="application/ecmascript" contentStyleType="text/css" height="835px" preserveAspectRatio="none" style="width:599px;height:835px;" version="1.1" viewBox="0 0 599 835" width="599px" zoomAndPan="magnify"><defs/><g><rect fill="#FFFFFF" height="206.3281" style="stroke: #FFFFFF; stroke-width: 1.0;" width="10" x="197.5" y="143.2969"/><line style="stroke: #AAAAAA; stroke-width: 1.0;" x1="197.5" x2="197.5" y1="143.2969" y2="349.625"/><line style="stroke: #AAAAAA; stroke-width: 1.0;" x1="207.5" x2="207.5" y1="143.2969" y2="349.625"/><line style="stroke: #AAAAAA; stroke-width: 1.0;" x1="197.5" x2="207.5" y1="143.2969" y2="143.2969"/><rect fill="#FFFFFF" height="94.3984" style="stroke: #FFFFFF; stroke-width: 1.0;" width="10" x="197.5" y="416.0391"/><line style="stroke: #AAAAAA; stroke-width: 1.0;" x1="197.5" x2="197.5" y1="416.0391" y2="510.4375"/><line style="stroke: #AAAAAA; stroke-width: 1.0;" x1="207.5" x2="207.5" y1="416.0391" y2="510.4375"/><line style="stroke: #AAAAAA; stroke-width: 1.0;" x1="197.5" x2="207.5" y1="510.4375" y2="510.4375"/><rect fill="#FFFFFF" height="69.9648" style="stroke: #AAAAAA; stroke-width: 1.0;" width="10" x="250.5" y="260.9609"/><rect fill="#FFFFFF" height="18.6992" style="stroke: #FFFFFF; stroke-width: 1.0;" width="10" x="250.5" y="550.1367"/><line style="stroke: #AAAAAA; stroke-width: 1.0;" x1="250.5" x2="250.5" y1="550.1367" y2="568.8359"/><line style="stroke: #AAAAAA; stroke-width: 1.0;" x1="260.5" x2="260.5" y1="550.1367" y2="568.8359"/><line style="stroke: #AAAAAA; stroke-width: 1.0;" x1="250.5" x2="260.5" y1="550.1367" y2="550.1367"/><rect fill="#FFFFFF" height="94.3984" style="stroke: #FFFFFF; stroke-width: 1.0;" width="10" x="250.5" y="635.25"/><line style="stroke: #AAAAAA; stroke-width: 1.0;" x1="250.5" x2="250.5" y1="635.25" y2="729.6484"/><line style="stroke: #AAAAAA; stroke-width: 1.0;" x1="260.5" x2="260.5" y1="635.25" y2="729.6484"/><line style="stroke: #AAAAAA; stroke-width: 1.0;" x1="250.5" x2="260.5" y1="729.6484" y2="729.6484"/><rect fill="#FFFFFF" height="29.1328" style="stroke: #AAAAAA; stroke-width: 1.0;" width="10" x="440.5" y="172.6953"/><rect fill="#FFFFFF" height="48.6992" style="stroke: #FFFFFF; stroke-width: 1.0;" width="10" x="440.5" y="300.9258"/><line style="stroke: #AAAAAA; stroke-width: 1.0;" x1="440.5" x2="440.5" y1="300.9258" y2="349.625"/><line style="stroke: #AAAAAA; stroke-width: 1.0;" x1="450.5" x2="450.5" y1="300.9258" y2="349.625"/><line style="stroke: #AAAAAA; stroke-width: 1.0;" x1="440.5" x2="450.5" y1="300.9258" y2="300.9258"/><rect fill="#FFFFFF" height="134.0977" style="stroke: #FFFFFF; stroke-width: 1.0;" width="10" x="440.5" y="416.0391"/><line style="stroke: #AAAAAA; stroke-width: 1.0;" x1="440.5" x2="440.5" y1="416.0391" y2="550.1367"/><line style="stroke: #AAAAAA; stroke-width: 1.0;" x1="450.5" x2="450.5" y1="416.0391" y2="550.1367"/><line style="stroke: #AAAAAA; stroke-width: 1.0;" x1="440.5" x2="450.5" y1="550.1367" y2="550.1367"/><rect fill="#FFFFFF" height="29.2656" style="stroke: #AAAAAA; stroke-width: 1.0;" width="10" x="445.5" y="452.0391"/><rect fill="#FFFFFF" height="29.2656" style="stroke: #AAAAAA; stroke-width: 1.0;" width="10" x="440.5" y="671.25"/><line style="stroke: #AAAAAA; stroke-width: 1.0;" x1="39" x2="39" y1="82.2969" y2="349.625"/><line style="stroke: #AAAAAA; stroke-width: 1.0; stroke-dasharray: 1.0,4.0;" x1="39" x2="39" y1="349.625" y2="416.0391"/><line style="stroke: #AAAAAA; stroke-width: 1.0;" x1="39" x2="39" y1="416.0391" y2="568.8359"/><line style="stroke: #AAAAAA; stroke-width: 1.0; stroke-dasharray: 1.0,4.0;" x1="39" x2="39" y1="568.8359" y2="635.25"/><line style="stroke: #AAAAAA; stroke-width: 1.0;" x1="39" x2="39" y1="635.25" y2="747.7813"/><line style="stroke: #AAAAAA; stroke-width: 1.0;" x1="202" x2="202" y1="82.2969" y2="349.625"/><line style="stroke: #AAAAAA; stroke-width: 1.0; stroke-dasharray: 1.0,4.0;" x1="202" x2="202" y1="349.625" y2="416.0391"/><line style="stroke: #AAAAAA; stroke-width: 1.0;" x1="202" x2="202" y1="416.0391" y2="568.8359"/><line style="stroke: #AAAAAA; stroke-width: 1.0; stroke-dasharray: 1.0,4.0;" x1="202" x2="202" y1="568.8359" y2="635.25"/><line style="stroke: #AAAAAA; stroke-width: 1.0;" x1="202" x2="202" y1="635.25" y2="747.7813"/><line style="stroke: #AAAAAA; stroke-width: 1.0;" x1="255" x2="255" y1="82.2969" y2="349.625"/><line style="stroke: #AAAAAA; stroke-width: 1.0; stroke-dasharray: 1.0,4.0;" x1="255" x2="255" y1="349.625" y2="416.0391"/><line style="stroke: #AAAAAA; stroke-width: 1.0;" x1="255" x2="255" y1="416.0391" y2="568.8359"/><line style="stroke: #AAAAAA; stroke-width: 1.0; stroke-dasharray: 1.0,4.0;" x1="255" x2="255" y1="568.8359" y2="635.25"/><line style="stroke: #AAAAAA; stroke-width: 1.0;" x1="255" x2="255" y1="635.25" y2="747.7813"/><line style="stroke: #AAAAAA; stroke-width: 1.0;" x1="445" x2="445" y1="82.2969" y2="349.625"/><line style="stroke: #AAAAAA; stroke-width: 1.0; stroke-dasharray: 1.0,4.0;" x1="445" x2="445" y1="349.625" y2="416.0391"/><line style="stroke: #AAAAAA; stroke-width: 1.0;" x1="445" x2="445" y1="416.0391" y2="568.8359"/><line style="stroke: #AAAAAA; stroke-width: 1.0; stroke-dasharray: 1.0,4.0;" x1="445" x2="445" y1="568.8359" y2="635.25"/><line style="stroke: #AAAAAA; stroke-width: 1.0;" x1="445" x2="445" y1="635.25" y2="747.7813"/><text fill="#000000" font-family="Menlo,Monaco,Consolas,&quot;Liberation Mono&quot;,&quot;Courier New&quot;,monospace" font-size="14" lengthAdjust="spacingAndGlyphs" textLength="57" x="8" y="78.9951">Browser</text><ellipse cx="39.5" cy="13" fill="#FFFFFF" rx="8" ry="8" style="stroke: #000000; stroke-width: 2.0;"/><path d="M39.5,21 L39.5,48 M26.5,29 L52.5,29 M39.5,48 L26.5,63 M39.5,48 L52.5,63 " fill="#FFFFFF" style="stroke: #000000; stroke-width: 2.0;"/><text fill="#000000" font-family="Menlo,Monaco,Consolas,&quot;Liberation Mono&quot;,&quot;Courier New&quot;,monospace" font-size="14" lengthAdjust="spacingAndGlyphs" textLength="57" x="8" y="759.7764">Browser</text><ellipse cx="39.5" cy="773.0781" fill="#FFFFFF" rx="8" ry="8" style="stroke: #000000; stroke-width: 2.0;"/><path d="M39.5,781.0781 L39.5,808.0781 M26.5,789.0781 L52.5,789.0781 M39.5,808.0781 L26.5,823.0781 M39.5,808.0781 L52.5,823.0781 " fill="#FFFFFF" style="stroke: #000000; stroke-width: 2.0;"/><text fill="#000000" font-family="Menlo,Monaco,Consolas,&quot;Liberation Mono&quot;,&quot;Courier New&quot;,monospace" font-size="14" lengthAdjust="spacingAndGlyphs" textLength="37" x="181" y="78.9951">PHP1</text><ellipse cx="202.5" cy="50" fill="#FEFECE" rx="12" ry="12" style="stroke: #A80036; stroke-width: 2.0;"/><polygon fill="#A80036" points="198.5,38,204.5,33,202.5,38,204.5,43,198.5,38" style="stroke: #A80036; stroke-width: 1.0;"/><text fill="#000000" font-family="Menlo,Monaco,Consolas,&quot;Liberation Mono&quot;,&quot;Courier New&quot;,monospace" font-size="14" lengthAdjust="spacingAndGlyphs" textLength="37" x="181" y="759.7764">PHP1</text><ellipse cx="202.5" cy="779.0781" fill="#FEFECE" rx="12" ry="12" style="stroke: #A80036; stroke-width: 2.0;"/><polygon fill="#A80036" points="198.5,767.0781,204.5,762.0781,202.5,767.0781,204.5,772.0781,198.5,767.0781" style="stroke: #A80036; stroke-width: 1.0;"/><text fill="#000000" font-family="Menlo,Monaco,Consolas,&quot;Liberation Mono&quot;,&quot;Courier New&quot;,monospace" font-size="14" lengthAdjust="spacingAndGlyphs" textLength="37" x="234" y="78.9951">PHP2</text><ellipse cx="255.5" cy="50" fill="#FEFECE" rx="12" ry="12" style="stroke: #A80036; stroke-width: 2.0;"/><polygon fill="#A80036" points="251.5,38,257.5,33,255.5,38,257.5,43,251.5,38" style="stroke: #A80036; stroke-width: 1.0;"/><text fill="#000000" font-family="Menlo,Monaco,Consolas,&quot;Liberation Mono&quot;,&quot;Courier New&quot;,monospace" font-size="14" lengthAdjust="spacingAndGlyphs" textLength="37" x="234" y="759.7764">PHP2</text><ellipse cx="255.5" cy="779.0781" fill="#FEFECE" rx="12" ry="12" style="stroke: #A80036; stroke-width: 2.0;"/><polygon fill="#A80036" points="251.5,767.0781,257.5,762.0781,255.5,767.0781,257.5,772.0781,251.5,767.0781" style="stroke: #A80036; stroke-width: 1.0;"/><text fill="#000000" font-family="Menlo,Monaco,Consolas,&quot;Liberation Mono&quot;,&quot;Courier New&quot;,monospace" font-size="14" lengthAdjust="spacingAndGlyphs" textLength="73" x="406" y="78.9951">Filesystem</text><path d="M427.5,30 C427.5,20 445.5,20 445.5,20 C445.5,20 463.5,20 463.5,30 L463.5,56 C463.5,66 445.5,66 445.5,66 C445.5,66 427.5,66 427.5,56 L427.5,30 " fill="#FEFECE" style="stroke: #000000; stroke-width: 1.5;"/><path d="M427.5,30 C427.5,40 445.5,40 445.5,40 C445.5,40 463.5,40 463.5,30 " fill="none" style="stroke: #000000; stroke-width: 1.5;"/><text fill="#000000" font-family="Menlo,Monaco,Consolas,&quot;Liberation Mono&quot;,&quot;Courier New&quot;,monospace" font-size="14" lengthAdjust="spacingAndGlyphs" textLength="73" x="406" y="759.7764">Filesystem</text><path d="M427.5,773.0781 C427.5,763.0781 445.5,763.0781 445.5,763.0781 C445.5,763.0781 463.5,763.0781 463.5,773.0781 L463.5,799.0781 C463.5,809.0781 445.5,809.0781 445.5,809.0781 C445.5,809.0781 427.5,809.0781 427.5,799.0781 L427.5,773.0781 " fill="#FEFECE" style="stroke: #000000; stroke-width: 1.5;"/><path d="M427.5,773.0781 C427.5,783.0781 445.5,783.0781 445.5,783.0781 C445.5,783.0781 463.5,783.0781 463.5,773.0781 " fill="none" style="stroke: #000000; stroke-width: 1.5;"/><rect fill="#FFFFFF" height="206.3281" style="stroke: #FFFFFF; stroke-width: 1.0;" width="10" x="197.5" y="143.2969"/><line style="stroke: #AAAAAA; stroke-width: 1.0;" x1="197.5" x2="197.5" y1="143.2969" y2="349.625"/><line style="stroke: #AAAAAA; stroke-width: 1.0;" x1="207.5" x2="207.5" y1="143.2969" y2="349.625"/><line style="stroke: #AAAAAA; stroke-width: 1.0;" x1="197.5" x2="207.5" y1="143.2969" y2="143.2969"/><rect fill="#FFFFFF" height="94.3984" style="stroke: #FFFFFF; stroke-width: 1.0;" width="10" x="197.5" y="416.0391"/><line style="stroke: #AAAAAA; stroke-width: 1.0;" x1="197.5" x2="197.5" y1="416.0391" y2="510.4375"/><line style="stroke: #AAAAAA; stroke-width: 1.0;" x1="207.5" x2="207.5" y1="416.0391" y2="510.4375"/><line style="stroke: #AAAAAA; stroke-width: 1.0;" x1="197.5" x2="207.5" y1="510.4375" y2="510.4375"/><rect fill="#FFFFFF" height="69.9648" style="stroke: #AAAAAA; stroke-width: 1.0;" width="10" x="250.5" y="260.9609"/><rect fill="#FFFFFF" height="18.6992" style="stroke: #FFFFFF; stroke-width: 1.0;" width="10" x="250.5" y="550.1367"/><line style="stroke: #AAAAAA; stroke-width: 1.0;" x1="250.5" x2="250.5" y1="550.1367" y2="568.8359"/><line style="stroke: #AAAAAA; stroke-width: 1.0;" x1="260.5" x2="260.5" y1="550.1367" y2="568.8359"/><line style="stroke: #AAAAAA; stroke-width: 1.0;" x1="250.5" x2="260.5" y1="550.1367" y2="550.1367"/><rect fill="#FFFFFF" height="94.3984" style="stroke: #FFFFFF; stroke-width: 1.0;" width="10" x="250.5" y="635.25"/><line style="stroke: #AAAAAA; stroke-width: 1.0;" x1="250.5" x2="250.5" y1="635.25" y2="729.6484"/><line style="stroke: #AAAAAA; stroke-width: 1.0;" x1="260.5" x2="260.5" y1="635.25" y2="729.6484"/><line style="stroke: #AAAAAA; stroke-width: 1.0;" x1="250.5" x2="260.5" y1="729.6484" y2="729.6484"/><rect fill="#FFFFFF" height="29.1328" style="stroke: #AAAAAA; stroke-width: 1.0;" width="10" x="440.5" y="172.6953"/><rect fill="#FFFFFF" height="48.6992" style="stroke: #FFFFFF; stroke-width: 1.0;" width="10" x="440.5" y="300.9258"/><line style="stroke: #AAAAAA; stroke-width: 1.0;" x1="440.5" x2="440.5" y1="300.9258" y2="349.625"/><line style="stroke: #AAAAAA; stroke-width: 1.0;" x1="450.5" x2="450.5" y1="300.9258" y2="349.625"/><line style="stroke: #AAAAAA; stroke-width: 1.0;" x1="440.5" x2="450.5" y1="300.9258" y2="300.9258"/><rect fill="#FFFFFF" height="134.0977" style="stroke: #FFFFFF; stroke-width: 1.0;" width="10" x="440.5" y="416.0391"/><line style="stroke: #AAAAAA; stroke-width: 1.0;" x1="440.5" x2="440.5" y1="416.0391" y2="550.1367"/><line style="stroke: #AAAAAA; stroke-width: 1.0;" x1="450.5" x2="450.5" y1="416.0391" y2="550.1367"/><line style="stroke: #AAAAAA; stroke-width: 1.0;" x1="440.5" x2="450.5" y1="550.1367" y2="550.1367"/><rect fill="#FFFFFF" height="29.2656" style="stroke: #AAAAAA; stroke-width: 1.0;" width="10" x="445.5" y="452.0391"/><rect fill="#FFFFFF" height="29.2656" style="stroke: #AAAAAA; stroke-width: 1.0;" width="10" x="440.5" y="671.25"/><polygon fill="#03A87C" points="185.5,139.2969,195.5,143.2969,185.5,147.2969,189.5,143.2969" style="stroke: #03A87C; stroke-width: 1.0;"/><line style="stroke: #03A87C; stroke-width: 1.0;" x1="39.5" x2="191.5" y1="143.2969" y2="143.2969"/><text fill="#000000" font-family="Menlo,Monaco,Consolas,&quot;Liberation Mono&quot;,&quot;Courier New&quot;,monospace" font-size="13" lengthAdjust="spacingAndGlyphs" textLength="114" x="46.5" y="108.3638">Hey, give me that</text><text fill="#000000" font-family="Menlo,Monaco,Consolas,&quot;Liberation Mono&quot;,&quot;Courier New&quot;,monospace" font-size="13" lengthAdjust="spacingAndGlyphs" textLength="107" x="46.5" y="123.4966">resource please!</text><text fill="#000000" font-family="Menlo,Monaco,Consolas,&quot;Liberation Mono&quot;,&quot;Courier New&quot;,monospace" font-size="13" lengthAdjust="spacingAndGlyphs" textLength="139" x="46.5" y="138.6294">PHPSESSID=asdfasdf</text><polygon fill="#03A87C" points="428.5,168.6953,438.5,172.6953,428.5,176.6953,432.5,172.6953" style="stroke: #03A87C; stroke-width: 1.0;"/><line style="stroke: #03A87C; stroke-width: 1.0;" x1="207.5" x2="434.5" y1="172.6953" y2="172.6953"/><text fill="#000000" font-family="Menlo,Monaco,Consolas,&quot;Liberation Mono&quot;,&quot;Courier New&quot;,monospace" font-size="13" lengthAdjust="spacingAndGlyphs" textLength="167" x="214.5" y="167.7622">Lock session file 'asdfasdf'</text><polygon fill="#03A87C" points="218.5,197.8281,208.5,201.8281,218.5,205.8281,214.5,201.8281" style="stroke: #03A87C; stroke-width: 1.0;"/><line style="stroke: #03A87C; stroke-width: 1.0; stroke-dasharray: 2.0,2.0;" x1="212.5" x2="444.5" y1="201.8281" y2="201.8281"/><text fill="#000000" font-family="Menlo,Monaco,Consolas,&quot;Liberation Mono&quot;,&quot;Courier New&quot;,monospace" font-size="13" lengthAdjust="spacingAndGlyphs" textLength="78" x="224.5" y="196.895">Here you go</text><polygon fill="#03A87C" points="238.5,256.9609,248.5,260.9609,238.5,264.9609,242.5,260.9609" style="stroke: #03A87C; stroke-width: 1.0;"/><line style="stroke: #03A87C; stroke-width: 1.0;" x1="39.5" x2="244.5" y1="260.9609" y2="260.9609"/><text fill="#000000" font-family="Menlo,Monaco,Consolas,&quot;Liberation Mono&quot;,&quot;Courier New&quot;,monospace" font-size="13" lengthAdjust="spacingAndGlyphs" textLength="114" x="46.5" y="226.0278">Hey, give me that</text><text fill="#000000" font-family="Menlo,Monaco,Consolas,&quot;Liberation Mono&quot;,&quot;Courier New&quot;,monospace" font-size="13" lengthAdjust="spacingAndGlyphs" textLength="145" x="46.5" y="241.1606">other resource please!</text><text fill="#000000" font-family="Menlo,Monaco,Consolas,&quot;Liberation Mono&quot;,&quot;Courier New&quot;,monospace" font-size="13" lengthAdjust="spacingAndGlyphs" textLength="139" x="46.5" y="256.2935">PHPSESSID=asdfasdf</text><polygon fill="#03A87C" points="428.5,296.9258,438.5,300.9258,428.5,304.9258,432.5,300.9258" style="stroke: #03A87C; stroke-width: 1.0;"/><line style="stroke: #03A87C; stroke-width: 1.0;" x1="260.5" x2="434.5" y1="300.9258" y2="300.9258"/><text fill="#000000" font-family="Menlo,Monaco,Consolas,&quot;Liberation Mono&quot;,&quot;Courier New&quot;,monospace" font-size="13" lengthAdjust="spacingAndGlyphs" textLength="161" x="267.5" y="295.9927">Lock session file asdfasdf</text><polygon fill="#FFFFFF" points="455,274.3594,455,314.3594,583,314.3594,583,284.3594,573,274.3594,455,274.3594" style="stroke: #03A87C; stroke-width: 1.0;"/><line style="stroke: #03A87C; stroke-width: 1.0;" x1="573" x2="573" y1="274.3594" y2="284.3594"/><line style="stroke: #03A87C; stroke-width: 1.0;" x1="583" x2="573" y1="284.3594" y2="284.3594"/><text fill="#000000" font-family="Menlo,Monaco,Consolas,&quot;Liberation Mono&quot;,&quot;Courier New&quot;,monospace" font-size="13" lengthAdjust="spacingAndGlyphs" textLength="107" x="461" y="291.4263">PHP2 now has to</text><text fill="#000000" font-family="Menlo,Monaco,Consolas,&quot;Liberation Mono&quot;,&quot;Courier New&quot;,monospace" font-size="13" lengthAdjust="spacingAndGlyphs" textLength="100" x="461" y="306.5591">wait for the lock</text><text fill="#000000" font-family="Menlo,Monaco,Consolas,&quot;Liberation Mono&quot;,&quot;Courier New&quot;,monospace" font-size="11" lengthAdjust="spacingAndGlyphs" textLength="134" x="177.5" y="373.8354">PHP1 does other things</text><text fill="#000000" font-family="Menlo,Monaco,Consolas,&quot;Liberation Mono&quot;,&quot;Courier New&quot;,monospace" font-size="11" lengthAdjust="spacingAndGlyphs" textLength="128" x="178.5" y="386.6401">to generate response,</text><text fill="#000000" font-family="Menlo,Monaco,Consolas,&quot;Liberation Mono&quot;,&quot;Courier New&quot;,monospace" font-size="11" lengthAdjust="spacingAndGlyphs" textLength="129" x="176" y="399.4448">and when it's finished:</text><polygon fill="#03A87C" points="433.5,448.0391,443.5,452.0391,433.5,456.0391,437.5,452.0391" style="stroke: #03A87C; stroke-width: 1.0;"/><line style="stroke: #03A87C; stroke-width: 1.0;" x1="207.5" x2="439.5" y1="452.0391" y2="452.0391"/><text fill="#000000" font-family="Menlo,Monaco,Consolas,&quot;Liberation Mono&quot;,&quot;Courier New&quot;,monospace" font-size="13" lengthAdjust="spacingAndGlyphs" textLength="79" x="214.5" y="432.106">Release lock</text><text fill="#000000" font-family="Menlo,Monaco,Consolas,&quot;Liberation Mono&quot;,&quot;Courier New&quot;,monospace" font-size="13" lengthAdjust="spacingAndGlyphs" textLength="154" x="214.5" y="447.2388">on session file 'asdfasdf'</text><polygon fill="#03A87C" points="218.5,477.3047,208.5,481.3047,218.5,485.3047,214.5,481.3047" style="stroke: #03A87C; stroke-width: 1.0;"/><line style="stroke: #03A87C; stroke-width: 1.0; stroke-dasharray: 2.0,2.0;" x1="212.5" x2="439.5" y1="481.3047" y2="481.3047"/><text fill="#000000" font-family="Menlo,Monaco,Consolas,&quot;Liberation Mono&quot;,&quot;Courier New&quot;,monospace" font-size="13" lengthAdjust="spacingAndGlyphs" textLength="58" x="224.5" y="476.3716">OK, done</text><polygon fill="#03A87C" points="50.5,506.4375,40.5,510.4375,50.5,514.4375,46.5,510.4375" style="stroke: #03A87C; stroke-width: 1.0;"/><line style="stroke: #03A87C; stroke-width: 1.0; stroke-dasharray: 2.0,2.0;" x1="44.5" x2="201.5" y1="510.4375" y2="510.4375"/><text fill="#000000" font-family="Menlo,Monaco,Consolas,&quot;Liberation Mono&quot;,&quot;Courier New&quot;,monospace" font-size="13" lengthAdjust="spacingAndGlyphs" textLength="130" x="56.5" y="505.5044">Here's your content.</text><polygon fill="#03A87C" points="271.5,546.1367,261.5,550.1367,271.5,554.1367,267.5,550.1367" style="stroke: #03A87C; stroke-width: 1.0;"/><line style="stroke: #03A87C; stroke-width: 1.0; stroke-dasharray: 2.0,2.0;" x1="265.5" x2="444.5" y1="550.1367" y2="550.1367"/><text fill="#000000" font-family="Menlo,Monaco,Consolas,&quot;Liberation Mono&quot;,&quot;Courier New&quot;,monospace" font-size="13" lengthAdjust="spacingAndGlyphs" textLength="78" x="277.5" y="545.2036">Here you go</text><polygon fill="#FFFFFF" points="455,523.5703,455,563.5703,577,563.5703,577,533.5703,567,523.5703,455,523.5703" style="stroke: #03A87C; stroke-width: 1.0;"/><line style="stroke: #03A87C; stroke-width: 1.0;" x1="567" x2="567" y1="523.5703" y2="533.5703"/><line style="stroke: #03A87C; stroke-width: 1.0;" x1="577" x2="567" y1="533.5703" y2="533.5703"/><text fill="#000000" font-family="Menlo,Monaco,Consolas,&quot;Liberation Mono&quot;,&quot;Courier New&quot;,monospace" font-size="13" lengthAdjust="spacingAndGlyphs" textLength="77" x="461" y="540.6372">PHP2 is now</text><text fill="#000000" font-family="Menlo,Monaco,Consolas,&quot;Liberation Mono&quot;,&quot;Courier New&quot;,monospace" font-size="13" lengthAdjust="spacingAndGlyphs" textLength="101" x="461" y="555.77">free to continue</text><text fill="#000000" font-family="Menlo,Monaco,Consolas,&quot;Liberation Mono&quot;,&quot;Courier New&quot;,monospace" font-size="11" lengthAdjust="spacingAndGlyphs" textLength="149" x="170" y="593.0464">PHP2 does other things to</text><text fill="#000000" font-family="Menlo,Monaco,Consolas,&quot;Liberation Mono&quot;,&quot;Courier New&quot;,monospace" font-size="11" lengthAdjust="spacingAndGlyphs" textLength="113" x="186" y="605.8511">generate response,</text><text fill="#000000" font-family="Menlo,Monaco,Consolas,&quot;Liberation Mono&quot;,&quot;Courier New&quot;,monospace" font-size="11" lengthAdjust="spacingAndGlyphs" textLength="129" x="176" y="618.6558">and when it's finished:</text><polygon fill="#03A87C" points="428.5,667.25,438.5,671.25,428.5,675.25,432.5,671.25" style="stroke: #03A87C; stroke-width: 1.0;"/><line style="stroke: #03A87C; stroke-width: 1.0;" x1="260.5" x2="434.5" y1="671.25" y2="671.25"/><text fill="#000000" font-family="Menlo,Monaco,Consolas,&quot;Liberation Mono&quot;,&quot;Courier New&quot;,monospace" font-size="13" lengthAdjust="spacingAndGlyphs" textLength="79" x="267.5" y="651.3169">Release lock</text><text fill="#000000" font-family="Menlo,Monaco,Consolas,&quot;Liberation Mono&quot;,&quot;Courier New&quot;,monospace" font-size="13" lengthAdjust="spacingAndGlyphs" textLength="154" x="267.5" y="666.4497">on session file 'asdfasdf'</text><polygon fill="#03A87C" points="271.5,696.5156,261.5,700.5156,271.5,704.5156,267.5,700.5156" style="stroke: #03A87C; stroke-width: 1.0;"/><line style="stroke: #03A87C; stroke-width: 1.0; stroke-dasharray: 2.0,2.0;" x1="265.5" x2="444.5" y1="700.5156" y2="700.5156"/><text fill="#000000" font-family="Menlo,Monaco,Consolas,&quot;Liberation Mono&quot;,&quot;Courier New&quot;,monospace" font-size="13" lengthAdjust="spacingAndGlyphs" textLength="58" x="277.5" y="695.5825">OK, done</text><polygon fill="#03A87C" points="50.5,725.6484,40.5,729.6484,50.5,733.6484,46.5,729.6484" style="stroke: #03A87C; stroke-width: 1.0;"/><line style="stroke: #03A87C; stroke-width: 1.0; stroke-dasharray: 2.0,2.0;" x1="44.5" x2="254.5" y1="729.6484" y2="729.6484"/><text fill="#000000" font-family="Menlo,Monaco,Consolas,&quot;Liberation Mono&quot;,&quot;Courier New&quot;,monospace" font-size="13" lengthAdjust="spacingAndGlyphs" textLength="130" x="56.5" y="724.7153">Here's your content.</text><!--
@startuml

skinparam backgroundColor transparent
skinparam shadowing false
skinparam arrowColor gray
skinparam defaultFontName Menlo,Monaco,Consolas,"Liberation Mono","Courier New",monospace

skinparam class {
    arrowColor #03a87c
    borderColor #aaaaaa
    backgroundColor #fafafa
}

skinparam activity {
    arrowColor #03a87c
    borderColor #aaaaaa
    backgroundColor transparent
    fontSize 12
}

skinparam sequence {
    actorBorderColor #000000
    actorBackgroundColor transparent
    participantBorderColor #aaaaaa
    participantBackgroundColor transparent
    groupBorderThickness 1
    arrowColor #03a87c
    borderColor #aaaaaa
    backgroundColor transparent
    boxBorderColor #aaaaaa
    boxBackgroundColor transparent
    boxFontColor #000000
    lifeLineBorderColor #aaaaaa
}

skinparam note {
    borderColor #03a87c
    backgroundColor transparent
}
actor Browser
control PHP1
control PHP2
database Filesystem
Browser -> PHP1: Hey, give me that\nresource please!\nPHPSESSID=asdfasdf
Activate PHP1
PHP1 -> Filesystem: Lock session file 'asdfasdf'
Activate Filesystem
PHP1 <- - Filesystem: Here you go
Deactivate Filesystem
Browser -> PHP2: Hey, give me that\nother resource please!\nPHPSESSID=asdfasdf
Activate PHP2
PHP2 -> Filesystem: Lock session file asdfasdf
note right: PHP2 now has to\nwait for the lock
Activate Filesystem
Deactivate PHP2
... PHP1 does other things\nto generate response,\nand when it's finished: ...
PHP1 -> Filesystem: Release lock\non session file 'asdfasdf'
Activate Filesystem
PHP1 <- - Filesystem: OK, done
Deactivate Filesystem
Browser <- - PHP1: Here's your content.
Deactivate PHP1
PHP2 <- - Filesystem: Here you go
note right: PHP2 is now\nfree to continue
Deactivate Filesystem
Activate PHP2
... PHP2 does other things to\ngenerate response,\nand when it's finished: ...
PHP2 -> Filesystem: Release lock\non session file 'asdfasdf'
Activate Filesystem
PHP2 <- - Filesystem: OK, done
Deactivate Filesystem
Browser <- - PHP2: Here's your content.
Deactivate PHP2

@enduml

PlantUML version 1.2017.15(Mon Jul 03 16:45:34 UTC 2017)
(GPL source distribution)
Java Runtime: OpenJDK Runtime Environment
JVM: OpenJDK 64-Bit Server VM
Java Version: 11.0.7+10-post-Ubuntu-2ubuntu218.04
Operating System: Linux
OS Version: 4.15.0-1077-aws
Default Encoding: ANSI_X3.4-1968
Language: en
Country: US
--></g></svg>