<?xml version="1.0" encoding="UTF-8" standalone="no"?><svg xmlns="http://www.w3.org/2000/svg" xmlns:xlink="http://www.w3.org/1999/xlink" contentScriptType="application/ecmascript" contentStyleType="text/css" height="750px" preserveAspectRatio="none" style="width:620px;height:750px;" version="1.1" viewBox="0 0 620 750" width="620px" zoomAndPan="magnify"><defs/><g><rect fill="#FFFFFF" height="214.5938" style="stroke: #FFFFFF; stroke-width: 1.0;" width="10" x="197.5" y="143.2969"/><line style="stroke: #AAAAAA; stroke-width: 1.0;" x1="197.5" x2="197.5" y1="143.2969" y2="357.8906"/><line style="stroke: #AAAAAA; stroke-width: 1.0;" x1="207.5" x2="207.5" y1="143.2969" y2="357.8906"/><line style="stroke: #AAAAAA; stroke-width: 1.0;" x1="197.5" x2="207.5" y1="143.2969" y2="143.2969"/><rect fill="#FFFFFF" height="94.3984" style="stroke: #FFFFFF; stroke-width: 1.0;" width="10" x="197.5" y="411.5"/><line style="stroke: #AAAAAA; stroke-width: 1.0;" x1="197.5" x2="197.5" y1="411.5" y2="505.8984"/><line style="stroke: #AAAAAA; stroke-width: 1.0;" x1="207.5" x2="207.5" y1="411.5" y2="505.8984"/><line style="stroke: #AAAAAA; stroke-width: 1.0;" x1="197.5" x2="207.5" y1="505.8984" y2="505.8984"/><rect fill="#FFFFFF" height="81.7969" style="stroke: #FFFFFF; stroke-width: 1.0;" width="10" x="250.5" y="276.0938"/><line style="stroke: #AAAAAA; stroke-width: 1.0;" x1="250.5" x2="250.5" y1="276.0938" y2="357.8906"/><line style="stroke: #AAAAAA; stroke-width: 1.0;" x1="260.5" x2="260.5" y1="276.0938" y2="357.8906"/><line style="stroke: #AAAAAA; stroke-width: 1.0;" x1="250.5" x2="260.5" y1="276.0938" y2="276.0938"/><rect fill="#FFFFFF" height="233.1953" style="stroke: #FFFFFF; stroke-width: 1.0;" width="10" x="250.5" y="411.5"/><line style="stroke: #AAAAAA; stroke-width: 1.0;" x1="250.5" x2="250.5" y1="411.5" y2="644.6953"/><line style="stroke: #AAAAAA; stroke-width: 1.0;" x1="260.5" x2="260.5" y1="411.5" y2="644.6953"/><line style="stroke: #AAAAAA; stroke-width: 1.0;" x1="250.5" x2="260.5" y1="644.6953" y2="644.6953"/><rect fill="#FFFFFF" height="29.2656" style="stroke: #AAAAAA; stroke-width: 1.0;" width="10" x="412.5" y="187.6953"/><rect fill="#FFFFFF" height="29.2656" style="stroke: #AAAAAA; stroke-width: 1.0;" width="10" x="412.5" y="320.4922"/><rect fill="#FFFFFF" height="29.2656" style="stroke: #AAAAAA; stroke-width: 1.0;" width="10" x="412.5" y="447.5"/><rect fill="#FFFFFF" height="47.3984" style="stroke: #AAAAAA; stroke-width: 1.0;" width="10" x="412.5" y="550.0313"/><line style="stroke: #AAAAAA; stroke-width: 1.0;" x1="39" x2="39" y1="82.2969" y2="357.8906"/><line style="stroke: #AAAAAA; stroke-width: 1.0; stroke-dasharray: 1.0,4.0;" x1="39" x2="39" y1="357.8906" y2="411.5"/><line style="stroke: #AAAAAA; stroke-width: 1.0;" x1="39" x2="39" y1="411.5" y2="662.8281"/><line style="stroke: #AAAAAA; stroke-width: 1.0;" x1="202" x2="202" y1="82.2969" y2="357.8906"/><line style="stroke: #AAAAAA; stroke-width: 1.0; stroke-dasharray: 1.0,4.0;" x1="202" x2="202" y1="357.8906" y2="411.5"/><line style="stroke: #AAAAAA; stroke-width: 1.0;" x1="202" x2="202" y1="411.5" y2="662.8281"/><line style="stroke: #AAAAAA; stroke-width: 1.0;" x1="255" x2="255" y1="82.2969" y2="357.8906"/><line style="stroke: #AAAAAA; stroke-width: 1.0; stroke-dasharray: 1.0,4.0;" x1="255" x2="255" y1="357.8906" y2="411.5"/><line style="stroke: #AAAAAA; stroke-width: 1.0;" x1="255" x2="255" y1="411.5" y2="662.8281"/><line style="stroke: #AAAAAA; stroke-width: 1.0;" x1="417" x2="417" y1="82.2969" y2="357.8906"/><line style="stroke: #AAAAAA; stroke-width: 1.0; stroke-dasharray: 1.0,4.0;" x1="417" x2="417" y1="357.8906" y2="411.5"/><line style="stroke: #AAAAAA; stroke-width: 1.0;" x1="417" x2="417" y1="411.5" y2="662.8281"/><text fill="#000000" font-family="Menlo,Monaco,Consolas,&quot;Liberation Mono&quot;,&quot;Courier New&quot;,monospace" font-size="14" lengthAdjust="spacingAndGlyphs" textLength="57" x="8" y="78.9951">Browser</text><ellipse cx="39.5" cy="13" fill="#FFFFFF" rx="8" ry="8" style="stroke: #000000; stroke-width: 2.0;"/><path d="M39.5,21 L39.5,48 M26.5,29 L52.5,29 M39.5,48 L26.5,63 M39.5,48 L52.5,63 " fill="#FFFFFF" style="stroke: #000000; stroke-width: 2.0;"/><text fill="#000000" font-family="Menlo,Monaco,Consolas,&quot;Liberation Mono&quot;,&quot;Courier New&quot;,monospace" font-size="14" lengthAdjust="spacingAndGlyphs" textLength="57" x="8" y="674.8232">Browser</text><ellipse cx="39.5" cy="688.125" fill="#FFFFFF" rx="8" ry="8" style="stroke: #000000; stroke-width: 2.0;"/><path d="M39.5,696.125 L39.5,723.125 M26.5,704.125 L52.5,704.125 M39.5,723.125 L26.5,738.125 M39.5,723.125 L52.5,738.125 " fill="#FFFFFF" style="stroke: #000000; stroke-width: 2.0;"/><text fill="#000000" font-family="Menlo,Monaco,Consolas,&quot;Liberation Mono&quot;,&quot;Courier New&quot;,monospace" font-size="14" lengthAdjust="spacingAndGlyphs" textLength="37" x="181" y="78.9951">PHP1</text><ellipse cx="202.5" cy="50" fill="#FEFECE" rx="12" ry="12" style="stroke: #A80036; stroke-width: 2.0;"/><polygon fill="#A80036" points="198.5,38,204.5,33,202.5,38,204.5,43,198.5,38" style="stroke: #A80036; stroke-width: 1.0;"/><text fill="#000000" font-family="Menlo,Monaco,Consolas,&quot;Liberation Mono&quot;,&quot;Courier New&quot;,monospace" font-size="14" lengthAdjust="spacingAndGlyphs" textLength="37" x="181" y="674.8232">PHP1</text><ellipse cx="202.5" cy="694.125" fill="#FEFECE" rx="12" ry="12" style="stroke: #A80036; stroke-width: 2.0;"/><polygon fill="#A80036" points="198.5,682.125,204.5,677.125,202.5,682.125,204.5,687.125,198.5,682.125" style="stroke: #A80036; stroke-width: 1.0;"/><text fill="#000000" font-family="Menlo,Monaco,Consolas,&quot;Liberation Mono&quot;,&quot;Courier New&quot;,monospace" font-size="14" lengthAdjust="spacingAndGlyphs" textLength="37" x="234" y="78.9951">PHP2</text><ellipse cx="255.5" cy="50" fill="#FEFECE" rx="12" ry="12" style="stroke: #A80036; stroke-width: 2.0;"/><polygon fill="#A80036" points="251.5,38,257.5,33,255.5,38,257.5,43,251.5,38" style="stroke: #A80036; stroke-width: 1.0;"/><text fill="#000000" font-family="Menlo,Monaco,Consolas,&quot;Liberation Mono&quot;,&quot;Courier New&quot;,monospace" font-size="14" lengthAdjust="spacingAndGlyphs" textLength="37" x="234" y="674.8232">PHP2</text><ellipse cx="255.5" cy="694.125" fill="#FEFECE" rx="12" ry="12" style="stroke: #A80036; stroke-width: 2.0;"/><polygon fill="#A80036" points="251.5,682.125,257.5,677.125,255.5,682.125,257.5,687.125,251.5,682.125" style="stroke: #A80036; stroke-width: 1.0;"/><text fill="#000000" font-family="Menlo,Monaco,Consolas,&quot;Liberation Mono&quot;,&quot;Courier New&quot;,monospace" font-size="14" lengthAdjust="spacingAndGlyphs" textLength="69" x="380" y="78.9951">MongoDB</text><path d="M399.5,30 C399.5,20 417.5,20 417.5,20 C417.5,20 435.5,20 435.5,30 L435.5,56 C435.5,66 417.5,66 417.5,66 C417.5,66 399.5,66 399.5,56 L399.5,30 " fill="#FEFECE" style="stroke: #000000; stroke-width: 1.5;"/><path d="M399.5,30 C399.5,40 417.5,40 417.5,40 C417.5,40 435.5,40 435.5,30 " fill="none" style="stroke: #000000; stroke-width: 1.5;"/><text fill="#000000" font-family="Menlo,Monaco,Consolas,&quot;Liberation Mono&quot;,&quot;Courier New&quot;,monospace" font-size="14" lengthAdjust="spacingAndGlyphs" textLength="69" x="380" y="674.8232">MongoDB</text><path d="M399.5,688.125 C399.5,678.125 417.5,678.125 417.5,678.125 C417.5,678.125 435.5,678.125 435.5,688.125 L435.5,714.125 C435.5,724.125 417.5,724.125 417.5,724.125 C417.5,724.125 399.5,724.125 399.5,714.125 L399.5,688.125 " fill="#FEFECE" style="stroke: #000000; stroke-width: 1.5;"/><path d="M399.5,688.125 C399.5,698.125 417.5,698.125 417.5,698.125 C417.5,698.125 435.5,698.125 435.5,688.125 " fill="none" style="stroke: #000000; stroke-width: 1.5;"/><rect fill="#FFFFFF" height="214.5938" style="stroke: #FFFFFF; stroke-width: 1.0;" width="10" x="197.5" y="143.2969"/><line style="stroke: #AAAAAA; stroke-width: 1.0;" x1="197.5" x2="197.5" y1="143.2969" y2="357.8906"/><line style="stroke: #AAAAAA; stroke-width: 1.0;" x1="207.5" x2="207.5" y1="143.2969" y2="357.8906"/><line style="stroke: #AAAAAA; stroke-width: 1.0;" x1="197.5" x2="207.5" y1="143.2969" y2="143.2969"/><rect fill="#FFFFFF" height="94.3984" style="stroke: #FFFFFF; stroke-width: 1.0;" width="10" x="197.5" y="411.5"/><line style="stroke: #AAAAAA; stroke-width: 1.0;" x1="197.5" x2="197.5" y1="411.5" y2="505.8984"/><line style="stroke: #AAAAAA; stroke-width: 1.0;" x1="207.5" x2="207.5" y1="411.5" y2="505.8984"/><line style="stroke: #AAAAAA; stroke-width: 1.0;" x1="197.5" x2="207.5" y1="505.8984" y2="505.8984"/><rect fill="#FFFFFF" height="81.7969" style="stroke: #FFFFFF; stroke-width: 1.0;" width="10" x="250.5" y="276.0938"/><line style="stroke: #AAAAAA; stroke-width: 1.0;" x1="250.5" x2="250.5" y1="276.0938" y2="357.8906"/><line style="stroke: #AAAAAA; stroke-width: 1.0;" x1="260.5" x2="260.5" y1="276.0938" y2="357.8906"/><line style="stroke: #AAAAAA; stroke-width: 1.0;" x1="250.5" x2="260.5" y1="276.0938" y2="276.0938"/><rect fill="#FFFFFF" height="233.1953" style="stroke: #FFFFFF; stroke-width: 1.0;" width="10" x="250.5" y="411.5"/><line style="stroke: #AAAAAA; stroke-width: 1.0;" x1="250.5" x2="250.5" y1="411.5" y2="644.6953"/><line style="stroke: #AAAAAA; stroke-width: 1.0;" x1="260.5" x2="260.5" y1="411.5" y2="644.6953"/><line style="stroke: #AAAAAA; stroke-width: 1.0;" x1="250.5" x2="260.5" y1="644.6953" y2="644.6953"/><rect fill="#FFFFFF" height="29.2656" style="stroke: #AAAAAA; stroke-width: 1.0;" width="10" x="412.5" y="187.6953"/><rect fill="#FFFFFF" height="29.2656" style="stroke: #AAAAAA; stroke-width: 1.0;" width="10" x="412.5" y="320.4922"/><rect fill="#FFFFFF" height="29.2656" style="stroke: #AAAAAA; stroke-width: 1.0;" width="10" x="412.5" y="447.5"/><rect fill="#FFFFFF" height="47.3984" style="stroke: #AAAAAA; stroke-width: 1.0;" width="10" x="412.5" y="550.0313"/><polygon fill="#03A87C" points="185.5,139.2969,195.5,143.2969,185.5,147.2969,189.5,143.2969" style="stroke: #03A87C; stroke-width: 1.0;"/><line style="stroke: #03A87C; stroke-width: 1.0;" x1="39.5" x2="191.5" y1="143.2969" y2="143.2969"/><text fill="#000000" font-family="Menlo,Monaco,Consolas,&quot;Liberation Mono&quot;,&quot;Courier New&quot;,monospace" font-size="13" lengthAdjust="spacingAndGlyphs" textLength="84" x="46.5" y="108.3638">Hey, give me</text><text fill="#000000" font-family="Menlo,Monaco,Consolas,&quot;Liberation Mono&quot;,&quot;Courier New&quot;,monospace" font-size="13" lengthAdjust="spacingAndGlyphs" textLength="137" x="46.5" y="123.4966">that resource please!</text><text fill="#000000" font-family="Menlo,Monaco,Consolas,&quot;Liberation Mono&quot;,&quot;Courier New&quot;,monospace" font-size="13" lengthAdjust="spacingAndGlyphs" textLength="139" x="46.5" y="138.6294">PHPSESSID=asdfasdf</text><polygon fill="#03A87C" points="400.5,183.6953,410.5,187.6953,400.5,191.6953,404.5,187.6953" style="stroke: #03A87C; stroke-width: 1.0;"/><line style="stroke: #03A87C; stroke-width: 1.0;" x1="207.5" x2="406.5" y1="187.6953" y2="187.6953"/><text fill="#000000" font-family="Menlo,Monaco,Consolas,&quot;Liberation Mono&quot;,&quot;Courier New&quot;,monospace" font-size="13" lengthAdjust="spacingAndGlyphs" textLength="111" x="214.5" y="167.7622">Give me the data</text><text fill="#000000" font-family="Menlo,Monaco,Consolas,&quot;Liberation Mono&quot;,&quot;Courier New&quot;,monospace" font-size="13" lengthAdjust="spacingAndGlyphs" textLength="130" x="214.5" y="182.895">for sesson 'asdfasdf'</text><polygon fill="#03A87C" points="218.5,212.9609,208.5,216.9609,218.5,220.9609,214.5,216.9609" style="stroke: #03A87C; stroke-width: 1.0;"/><line style="stroke: #03A87C; stroke-width: 1.0; stroke-dasharray: 2.0,2.0;" x1="212.5" x2="416.5" y1="216.9609" y2="216.9609"/><text fill="#000000" font-family="Menlo,Monaco,Consolas,&quot;Liberation Mono&quot;,&quot;Courier New&quot;,monospace" font-size="13" lengthAdjust="spacingAndGlyphs" textLength="78" x="224.5" y="212.0278">Here you go</text><polygon fill="#03A87C" points="238.5,272.0938,248.5,276.0938,238.5,280.0938,242.5,276.0938" style="stroke: #03A87C; stroke-width: 1.0;"/><line style="stroke: #03A87C; stroke-width: 1.0;" x1="39.5" x2="244.5" y1="276.0938" y2="276.0938"/><text fill="#000000" font-family="Menlo,Monaco,Consolas,&quot;Liberation Mono&quot;,&quot;Courier New&quot;,monospace" font-size="13" lengthAdjust="spacingAndGlyphs" textLength="84" x="46.5" y="241.1606">Hey, give me</text><text fill="#000000" font-family="Menlo,Monaco,Consolas,&quot;Liberation Mono&quot;,&quot;Courier New&quot;,monospace" font-size="13" lengthAdjust="spacingAndGlyphs" textLength="175" x="46.5" y="256.2935">that other resource please!</text><text fill="#000000" font-family="Menlo,Monaco,Consolas,&quot;Liberation Mono&quot;,&quot;Courier New&quot;,monospace" font-size="13" lengthAdjust="spacingAndGlyphs" textLength="139" x="46.5" y="271.4263">PHPSESSID=asdfasdf</text><polygon fill="#03A87C" points="400.5,316.4922,410.5,320.4922,400.5,324.4922,404.5,320.4922" style="stroke: #03A87C; stroke-width: 1.0;"/><line style="stroke: #03A87C; stroke-width: 1.0;" x1="260.5" x2="406.5" y1="320.4922" y2="320.4922"/><text fill="#000000" font-family="Menlo,Monaco,Consolas,&quot;Liberation Mono&quot;,&quot;Courier New&quot;,monospace" font-size="13" lengthAdjust="spacingAndGlyphs" textLength="111" x="267.5" y="300.5591">Give me the data</text><text fill="#000000" font-family="Menlo,Monaco,Consolas,&quot;Liberation Mono&quot;,&quot;Courier New&quot;,monospace" font-size="13" lengthAdjust="spacingAndGlyphs" textLength="133" x="267.5" y="315.6919">for session 'asdfasdf'</text><polygon fill="#03A87C" points="271.5,345.7578,261.5,349.7578,271.5,353.7578,267.5,349.7578" style="stroke: #03A87C; stroke-width: 1.0;"/><line style="stroke: #03A87C; stroke-width: 1.0; stroke-dasharray: 2.0,2.0;" x1="265.5" x2="416.5" y1="349.7578" y2="349.7578"/><text fill="#000000" font-family="Menlo,Monaco,Consolas,&quot;Liberation Mono&quot;,&quot;Courier New&quot;,monospace" font-size="13" lengthAdjust="spacingAndGlyphs" textLength="78" x="277.5" y="344.8247">Here you go</text><text fill="#000000" font-family="Menlo,Monaco,Consolas,&quot;Liberation Mono&quot;,&quot;Courier New&quot;,monospace" font-size="11" lengthAdjust="spacingAndGlyphs" textLength="125" x="168" y="382.1011">Both PHP 1 and PHP 2</text><text fill="#000000" font-family="Menlo,Monaco,Consolas,&quot;Liberation Mono&quot;,&quot;Courier New&quot;,monospace" font-size="11" lengthAdjust="spacingAndGlyphs" textLength="76" x="188.5" y="394.9058">do their thing</text><polygon fill="#03A87C" points="400.5,443.5,410.5,447.5,400.5,451.5,404.5,447.5" style="stroke: #03A87C; stroke-width: 1.0;"/><line style="stroke: #03A87C; stroke-width: 1.0;" x1="207.5" x2="406.5" y1="447.5" y2="447.5"/><text fill="#000000" font-family="Menlo,Monaco,Consolas,&quot;Liberation Mono&quot;,&quot;Courier New&quot;,monospace" font-size="13" lengthAdjust="spacingAndGlyphs" textLength="117" x="214.5" y="427.5669">Write session data</text><text fill="#000000" font-family="Menlo,Monaco,Consolas,&quot;Liberation Mono&quot;,&quot;Courier New&quot;,monospace" font-size="13" lengthAdjust="spacingAndGlyphs" textLength="81" x="214.5" y="442.6997">for 'asdfasdf'</text><polygon fill="#03A87C" points="218.5,472.7656,208.5,476.7656,218.5,480.7656,214.5,476.7656" style="stroke: #03A87C; stroke-width: 1.0;"/><line style="stroke: #03A87C; stroke-width: 1.0; stroke-dasharray: 2.0,2.0;" x1="212.5" x2="416.5" y1="476.7656" y2="476.7656"/><text fill="#000000" font-family="Menlo,Monaco,Consolas,&quot;Liberation Mono&quot;,&quot;Courier New&quot;,monospace" font-size="13" lengthAdjust="spacingAndGlyphs" textLength="58" x="224.5" y="471.8325">OK, done</text><polygon fill="#03A87C" points="50.5,501.8984,40.5,505.8984,50.5,509.8984,46.5,505.8984" style="stroke: #03A87C; stroke-width: 1.0;"/><line style="stroke: #03A87C; stroke-width: 1.0; stroke-dasharray: 2.0,2.0;" x1="44.5" x2="201.5" y1="505.8984" y2="505.8984"/><text fill="#000000" font-family="Menlo,Monaco,Consolas,&quot;Liberation Mono&quot;,&quot;Courier New&quot;,monospace" font-size="13" lengthAdjust="spacingAndGlyphs" textLength="130" x="56.5" y="500.9653">Here's your content.</text><polygon fill="#03A87C" points="400.5,546.0313,410.5,550.0313,400.5,554.0313,404.5,550.0313" style="stroke: #03A87C; stroke-width: 1.0;"/><line style="stroke: #03A87C; stroke-width: 1.0;" x1="260.5" x2="406.5" y1="550.0313" y2="550.0313"/><text fill="#000000" font-family="Menlo,Monaco,Consolas,&quot;Liberation Mono&quot;,&quot;Courier New&quot;,monospace" font-size="13" lengthAdjust="spacingAndGlyphs" textLength="117" x="267.5" y="530.0981">Write session data</text><text fill="#000000" font-family="Menlo,Monaco,Consolas,&quot;Liberation Mono&quot;,&quot;Courier New&quot;,monospace" font-size="13" lengthAdjust="spacingAndGlyphs" textLength="81" x="267.5" y="545.231">for 'asdfasdf'</text><polygon fill="#03A87C" points="271.5,593.4297,261.5,597.4297,271.5,601.4297,267.5,597.4297" style="stroke: #03A87C; stroke-width: 1.0;"/><line style="stroke: #03A87C; stroke-width: 1.0; stroke-dasharray: 2.0,2.0;" x1="265.5" x2="416.5" y1="597.4297" y2="597.4297"/><text fill="#000000" font-family="Menlo,Monaco,Consolas,&quot;Liberation Mono&quot;,&quot;Courier New&quot;,monospace" font-size="13" lengthAdjust="spacingAndGlyphs" textLength="78" x="277.5" y="592.4966">Here you go</text><polygon fill="#FFFFFF" points="427,563.2969,427,618.2969,598,618.2969,598,573.2969,588,563.2969,427,563.2969" style="stroke: #03A87C; stroke-width: 1.0;"/><line style="stroke: #03A87C; stroke-width: 1.0;" x1="588" x2="588" y1="563.2969" y2="573.2969"/><line style="stroke: #03A87C; stroke-width: 1.0;" x1="598" x2="588" y1="573.2969" y2="573.2969"/><text fill="#000000" font-family="Menlo,Monaco,Consolas,&quot;Liberation Mono&quot;,&quot;Courier New&quot;,monospace" font-size="13" lengthAdjust="spacingAndGlyphs" textLength="150" x="433" y="580.3638">PHP2 is now overwriting</text><text fill="#000000" font-family="Menlo,Monaco,Consolas,&quot;Liberation Mono&quot;,&quot;Courier New&quot;,monospace" font-size="13" lengthAdjust="spacingAndGlyphs" textLength="119" x="433" y="595.4966">any changes PHP1</text><text fill="#000000" font-family="Menlo,Monaco,Consolas,&quot;Liberation Mono&quot;,&quot;Courier New&quot;,monospace" font-size="13" lengthAdjust="spacingAndGlyphs" textLength="108" x="433" y="610.6294">may have made.</text><polygon fill="#03A87C" points="50.5,640.6953,40.5,644.6953,50.5,648.6953,46.5,644.6953" style="stroke: #03A87C; stroke-width: 1.0;"/><line style="stroke: #03A87C; stroke-width: 1.0; stroke-dasharray: 2.0,2.0;" x1="44.5" x2="254.5" y1="644.6953" y2="644.6953"/><text fill="#000000" font-family="Menlo,Monaco,Consolas,&quot;Liberation Mono&quot;,&quot;Courier New&quot;,monospace" font-size="13" lengthAdjust="spacingAndGlyphs" textLength="130" x="56.5" y="639.7622">Here's your content.</text><!--
@startuml

skinparam backgroundColor transparent
skinparam shadowing false
skinparam arrowColor gray
skinparam defaultFontName Menlo,Monaco,Consolas,"Liberation Mono","Courier New",monospace

skinparam class {
    arrowColor #03a87c
    borderColor #aaaaaa
    backgroundColor #fafafa
}

skinparam activity {
    arrowColor #03a87c
    borderColor #aaaaaa
    backgroundColor transparent
    fontSize 12
}

skinparam sequence {
    actorBorderColor #000000
    actorBackgroundColor transparent
    participantBorderColor #aaaaaa
    participantBackgroundColor transparent
    groupBorderThickness 1
    arrowColor #03a87c
    borderColor #aaaaaa
    backgroundColor transparent
    boxBorderColor #aaaaaa
    boxBackgroundColor transparent
    boxFontColor #000000
    lifeLineBorderColor #aaaaaa
}

skinparam note {
    borderColor #03a87c
    backgroundColor transparent
}
actor Browser
control PHP1
control PHP2
database MongoDB
Browser -> PHP1: Hey, give me\nthat resource please!\nPHPSESSID=asdfasdf
Activate PHP1
PHP1 -> MongoDB: Give me the data\nfor sesson 'asdfasdf'
Activate MongoDB
PHP1 <- - MongoDB: Here you go
Deactivate MongoDB
Browser -> PHP2: Hey, give me\nthat other resource please!\nPHPSESSID=asdfasdf
Activate PHP2
PHP2 -> MongoDB: Give me the data\nfor session 'asdfasdf'
Activate MongoDB
PHP2 <- - MongoDB: Here you go
Deactivate MongoDB
... Both PHP 1 and PHP 2\ndo their thing ...
PHP1 -> MongoDB: Write session data\nfor 'asdfasdf'
Activate MongoDB
PHP1 <- - MongoDB: OK, done
Deactivate MongoDB
Browser <- - PHP1: Here's your content.
Deactivate PHP1
PHP2 -> MongoDB: Write session data\nfor 'asdfasdf'
Activate MongoDB
PHP2 <- - MongoDB: Here you go
note right: PHP2 is now overwriting\nany changes PHP1\nmay have made.
Deactivate MongoDB
Browser <- - PHP2: Here's your content.
Deactivate PHP2

@enduml

PlantUML version 1.2017.15(Mon Jul 03 16:45:34 UTC 2017)
(GPL source distribution)
Java Runtime: OpenJDK Runtime Environment
JVM: OpenJDK 64-Bit Server VM
Java Version: 11.0.7+10-post-Ubuntu-2ubuntu218.04
Operating System: Linux
OS Version: 4.15.0-1077-aws
Default Encoding: ANSI_X3.4-1968
Language: en
Country: US
--></g></svg>