<?xml version="1.0" encoding="UTF-8" standalone="no"?>
<svg width="483pt" height="125pt" viewBox="0.00 0.00 483.00 124.50" xmlns="http://www.w3.org/2000/svg" xmlns:xlink="http://www.w3.org/1999/xlink">
    <g id="graph0" class="graph" transform="scale(1 1) rotate(0) translate(4 120.5)">
        <polygon fill="#ffffff" stroke="transparent" points="-4,4 -4,-120.5 479,-120.5 479,4 -4,4"></polygon>
        <!-- students -->
        <g id="node1" class="node">
            <polygon fill="none" stroke="#000000" points="0,-24 0,-116 229,-116 229,-24 0,-24"></polygon>
            <text text-anchor="middle" x="114.5" y="-100.8" fill="#000000">students</text>
            <polyline fill="none" stroke="#000000" points="0,-93 229,-93 "></polyline>
            <text text-anchor="middle" x="114.5" y="-77.8" fill="#000000">student_id INT</text>
            <polyline fill="none" stroke="#000000" points="0,-70 229,-70 "></polyline>
            <text text-anchor="middle" x="114.5" y="-54.8" fill="#000000">student_name VARCHAR(255)</text>
            <polyline fill="none" stroke="#000000" points="0,-47 229,-47 "></polyline>
            <text text-anchor="middle" x="114.5" y="-31.8" fill="#000000">class_id INT</text>
        </g>
        <!-- classes -->
        <g id="node2" class="node">
            <polygon fill="none" stroke="#000000" points="265,-.5 265,-69.5 475,-69.5 475,-.5 265,-.5"></polygon>
            <text text-anchor="middle" x="370" y="-54.3" fill="#000000">classes</text>
            <polyline fill="none" stroke="#000000" points="265,-46.5 475,-46.5 "></polyline>
            <text text-anchor="middle" x="370" y="-31.3" fill="#000000">class_id INT</text>
            <polyline fill="none" stroke="#000000" points="265,-23.5 475,-23.5 "></polyline>
            <text text-anchor="middle" x="370" y="-8.3" fill="#000000">class_name VARCHAR(255)</text>
        </g>
        <!-- students&#45;&gt;classes -->
        <g id="edge1" class="edge">
            <path fill="none" stroke="#777777" d="M229,-35C241,-35 246.25,-35 254.875,-35"></path>
            <polygon fill="#777777" stroke="#777777" points="255,-38.5001 265,-35 255,-31.5001 255,-38.5001"></polygon>
            <text text-anchor="middle" x="260" y="-23.8" fill="#000000">1</text>
            <text text-anchor="middle" x="234" y="-23.8" fill="#000000">n</text>
        </g>
    </g>
</svg>