<?xml version="1.0" encoding="UTF-8" standalone="no"?>
<svg width="385pt" height="116pt" viewBox="0.00 0.00 385.00 116.00" xmlns="http://www.w3.org/2000/svg" xmlns:xlink="http://www.w3.org/1999/xlink">
    <g id="graph0" class="graph" transform="scale(1 1) rotate(0) translate(4 112)">
        <polygon fill="#ffffff" stroke="transparent" points="-4,4 -4,-112 381,-112 381,4 -4,4"></polygon>
        <!-- Joe -->
        <g id="node1" class="node">
            <text text-anchor="middle" x="110.5" y="-86.3" fill="#000000">Joe</text>
        </g>
        <!-- math -->
        <g id="node2" class="node">
            <text text-anchor="middle" x="182.5" y="-14.3" fill="#000000">math</text>
        </g>
        <!-- Joe&#45;&gt;math -->
        <g id="edge1" class="edge">
            <path fill="none" stroke="#000000" d="M128.6686,-71.8314C137.2152,-63.2848 147.5557,-52.9443 156.8802,-43.6198"></path>
            <polygon fill="#000000" stroke="#000000" points="159.4905,-45.9592 164.0867,-36.4133 154.5408,-41.0095 159.4905,-45.9592"></polygon>
        </g>
        <!-- literature -->
        <g id="node3" class="node">
            <text text-anchor="middle" x="32.5" y="-14.3" fill="#000000">literature</text>
        </g>
        <!-- Joe&#45;&gt;literature -->
        <g id="edge2" class="edge">
            <path fill="none" stroke="#000000" d="M90.8173,-71.8314C81.3949,-63.1337 69.9599,-52.5783 59.7204,-43.1265"></path>
            <polygon fill="#000000" stroke="#000000" points="61.8984,-40.3738 52.1764,-36.1628 57.1505,-45.5175 61.8984,-40.3738"></polygon>
        </g>
        <!-- history -->
        <g id="node4" class="node">
            <text text-anchor="middle" x="110.5" y="-14.3" fill="#000000">history</text>
        </g>
        <!-- Joe&#45;&gt;history -->
        <g id="edge3" class="edge">
            <path fill="none" stroke="#000000" d="M110.5,-71.8314C110.5,-64.131 110.5,-54.9743 110.5,-46.4166"></path>
            <polygon fill="#000000" stroke="#000000" points="114.0001,-46.4132 110.5,-36.4133 107.0001,-46.4133 114.0001,-46.4132"></polygon>
        </g>
        <!-- Suzy -->
        <g id="node5" class="node">
            <text text-anchor="middle" x="264.5" y="-86.3" fill="#000000">Suzy</text>
        </g>
        <!-- Suzy&#45;&gt;math -->
        <g id="edge5" class="edge">
            <path fill="none" stroke="#000000" d="M243.8079,-71.8314C233.8052,-63.0485 221.645,-52.3712 210.8001,-42.8489"></path>
            <polygon fill="#000000" stroke="#000000" points="213.0092,-40.1308 203.1854,-36.1628 208.3906,-45.3909 213.0092,-40.1308"></polygon>
        </g>
        <!-- astronomy -->
        <g id="node6" class="node">
            <text text-anchor="middle" x="264.5" y="-14.3" fill="#000000">astronomy</text>
        </g>
        <!-- Suzy&#45;&gt;astronomy -->
        <g id="edge4" class="edge">
            <path fill="none" stroke="#000000" d="M264.5,-71.8314C264.5,-64.131 264.5,-54.9743 264.5,-46.4166"></path>
            <polygon fill="#000000" stroke="#000000" points="268.0001,-46.4132 264.5,-36.4133 261.0001,-46.4133 268.0001,-46.4132"></polygon>
        </g>
        <!-- physics -->
        <g id="node7" class="node">
            <text text-anchor="middle" x="348.5" y="-14.3" fill="#000000">physics</text>
        </g>
        <!-- Suzy&#45;&gt;physics -->
        <g id="edge6" class="edge">
            <path fill="none" stroke="#000000" d="M285.6967,-71.8314C295.9434,-63.0485 308.4003,-52.3712 319.5097,-42.8489"></path>
            <polygon fill="#000000" stroke="#000000" points="321.9952,-45.3282 327.31,-36.1628 317.4397,-40.0134 321.9952,-45.3282"></polygon>
        </g>
    </g>
</svg>