<svg id="Layer_1" data-name="Layer 1" xmlns="http://www.w3.org/2000/svg" viewBox="0 0 512 512"><path d="M256.18,1.11c-140.83,0-255,114.17-255,255s114.17,255,255,255,255-114.17,255-255S397,1.11,256.18,1.11Zm175,255.28s0,55.55-7.05,82.34a42.89,42.89,0,0,1-30.17,30.17C367.14,376,260,376,260,376s-106.87,0-133.94-7.33a42.9,42.9,0,0,1-30.17-30.17c-7-26.51-7-82.34-7-82.34s0-55.55,7-82.33a43.76,43.76,0,0,1,30.17-30.45c26.79-7.05,133.94-7.05,133.94-7.05s107.15,0,133.93,7.33a42.87,42.87,0,0,1,30.17,30.17C431.42,200.56,431.14,256.39,431.14,256.39Z"/><polygon points="225.87 307.43 314.97 256.11 225.87 204.79 225.87 307.43"/></svg>