<?xml version="1.0" encoding="UTF-8" standalone="no"?><svg xmlns="http://www.w3.org/2000/svg" xmlns:xlink="http://www.w3.org/1999/xlink" contentScriptType="application/ecmascript" contentStyleType="text/css" height="317px" preserveAspectRatio="none" style="width:519px;height:317px;" version="1.1" viewBox="0 0 519 317" width="519px" zoomAndPan="magnify"><defs/><g><!--class UserInterface--><rect fill="#FAFAFA" height="48" id="UserInterface" style="stroke: #AAAAAA; stroke-width: 1.5;" width="117" x="174.5" y="8"/><ellipse cx="189.5" cy="24" fill="#ADD1B2" rx="11" ry="11" style="stroke: #AAAAAA; stroke-width: 1.0;"/><path d="M192.4688,29.6406 Q191.8906,29.9375 191.25,30.0781 Q190.6094,30.2344 189.9063,30.2344 Q187.4063,30.2344 186.0781,28.5938 Q184.7656,26.9375 184.7656,23.8125 Q184.7656,20.6875 186.0781,19.0313 Q187.4063,17.375 189.9063,17.375 Q190.6094,17.375 191.25,17.5313 Q191.9063,17.6875 192.4688,17.9844 L192.4688,20.7031 Q191.8438,20.125 191.25,19.8594 Q190.6563,19.5781 190.0313,19.5781 Q188.6875,19.5781 188,20.6563 Q187.3125,21.7188 187.3125,23.8125 Q187.3125,25.9063 188,26.9844 Q188.6875,28.0469 190.0313,28.0469 Q190.6563,28.0469 191.25,27.7813 Q191.8438,27.5 192.4688,26.9219 L192.4688,29.6406 Z "/><text fill="#000000" font-family="Menlo,Monaco,Consolas,&quot;Liberation Mono&quot;,&quot;Courier New&quot;,monospace" font-size="12" lengthAdjust="spacingAndGlyphs" textLength="85" x="203.5" y="28.1543">UserInterface</text><line style="stroke: #AAAAAA; stroke-width: 1.5;" x1="175.5" x2="290.5" y1="40" y2="40"/><line style="stroke: #AAAAAA; stroke-width: 1.5;" x1="175.5" x2="290.5" y1="48" y2="48"/><!--class StudentBusinessLogic--><rect fill="#FAFAFA" height="48" id="StudentBusinessLogic" style="stroke: #AAAAAA; stroke-width: 1.5;" width="170" x="45" y="133"/><ellipse cx="60" cy="149" fill="#ADD1B2" rx="11" ry="11" style="stroke: #AAAAAA; stroke-width: 1.0;"/><path d="M62.9688,154.6406 Q62.3906,154.9375 61.75,155.0781 Q61.1094,155.2344 60.4063,155.2344 Q57.9063,155.2344 56.5781,153.5938 Q55.2656,151.9375 55.2656,148.8125 Q55.2656,145.6875 56.5781,144.0313 Q57.9063,142.375 60.4063,142.375 Q61.1094,142.375 61.75,142.5313 Q62.4063,142.6875 62.9688,142.9844 L62.9688,145.7031 Q62.3438,145.125 61.75,144.8594 Q61.1563,144.5781 60.5313,144.5781 Q59.1875,144.5781 58.5,145.6563 Q57.8125,146.7188 57.8125,148.8125 Q57.8125,150.9063 58.5,151.9844 Q59.1875,153.0469 60.5313,153.0469 Q61.1563,153.0469 61.75,152.7813 Q62.3438,152.5 62.9688,151.9219 L62.9688,154.6406 Z "/><text fill="#000000" font-family="Menlo,Monaco,Consolas,&quot;Liberation Mono&quot;,&quot;Courier New&quot;,monospace" font-size="12" lengthAdjust="spacingAndGlyphs" textLength="138" x="74" y="153.1543">StudentBusinessLogic</text><line style="stroke: #AAAAAA; stroke-width: 1.5;" x1="46" x2="214" y1="165" y2="165"/><line style="stroke: #AAAAAA; stroke-width: 1.5;" x1="46" x2="214" y1="173" y2="173"/><!--class TeacherBusinessLogic--><rect fill="#FAFAFA" height="48" id="TeacherBusinessLogic" style="stroke: #AAAAAA; stroke-width: 1.5;" width="171" x="250.5" y="133"/><ellipse cx="265.5" cy="149" fill="#ADD1B2" rx="11" ry="11" style="stroke: #AAAAAA; stroke-width: 1.0;"/><path d="M268.4688,154.6406 Q267.8906,154.9375 267.25,155.0781 Q266.6094,155.2344 265.9063,155.2344 Q263.4063,155.2344 262.0781,153.5938 Q260.7656,151.9375 260.7656,148.8125 Q260.7656,145.6875 262.0781,144.0313 Q263.4063,142.375 265.9063,142.375 Q266.6094,142.375 267.25,142.5313 Q267.9063,142.6875 268.4688,142.9844 L268.4688,145.7031 Q267.8438,145.125 267.25,144.8594 Q266.6563,144.5781 266.0313,144.5781 Q264.6875,144.5781 264,145.6563 Q263.3125,146.7188 263.3125,148.8125 Q263.3125,150.9063 264,151.9844 Q264.6875,153.0469 266.0313,153.0469 Q266.6563,153.0469 267.25,152.7813 Q267.8438,152.5 268.4688,151.9219 L268.4688,154.6406 Z "/><text fill="#000000" font-family="Menlo,Monaco,Consolas,&quot;Liberation Mono&quot;,&quot;Courier New&quot;,monospace" font-size="12" lengthAdjust="spacingAndGlyphs" textLength="139" x="279.5" y="153.1543">TeacherBusinessLogic</text><line style="stroke: #AAAAAA; stroke-width: 1.5;" x1="251.5" x2="420.5" y1="165" y2="165"/><line style="stroke: #AAAAAA; stroke-width: 1.5;" x1="251.5" x2="420.5" y1="173" y2="173"/><!--class MySQLConnector--><rect fill="#FAFAFA" height="48" id="MySQLConnector" style="stroke: #AAAAAA; stroke-width: 1.5;" width="136" x="6" y="258"/><ellipse cx="21" cy="274" fill="#ADD1B2" rx="11" ry="11" style="stroke: #AAAAAA; stroke-width: 1.0;"/><path d="M23.9688,279.6406 Q23.3906,279.9375 22.75,280.0781 Q22.1094,280.2344 21.4063,280.2344 Q18.9063,280.2344 17.5781,278.5938 Q16.2656,276.9375 16.2656,273.8125 Q16.2656,270.6875 17.5781,269.0313 Q18.9063,267.375 21.4063,267.375 Q22.1094,267.375 22.75,267.5313 Q23.4063,267.6875 23.9688,267.9844 L23.9688,270.7031 Q23.3438,270.125 22.75,269.8594 Q22.1563,269.5781 21.5313,269.5781 Q20.1875,269.5781 19.5,270.6563 Q18.8125,271.7188 18.8125,273.8125 Q18.8125,275.9063 19.5,276.9844 Q20.1875,278.0469 21.5313,278.0469 Q22.1563,278.0469 22.75,277.7813 Q23.3438,277.5 23.9688,276.9219 L23.9688,279.6406 Z "/><text fill="#000000" font-family="Menlo,Monaco,Consolas,&quot;Liberation Mono&quot;,&quot;Courier New&quot;,monospace" font-size="12" lengthAdjust="spacingAndGlyphs" textLength="104" x="35" y="278.1543">MySQLConnector</text><line style="stroke: #AAAAAA; stroke-width: 1.5;" x1="7" x2="141" y1="290" y2="290"/><line style="stroke: #AAAAAA; stroke-width: 1.5;" x1="7" x2="141" y1="298" y2="298"/><!--class ProfileImageStorage--><rect fill="#FAFAFA" height="48" id="ProfileImageStorage" style="stroke: #AAAAAA; stroke-width: 1.5;" width="159" x="177.5" y="258"/><ellipse cx="192.5" cy="274" fill="#ADD1B2" rx="11" ry="11" style="stroke: #AAAAAA; stroke-width: 1.0;"/><path d="M195.4688,279.6406 Q194.8906,279.9375 194.25,280.0781 Q193.6094,280.2344 192.9063,280.2344 Q190.4063,280.2344 189.0781,278.5938 Q187.7656,276.9375 187.7656,273.8125 Q187.7656,270.6875 189.0781,269.0313 Q190.4063,267.375 192.9063,267.375 Q193.6094,267.375 194.25,267.5313 Q194.9063,267.6875 195.4688,267.9844 L195.4688,270.7031 Q194.8438,270.125 194.25,269.8594 Q193.6563,269.5781 193.0313,269.5781 Q191.6875,269.5781 191,270.6563 Q190.3125,271.7188 190.3125,273.8125 Q190.3125,275.9063 191,276.9844 Q191.6875,278.0469 193.0313,278.0469 Q193.6563,278.0469 194.25,277.7813 Q194.8438,277.5 195.4688,276.9219 L195.4688,279.6406 Z "/><text fill="#000000" font-family="Menlo,Monaco,Consolas,&quot;Liberation Mono&quot;,&quot;Courier New&quot;,monospace" font-size="12" lengthAdjust="spacingAndGlyphs" textLength="127" x="206.5" y="278.1543">ProfileImageStorage</text><line style="stroke: #AAAAAA; stroke-width: 1.5;" x1="178.5" x2="335.5" y1="290" y2="290"/><line style="stroke: #AAAAAA; stroke-width: 1.5;" x1="178.5" x2="335.5" y1="298" y2="298"/><!--class OracleConnector--><rect fill="#FAFAFA" height="48" id="OracleConnector" style="stroke: #AAAAAA; stroke-width: 1.5;" width="137" x="371.5" y="258"/><ellipse cx="386.5" cy="274" fill="#ADD1B2" rx="11" ry="11" style="stroke: #AAAAAA; stroke-width: 1.0;"/><path d="M389.4688,279.6406 Q388.8906,279.9375 388.25,280.0781 Q387.6094,280.2344 386.9063,280.2344 Q384.4063,280.2344 383.0781,278.5938 Q381.7656,276.9375 381.7656,273.8125 Q381.7656,270.6875 383.0781,269.0313 Q384.4063,267.375 386.9063,267.375 Q387.6094,267.375 388.25,267.5313 Q388.9063,267.6875 389.4688,267.9844 L389.4688,270.7031 Q388.8438,270.125 388.25,269.8594 Q387.6563,269.5781 387.0313,269.5781 Q385.6875,269.5781 385,270.6563 Q384.3125,271.7188 384.3125,273.8125 Q384.3125,275.9063 385,276.9844 Q385.6875,278.0469 387.0313,278.0469 Q387.6563,278.0469 388.25,277.7813 Q388.8438,277.5 389.4688,276.9219 L389.4688,279.6406 Z "/><text fill="#000000" font-family="Menlo,Monaco,Consolas,&quot;Liberation Mono&quot;,&quot;Courier New&quot;,monospace" font-size="12" lengthAdjust="spacingAndGlyphs" textLength="105" x="400.5" y="278.1543">OracleConnector</text><line style="stroke: #AAAAAA; stroke-width: 1.5;" x1="372.5" x2="507.5" y1="290" y2="290"/><line style="stroke: #AAAAAA; stroke-width: 1.5;" x1="372.5" x2="507.5" y1="298" y2="298"/><!--link UserInterface to StudentBusinessLogic--><path d="M213.1406,56.1013 C198.8201,73.4804 179.1706,97.3269 162.5697,117.4737 " fill="none" id="UserInterface-StudentBusinessLogic" style="stroke: #03A87C; stroke-width: 1.0; stroke-dasharray: 7.0,7.0;"/><polygon fill="none" points="167.9192,121.9891,149.7985,132.9727,157.1147,113.0862,167.9192,121.9891" style="stroke: #03A87C; stroke-width: 1.0;"/><text fill="#000000" font-family="Menlo,Monaco,Consolas,&quot;Liberation Mono&quot;,&quot;Courier New&quot;,monospace" font-size="13" lengthAdjust="spacingAndGlyphs" textLength="28" x="189" y="99.0669">calls</text><!--link UserInterface to TeacherBusinessLogic--><path d="M252.8594,56.1013 C267.1799,73.4804 286.8294,97.3269 303.4303,117.4737 " fill="none" id="UserInterface-TeacherBusinessLogic" style="stroke: #03A87C; stroke-width: 1.0; stroke-dasharray: 7.0,7.0;"/><polygon fill="none" points="308.8853,113.0862,316.2015,132.9727,298.0808,121.9891,308.8853,113.0862" style="stroke: #03A87C; stroke-width: 1.0;"/><text fill="#000000" font-family="Menlo,Monaco,Consolas,&quot;Liberation Mono&quot;,&quot;Courier New&quot;,monospace" font-size="13" lengthAdjust="spacingAndGlyphs" textLength="28" x="292" y="99.0669">calls</text><!--link StudentBusinessLogic to MySQLConnector--><path d="M119.2026,181.1013 C111.8041,197.6158 101.7894,219.9701 93.0667,239.4405 " fill="none" id="StudentBusinessLogic-MySQLConnector" style="stroke: #03A87C; stroke-width: 1.0; stroke-dasharray: 7.0,7.0;"/><polygon fill="none" points="99.3294,242.5826,84.7642,257.9727,86.553,236.8587,99.3294,242.5826" style="stroke: #03A87C; stroke-width: 1.0;"/><text fill="#000000" font-family="Menlo,Monaco,Consolas,&quot;Liberation Mono&quot;,&quot;Courier New&quot;,monospace" font-size="13" lengthAdjust="spacingAndGlyphs" textLength="28" x="107" y="224.0669">calls</text><!--link StudentBusinessLogic to ProfileImageStorage--><path d="M154.4869,181.1013 C172.4955,198.8263 197.3391,223.2786 218.0588,243.672 " fill="none" id="StudentBusinessLogic-ProfileImageStorage" style="stroke: #03A87C; stroke-width: 1.0; stroke-dasharray: 7.0,7.0;"/><polygon fill="none" points="223.2447,238.9544,232.5883,257.9727,213.424,248.9321,223.2447,238.9544" style="stroke: #03A87C; stroke-width: 1.0;"/><text fill="#000000" font-family="Menlo,Monaco,Consolas,&quot;Liberation Mono&quot;,&quot;Courier New&quot;,monospace" font-size="13" lengthAdjust="spacingAndGlyphs" textLength="28" x="203" y="224.0669">calls</text><!--link TeacherBusinessLogic to ProfileImageStorage--><path d="M320.768,181.1013 C310.0576,198.0481 295.4607,221.1445 282.9351,240.9635 " fill="none" id="TeacherBusinessLogic-ProfileImageStorage" style="stroke: #03A87C; stroke-width: 1.0; stroke-dasharray: 7.0,7.0;"/><polygon fill="none" points="288.7875,244.8059,272.1852,257.9727,276.9529,237.3264,288.7875,244.8059" style="stroke: #03A87C; stroke-width: 1.0;"/><text fill="#000000" font-family="Menlo,Monaco,Consolas,&quot;Liberation Mono&quot;,&quot;Courier New&quot;,monospace" font-size="13" lengthAdjust="spacingAndGlyphs" textLength="28" x="303" y="224.0669">calls</text><!--link TeacherBusinessLogic to OracleConnector--><path d="M356.0522,181.1013 C370.5117,198.4804 390.352,222.3269 407.1141,242.4737 " fill="none" id="TeacherBusinessLogic-OracleConnector" style="stroke: #03A87C; stroke-width: 1.0; stroke-dasharray: 7.0,7.0;"/><polygon fill="none" points="412.5988,238.1211,420.0093,257.9727,401.8366,247.0753,412.5988,238.1211" style="stroke: #03A87C; stroke-width: 1.0;"/><text fill="#000000" font-family="Menlo,Monaco,Consolas,&quot;Liberation Mono&quot;,&quot;Courier New&quot;,monospace" font-size="13" lengthAdjust="spacingAndGlyphs" textLength="28" x="396" y="224.0669">calls</text><!--
@startuml

skinparam backgroundColor transparent
skinparam shadowing false
skinparam arrowColor gray
skinparam defaultFontName Menlo,Monaco,Consolas,"Liberation Mono","Courier New",monospace

skinparam class {
    arrowColor #03a87c
    borderColor #aaaaaa
    backgroundColor #fafafa
}

skinparam activity {
    arrowColor #03a87c
    borderColor #aaaaaa
    backgroundColor transparent
    fontSize 12
}

skinparam sequence {
    actorBorderColor #000000
    actorBackgroundColor transparent
    participantBorderColor #aaaaaa
    participantBackgroundColor transparent
    groupBorderThickness 1
    arrowColor #03a87c
    borderColor #aaaaaa
    backgroundColor transparent
    boxBorderColor #aaaaaa
    boxBackgroundColor transparent
    boxFontColor #000000
    lifeLineBorderColor #aaaaaa
}

skinparam note {
    borderColor #03a87c
    backgroundColor transparent
}
class UserInterface {
}
class StudentBusinessLogic {
}
class TeacherBusinessLogic {
}
class MySQLConnector {
}
class ProfileImageStorage {
}
class OracleConnector {
}

UserInterface .down.|> StudentBusinessLogic: calls
UserInterface .down.|> TeacherBusinessLogic: calls
StudentBusinessLogic .down.|> MySQLConnector: calls
StudentBusinessLogic .down.|> ProfileImageStorage: calls
TeacherBusinessLogic .down.|> ProfileImageStorage: calls
TeacherBusinessLogic .down.|> OracleConnector: calls

@enduml

PlantUML version 1.2017.15(Mon Jul 03 16:45:34 UTC 2017)
(GPL source distribution)
Java Runtime: OpenJDK Runtime Environment
JVM: OpenJDK 64-Bit Server VM
Java Version: 11.0.7+10-post-Ubuntu-2ubuntu218.04
Operating System: Linux
OS Version: 4.15.0-1077-aws
Default Encoding: ANSI_X3.4-1968
Language: en
Country: US
--></g></svg>