<?xml version="1.0" encoding="UTF-8" standalone="no"?><svg xmlns="http://www.w3.org/2000/svg" xmlns:xlink="http://www.w3.org/1999/xlink" contentScriptType="application/ecmascript" contentStyleType="text/css" height="567px" preserveAspectRatio="none" style="width:690px;height:567px;" version="1.1" viewBox="0 0 690 567" width="690px" zoomAndPan="magnify"><defs/><g><!--class UserInterface--><rect fill="#FAFAFA" height="48" id="UserInterface" style="stroke: #AAAAAA; stroke-width: 1.5;" width="117" x="237.5" y="8"/><ellipse cx="252.5" cy="24" fill="#ADD1B2" rx="11" ry="11" style="stroke: #AAAAAA; stroke-width: 1.0;"/><path d="M255.4688,29.6406 Q254.8906,29.9375 254.25,30.0781 Q253.6094,30.2344 252.9063,30.2344 Q250.4063,30.2344 249.0781,28.5938 Q247.7656,26.9375 247.7656,23.8125 Q247.7656,20.6875 249.0781,19.0313 Q250.4063,17.375 252.9063,17.375 Q253.6094,17.375 254.25,17.5313 Q254.9063,17.6875 255.4688,17.9844 L255.4688,20.7031 Q254.8438,20.125 254.25,19.8594 Q253.6563,19.5781 253.0313,19.5781 Q251.6875,19.5781 251,20.6563 Q250.3125,21.7188 250.3125,23.8125 Q250.3125,25.9063 251,26.9844 Q251.6875,28.0469 253.0313,28.0469 Q253.6563,28.0469 254.25,27.7813 Q254.8438,27.5 255.4688,26.9219 L255.4688,29.6406 Z "/><text fill="#000000" font-family="Menlo,Monaco,Consolas,&quot;Liberation Mono&quot;,&quot;Courier New&quot;,monospace" font-size="12" lengthAdjust="spacingAndGlyphs" textLength="85" x="266.5" y="28.1543">UserInterface</text><line style="stroke: #AAAAAA; stroke-width: 1.5;" x1="238.5" x2="353.5" y1="40" y2="40"/><line style="stroke: #AAAAAA; stroke-width: 1.5;" x1="238.5" x2="353.5" y1="48" y2="48"/><!--class StudentBusinessLogicInterface--><rect fill="#FAFAFA" height="48" id="StudentBusinessLogicInterface" style="stroke: #AAAAAA; stroke-width: 1.5;" width="225" x="53.5" y="133"/><ellipse cx="68.5" cy="149" fill="#B4A7E5" rx="11" ry="11" style="stroke: #AAAAAA; stroke-width: 1.0;"/><path d="M64.4219,144.7656 L64.4219,142.6094 L71.8125,142.6094 L71.8125,144.7656 L69.3438,144.7656 L69.3438,152.8438 L71.8125,152.8438 L71.8125,155 L64.4219,155 L64.4219,152.8438 L66.8906,152.8438 L66.8906,144.7656 L64.4219,144.7656 Z "/><text fill="#000000" font-family="Menlo,Monaco,Consolas,&quot;Liberation Mono&quot;,&quot;Courier New&quot;,monospace" font-size="12" font-style="italic" lengthAdjust="spacingAndGlyphs" textLength="193" x="82.5" y="153.1543">StudentBusinessLogicInterface</text><line style="stroke: #AAAAAA; stroke-width: 1.5;" x1="54.5" x2="277.5" y1="165" y2="165"/><line style="stroke: #AAAAAA; stroke-width: 1.5;" x1="54.5" x2="277.5" y1="173" y2="173"/><!--class TeacherBusinessLogicInterface--><rect fill="#FAFAFA" height="48" id="TeacherBusinessLogicInterface" style="stroke: #AAAAAA; stroke-width: 1.5;" width="226" x="314" y="133"/><ellipse cx="329" cy="149" fill="#B4A7E5" rx="11" ry="11" style="stroke: #AAAAAA; stroke-width: 1.0;"/><path d="M324.9219,144.7656 L324.9219,142.6094 L332.3125,142.6094 L332.3125,144.7656 L329.8438,144.7656 L329.8438,152.8438 L332.3125,152.8438 L332.3125,155 L324.9219,155 L324.9219,152.8438 L327.3906,152.8438 L327.3906,144.7656 L324.9219,144.7656 Z "/><text fill="#000000" font-family="Menlo,Monaco,Consolas,&quot;Liberation Mono&quot;,&quot;Courier New&quot;,monospace" font-size="12" font-style="italic" lengthAdjust="spacingAndGlyphs" textLength="194" x="343" y="153.1543">TeacherBusinessLogicInterface</text><line style="stroke: #AAAAAA; stroke-width: 1.5;" x1="315" x2="539" y1="165" y2="165"/><line style="stroke: #AAAAAA; stroke-width: 1.5;" x1="315" x2="539" y1="173" y2="173"/><!--class StudentBusinessLogicModule--><rect fill="#FAFAFA" height="48" id="StudentBusinessLogicModule" style="stroke: #AAAAAA; stroke-width: 1.5;" width="215" x="58.5" y="258"/><ellipse cx="73.5" cy="274" fill="#ADD1B2" rx="11" ry="11" style="stroke: #AAAAAA; stroke-width: 1.0;"/><path d="M76.4688,279.6406 Q75.8906,279.9375 75.25,280.0781 Q74.6094,280.2344 73.9063,280.2344 Q71.4063,280.2344 70.0781,278.5938 Q68.7656,276.9375 68.7656,273.8125 Q68.7656,270.6875 70.0781,269.0313 Q71.4063,267.375 73.9063,267.375 Q74.6094,267.375 75.25,267.5313 Q75.9063,267.6875 76.4688,267.9844 L76.4688,270.7031 Q75.8438,270.125 75.25,269.8594 Q74.6563,269.5781 74.0313,269.5781 Q72.6875,269.5781 72,270.6563 Q71.3125,271.7188 71.3125,273.8125 Q71.3125,275.9063 72,276.9844 Q72.6875,278.0469 74.0313,278.0469 Q74.6563,278.0469 75.25,277.7813 Q75.8438,277.5 76.4688,276.9219 L76.4688,279.6406 Z "/><text fill="#000000" font-family="Menlo,Monaco,Consolas,&quot;Liberation Mono&quot;,&quot;Courier New&quot;,monospace" font-size="12" lengthAdjust="spacingAndGlyphs" textLength="183" x="87.5" y="278.1543">StudentBusinessLogicModule</text><line style="stroke: #AAAAAA; stroke-width: 1.5;" x1="59.5" x2="272.5" y1="290" y2="290"/><line style="stroke: #AAAAAA; stroke-width: 1.5;" x1="59.5" x2="272.5" y1="298" y2="298"/><!--class TeacherBusinessLogicModule--><rect fill="#FAFAFA" height="48" id="TeacherBusinessLogicModule" style="stroke: #AAAAAA; stroke-width: 1.5;" width="216" x="319" y="258"/><ellipse cx="334" cy="274" fill="#ADD1B2" rx="11" ry="11" style="stroke: #AAAAAA; stroke-width: 1.0;"/><path d="M336.9688,279.6406 Q336.3906,279.9375 335.75,280.0781 Q335.1094,280.2344 334.4063,280.2344 Q331.9063,280.2344 330.5781,278.5938 Q329.2656,276.9375 329.2656,273.8125 Q329.2656,270.6875 330.5781,269.0313 Q331.9063,267.375 334.4063,267.375 Q335.1094,267.375 335.75,267.5313 Q336.4063,267.6875 336.9688,267.9844 L336.9688,270.7031 Q336.3438,270.125 335.75,269.8594 Q335.1563,269.5781 334.5313,269.5781 Q333.1875,269.5781 332.5,270.6563 Q331.8125,271.7188 331.8125,273.8125 Q331.8125,275.9063 332.5,276.9844 Q333.1875,278.0469 334.5313,278.0469 Q335.1563,278.0469 335.75,277.7813 Q336.3438,277.5 336.9688,276.9219 L336.9688,279.6406 Z "/><text fill="#000000" font-family="Menlo,Monaco,Consolas,&quot;Liberation Mono&quot;,&quot;Courier New&quot;,monospace" font-size="12" lengthAdjust="spacingAndGlyphs" textLength="184" x="348" y="278.1543">TeacherBusinessLogicModule</text><line style="stroke: #AAAAAA; stroke-width: 1.5;" x1="320" x2="534" y1="290" y2="290"/><line style="stroke: #AAAAAA; stroke-width: 1.5;" x1="320" x2="534" y1="298" y2="298"/><!--class MySQLConnectorInterface--><rect fill="#FAFAFA" height="48" id="MySQLConnectorInterface" style="stroke: #AAAAAA; stroke-width: 1.5;" width="194" x="6" y="383"/><ellipse cx="21" cy="399" fill="#B4A7E5" rx="11" ry="11" style="stroke: #AAAAAA; stroke-width: 1.0;"/><path d="M16.9219,394.7656 L16.9219,392.6094 L24.3125,392.6094 L24.3125,394.7656 L21.8438,394.7656 L21.8438,402.8438 L24.3125,402.8438 L24.3125,405 L16.9219,405 L16.9219,402.8438 L19.3906,402.8438 L19.3906,394.7656 L16.9219,394.7656 Z "/><text fill="#000000" font-family="Menlo,Monaco,Consolas,&quot;Liberation Mono&quot;,&quot;Courier New&quot;,monospace" font-size="12" font-style="italic" lengthAdjust="spacingAndGlyphs" textLength="162" x="35" y="403.1543">MySQLConnectorInterface</text><line style="stroke: #AAAAAA; stroke-width: 1.5;" x1="7" x2="199" y1="415" y2="415"/><line style="stroke: #AAAAAA; stroke-width: 1.5;" x1="7" x2="199" y1="423" y2="423"/><!--class ProfileImageStorageInterface--><rect fill="#FAFAFA" height="48" id="ProfileImageStorageInterface" style="stroke: #AAAAAA; stroke-width: 1.5;" width="216" x="235" y="383"/><ellipse cx="250" cy="399" fill="#B4A7E5" rx="11" ry="11" style="stroke: #AAAAAA; stroke-width: 1.0;"/><path d="M245.9219,394.7656 L245.9219,392.6094 L253.3125,392.6094 L253.3125,394.7656 L250.8438,394.7656 L250.8438,402.8438 L253.3125,402.8438 L253.3125,405 L245.9219,405 L245.9219,402.8438 L248.3906,402.8438 L248.3906,394.7656 L245.9219,394.7656 Z "/><text fill="#000000" font-family="Menlo,Monaco,Consolas,&quot;Liberation Mono&quot;,&quot;Courier New&quot;,monospace" font-size="12" font-style="italic" lengthAdjust="spacingAndGlyphs" textLength="184" x="264" y="403.1543">ProfileImageStorageInterface</text><line style="stroke: #AAAAAA; stroke-width: 1.5;" x1="236" x2="450" y1="415" y2="415"/><line style="stroke: #AAAAAA; stroke-width: 1.5;" x1="236" x2="450" y1="423" y2="423"/><!--class OracleConnectorInterface--><rect fill="#FAFAFA" height="48" id="OracleConnectorInterface" style="stroke: #AAAAAA; stroke-width: 1.5;" width="193" x="486.5" y="383"/><ellipse cx="501.5" cy="399" fill="#B4A7E5" rx="11" ry="11" style="stroke: #AAAAAA; stroke-width: 1.0;"/><path d="M497.4219,394.7656 L497.4219,392.6094 L504.8125,392.6094 L504.8125,394.7656 L502.3438,394.7656 L502.3438,402.8438 L504.8125,402.8438 L504.8125,405 L497.4219,405 L497.4219,402.8438 L499.8906,402.8438 L499.8906,394.7656 L497.4219,394.7656 Z "/><text fill="#000000" font-family="Menlo,Monaco,Consolas,&quot;Liberation Mono&quot;,&quot;Courier New&quot;,monospace" font-size="12" font-style="italic" lengthAdjust="spacingAndGlyphs" textLength="161" x="515.5" y="403.1543">OracleConnectorInterface</text><line style="stroke: #AAAAAA; stroke-width: 1.5;" x1="487.5" x2="678.5" y1="415" y2="415"/><line style="stroke: #AAAAAA; stroke-width: 1.5;" x1="487.5" x2="678.5" y1="423" y2="423"/><!--class MySQLConnectorModule--><rect fill="#FAFAFA" height="48" id="MySQLConnectorModule" style="stroke: #AAAAAA; stroke-width: 1.5;" width="181" x="12.5" y="508"/><ellipse cx="27.5" cy="524" fill="#ADD1B2" rx="11" ry="11" style="stroke: #AAAAAA; stroke-width: 1.0;"/><path d="M30.4688,529.6406 Q29.8906,529.9375 29.25,530.0781 Q28.6094,530.2344 27.9063,530.2344 Q25.4063,530.2344 24.0781,528.5938 Q22.7656,526.9375 22.7656,523.8125 Q22.7656,520.6875 24.0781,519.0313 Q25.4063,517.375 27.9063,517.375 Q28.6094,517.375 29.25,517.5313 Q29.9063,517.6875 30.4688,517.9844 L30.4688,520.7031 Q29.8438,520.125 29.25,519.8594 Q28.6563,519.5781 28.0313,519.5781 Q26.6875,519.5781 26,520.6563 Q25.3125,521.7188 25.3125,523.8125 Q25.3125,525.9063 26,526.9844 Q26.6875,528.0469 28.0313,528.0469 Q28.6563,528.0469 29.25,527.7813 Q29.8438,527.5 30.4688,526.9219 L30.4688,529.6406 Z "/><text fill="#000000" font-family="Menlo,Monaco,Consolas,&quot;Liberation Mono&quot;,&quot;Courier New&quot;,monospace" font-size="12" lengthAdjust="spacingAndGlyphs" textLength="149" x="41.5" y="528.1543">MySQLConnectorModule</text><line style="stroke: #AAAAAA; stroke-width: 1.5;" x1="13.5" x2="192.5" y1="540" y2="540"/><line style="stroke: #AAAAAA; stroke-width: 1.5;" x1="13.5" x2="192.5" y1="548" y2="548"/><!--class ProfileImageStorageModule--><rect fill="#FAFAFA" height="48" id="ProfileImageStorageModule" style="stroke: #AAAAAA; stroke-width: 1.5;" width="204" x="241" y="508"/><ellipse cx="256" cy="524" fill="#ADD1B2" rx="11" ry="11" style="stroke: #AAAAAA; stroke-width: 1.0;"/><path d="M258.9688,529.6406 Q258.3906,529.9375 257.75,530.0781 Q257.1094,530.2344 256.4063,530.2344 Q253.9063,530.2344 252.5781,528.5938 Q251.2656,526.9375 251.2656,523.8125 Q251.2656,520.6875 252.5781,519.0313 Q253.9063,517.375 256.4063,517.375 Q257.1094,517.375 257.75,517.5313 Q258.4063,517.6875 258.9688,517.9844 L258.9688,520.7031 Q258.3438,520.125 257.75,519.8594 Q257.1563,519.5781 256.5313,519.5781 Q255.1875,519.5781 254.5,520.6563 Q253.8125,521.7188 253.8125,523.8125 Q253.8125,525.9063 254.5,526.9844 Q255.1875,528.0469 256.5313,528.0469 Q257.1563,528.0469 257.75,527.7813 Q258.3438,527.5 258.9688,526.9219 L258.9688,529.6406 Z "/><text fill="#000000" font-family="Menlo,Monaco,Consolas,&quot;Liberation Mono&quot;,&quot;Courier New&quot;,monospace" font-size="12" lengthAdjust="spacingAndGlyphs" textLength="172" x="270" y="528.1543">ProfileImageStorageModule</text><line style="stroke: #AAAAAA; stroke-width: 1.5;" x1="242" x2="444" y1="540" y2="540"/><line style="stroke: #AAAAAA; stroke-width: 1.5;" x1="242" x2="444" y1="548" y2="548"/><!--class OracleConnectorModule--><rect fill="#FAFAFA" height="48" id="OracleConnectorModule" style="stroke: #AAAAAA; stroke-width: 1.5;" width="182" x="492" y="508"/><ellipse cx="507" cy="524" fill="#ADD1B2" rx="11" ry="11" style="stroke: #AAAAAA; stroke-width: 1.0;"/><path d="M509.9688,529.6406 Q509.3906,529.9375 508.75,530.0781 Q508.1094,530.2344 507.4063,530.2344 Q504.9063,530.2344 503.5781,528.5938 Q502.2656,526.9375 502.2656,523.8125 Q502.2656,520.6875 503.5781,519.0313 Q504.9063,517.375 507.4063,517.375 Q508.1094,517.375 508.75,517.5313 Q509.4063,517.6875 509.9688,517.9844 L509.9688,520.7031 Q509.3438,520.125 508.75,519.8594 Q508.1563,519.5781 507.5313,519.5781 Q506.1875,519.5781 505.5,520.6563 Q504.8125,521.7188 504.8125,523.8125 Q504.8125,525.9063 505.5,526.9844 Q506.1875,528.0469 507.5313,528.0469 Q508.1563,528.0469 508.75,527.7813 Q509.3438,527.5 509.9688,526.9219 L509.9688,529.6406 Z "/><text fill="#000000" font-family="Menlo,Monaco,Consolas,&quot;Liberation Mono&quot;,&quot;Courier New&quot;,monospace" font-size="12" lengthAdjust="spacingAndGlyphs" textLength="150" x="521" y="528.1543">OracleConnectorModule</text><line style="stroke: #AAAAAA; stroke-width: 1.5;" x1="493" x2="673" y1="540" y2="540"/><line style="stroke: #AAAAAA; stroke-width: 1.5;" x1="493" x2="673" y1="548" y2="548"/><!--link UserInterface to StudentBusinessLogicInterface--><path d="M270.9347,56.1013 C252.4107,73.9127 226.822,98.5173 205.551,118.9702 " fill="none" id="UserInterface-StudentBusinessLogicInterface" style="stroke: #03A87C; stroke-width: 1.0; stroke-dasharray: 7.0,7.0;"/><polygon fill="none" points="210.2568,124.1564,190.9884,132.9727,200.5533,114.0647,210.2568,124.1564" style="stroke: #03A87C; stroke-width: 1.0;"/><text fill="#000000" font-family="Menlo,Monaco,Consolas,&quot;Liberation Mono&quot;,&quot;Courier New&quot;,monospace" font-size="13" lengthAdjust="spacingAndGlyphs" textLength="55" x="240" y="99.0669">depends</text><!--link UserInterface to TeacherBusinessLogicInterface--><path d="M321.2581,56.1013 C339.9246,73.9127 365.7102,98.5173 387.1447,118.9702 " fill="none" id="UserInterface-TeacherBusinessLogicInterface" style="stroke: #03A87C; stroke-width: 1.0; stroke-dasharray: 7.0,7.0;"/><polygon fill="none" points="392.1822,114.1014,401.8194,132.9727,382.5174,124.2302,392.1822,114.1014" style="stroke: #03A87C; stroke-width: 1.0;"/><text fill="#000000" font-family="Menlo,Monaco,Consolas,&quot;Liberation Mono&quot;,&quot;Courier New&quot;,monospace" font-size="13" lengthAdjust="spacingAndGlyphs" textLength="55" x="371" y="99.0669">depends</text><!--link StudentBusinessLogicInterface to StudentBusinessLogicModule--><path d="M166,201.1823 C166,220.2919 166,241.9075 166,257.9727 " fill="none" id="StudentBusinessLogicInterface-StudentBusinessLogicModule" style="stroke: #03A87C; stroke-width: 1.0;"/><polygon fill="none" points="159.0001,201.1013,166,181.1013,173.0001,201.1012,159.0001,201.1013" style="stroke: #03A87C; stroke-width: 1.0;"/><text fill="#000000" font-family="Menlo,Monaco,Consolas,&quot;Liberation Mono&quot;,&quot;Courier New&quot;,monospace" font-size="13" lengthAdjust="spacingAndGlyphs" textLength="76" x="167" y="224.0669">implements</text><!--link TeacherBusinessLogicInterface to TeacherBusinessLogicModule--><path d="M427,201.1823 C427,220.2919 427,241.9075 427,257.9727 " fill="none" id="TeacherBusinessLogicInterface-TeacherBusinessLogicModule" style="stroke: #03A87C; stroke-width: 1.0;"/><polygon fill="none" points="420.0001,201.1013,427,181.1013,434.0001,201.1012,420.0001,201.1013" style="stroke: #03A87C; stroke-width: 1.0;"/><text fill="#000000" font-family="Menlo,Monaco,Consolas,&quot;Liberation Mono&quot;,&quot;Courier New&quot;,monospace" font-size="13" lengthAdjust="spacingAndGlyphs" textLength="76" x="428" y="224.0669">implements</text><!--link StudentBusinessLogicModule to MySQLConnectorInterface--><path d="M153.853,306.1013 C145.4425,322.7887 134.0268,345.4389 124.1422,365.0512 " fill="none" id="StudentBusinessLogicModule-MySQLConnectorInterface" style="stroke: #03A87C; stroke-width: 1.0; stroke-dasharray: 7.0,7.0;"/><polygon fill="none" points="130.3621,368.2633,115.1097,382.9727,117.8602,361.9623,130.3621,368.2633" style="stroke: #03A87C; stroke-width: 1.0;"/><text fill="#000000" font-family="Menlo,Monaco,Consolas,&quot;Liberation Mono&quot;,&quot;Courier New&quot;,monospace" font-size="13" lengthAdjust="spacingAndGlyphs" textLength="55" x="140" y="349.0669">depends</text><!--link StudentBusinessLogicModule to ProfileImageStorageInterface--><path d="M200.1274,306.1013 C226.3279,324.6045 262.9091,350.4386 292.4964,371.3336 " fill="none" id="StudentBusinessLogicModule-ProfileImageStorageInterface" style="stroke: #03A87C; stroke-width: 1.0; stroke-dasharray: 7.0,7.0;"/><polygon fill="none" points="296.6786,365.7175,308.9774,382.9727,288.6025,377.1533,296.6786,365.7175" style="stroke: #03A87C; stroke-width: 1.0;"/><text fill="#000000" font-family="Menlo,Monaco,Consolas,&quot;Liberation Mono&quot;,&quot;Courier New&quot;,monospace" font-size="13" lengthAdjust="spacingAndGlyphs" textLength="55" x="267" y="349.0669">depends</text><!--link TeacherBusinessLogicModule to OracleConnectorInterface--><path d="M457.0784,306.1013 C479.8466,324.3451 511.5092,349.7157 537.388,370.4519 " fill="none" id="TeacherBusinessLogicModule-OracleConnectorInterface" style="stroke: #03A87C; stroke-width: 1.0; stroke-dasharray: 7.0,7.0;"/><polygon fill="none" points="541.7835,365.0039,553.014,382.9727,533.0292,375.9293,541.7835,365.0039" style="stroke: #03A87C; stroke-width: 1.0;"/><text fill="#000000" font-family="Menlo,Monaco,Consolas,&quot;Liberation Mono&quot;,&quot;Courier New&quot;,monospace" font-size="13" lengthAdjust="spacingAndGlyphs" textLength="55" x="516" y="349.0669">depends</text><!--link TeacherBusinessLogicModule to ProfileImageStorageInterface--><path d="M410.804,306.1013 C399.3576,323.1346 383.7364,346.3804 370.3729,366.2666 " fill="none" id="TeacherBusinessLogicModule-ProfileImageStorageInterface" style="stroke: #03A87C; stroke-width: 1.0; stroke-dasharray: 7.0,7.0;"/><polygon fill="none" points="376.1116,370.277,359.1463,382.9727,364.4916,362.4683,376.1116,370.277" style="stroke: #03A87C; stroke-width: 1.0;"/><text fill="#000000" font-family="Menlo,Monaco,Consolas,&quot;Liberation Mono&quot;,&quot;Courier New&quot;,monospace" font-size="13" lengthAdjust="spacingAndGlyphs" textLength="55" x="392" y="349.0669">depends</text><!--link MySQLConnectorInterface to MySQLConnectorModule--><path d="M103,451.1823 C103,470.2919 103,491.9075 103,507.9727 " fill="none" id="MySQLConnectorInterface-MySQLConnectorModule" style="stroke: #03A87C; stroke-width: 1.0;"/><polygon fill="none" points="96.0001,451.1013,103,431.1013,110.0001,451.1012,96.0001,451.1013" style="stroke: #03A87C; stroke-width: 1.0;"/><text fill="#000000" font-family="Menlo,Monaco,Consolas,&quot;Liberation Mono&quot;,&quot;Courier New&quot;,monospace" font-size="13" lengthAdjust="spacingAndGlyphs" textLength="76" x="104" y="474.0669">implements</text><!--link ProfileImageStorageInterface to ProfileImageStorageModule--><path d="M343,451.1823 C343,470.2919 343,491.9075 343,507.9727 " fill="none" id="ProfileImageStorageInterface-ProfileImageStorageModule" style="stroke: #03A87C; stroke-width: 1.0;"/><polygon fill="none" points="336.0001,451.1013,343,431.1013,350.0001,451.1012,336.0001,451.1013" style="stroke: #03A87C; stroke-width: 1.0;"/><text fill="#000000" font-family="Menlo,Monaco,Consolas,&quot;Liberation Mono&quot;,&quot;Courier New&quot;,monospace" font-size="13" lengthAdjust="spacingAndGlyphs" textLength="76" x="344" y="474.0669">implements</text><!--link OracleConnectorInterface to OracleConnectorModule--><path d="M583,451.1823 C583,470.2919 583,491.9075 583,507.9727 " fill="none" id="OracleConnectorInterface-OracleConnectorModule" style="stroke: #03A87C; stroke-width: 1.0;"/><polygon fill="none" points="576.0001,451.1013,583,431.1013,590.0001,451.1012,576.0001,451.1013" style="stroke: #03A87C; stroke-width: 1.0;"/><text fill="#000000" font-family="Menlo,Monaco,Consolas,&quot;Liberation Mono&quot;,&quot;Courier New&quot;,monospace" font-size="13" lengthAdjust="spacingAndGlyphs" textLength="76" x="584" y="474.0669">implements</text><!--
@startuml

skinparam backgroundColor transparent
skinparam shadowing false
skinparam arrowColor gray
skinparam defaultFontName Menlo,Monaco,Consolas,"Liberation Mono","Courier New",monospace

skinparam class {
    arrowColor #03a87c
    borderColor #aaaaaa
    backgroundColor #fafafa
}

skinparam activity {
    arrowColor #03a87c
    borderColor #aaaaaa
    backgroundColor transparent
    fontSize 12
}

skinparam sequence {
    actorBorderColor #000000
    actorBackgroundColor transparent
    participantBorderColor #aaaaaa
    participantBackgroundColor transparent
    groupBorderThickness 1
    arrowColor #03a87c
    borderColor #aaaaaa
    backgroundColor transparent
    boxBorderColor #aaaaaa
    boxBackgroundColor transparent
    boxFontColor #000000
    lifeLineBorderColor #aaaaaa
}

skinparam note {
    borderColor #03a87c
    backgroundColor transparent
}
class UserInterface {
}
interface StudentBusinessLogicInterface {
}
interface TeacherBusinessLogicInterface {
}
class StudentBusinessLogicModule {
}
class TeacherBusinessLogicModule {
}
interface MySQLConnectorInterface {
}
interface ProfileImageStorageInterface {
}
interface OracleConnectorInterface {
}
class MySQLConnectorModule {
}
class ProfileImageStorageModule {
}
class OracleConnectorModule {
}

StudentBusinessLogicInterface <|.up. UserInterface: depends
TeacherBusinessLogicInterface <|.up. UserInterface: depends
StudentBusinessLogicInterface <|-down- StudentBusinessLogicModule: implements
TeacherBusinessLogicInterface <|-down- TeacherBusinessLogicModule: implements
MySQLConnectorInterface <|.up. StudentBusinessLogicModule: depends
ProfileImageStorageInterface <|.up. StudentBusinessLogicModule: depends
OracleConnectorInterface <|.up. TeacherBusinessLogicModule: depends
ProfileImageStorageInterface <|.up. TeacherBusinessLogicModule: depends
MySQLConnectorInterface <|-down- MySQLConnectorModule: implements
ProfileImageStorageInterface <|-down- ProfileImageStorageModule: implements
OracleConnectorInterface <|-down- OracleConnectorModule: implements

@enduml

PlantUML version 1.2017.15(Mon Jul 03 16:45:34 UTC 2017)
(GPL source distribution)
Java Runtime: OpenJDK Runtime Environment
JVM: OpenJDK 64-Bit Server VM
Java Version: 11.0.7+10-post-Ubuntu-2ubuntu218.04
Operating System: Linux
OS Version: 4.15.0-1077-aws
Default Encoding: ANSI_X3.4-1968
Language: en
Country: US
--></g></svg>