<svg id="Layer_1" data-name="Layer 1" xmlns="http://www.w3.org/2000/svg" viewBox="0 0 511.82 422.6"><defs><style>.cls-1,.cls-2{fill:none;stroke:#fff;stroke-linecap:round;stroke-linejoin:round;}.cls-1{stroke-width:6px;stroke-dasharray:4 10;}.cls-2{stroke-width:4px;}.cls-3{fill:#fff;fill-rule:evenodd;}</style></defs><title>arrow</title><g id="Group_2653" data-name="Group 2653"><g id="Group_2652" data-name="Group 2652"><path id="Path_390" data-name="Path 390" class="cls-1" d="M7,110.76C61.4,51,179.51,1.41,204.41,117.32c8.88,41.34-20.63,139.19-57,123.25-55.87-24.46,20.66-187,117.86-174.39C479.64,94,479.61,345.29,387.54,437.91" transform="translate(-0.18 -44.2)"/><path id="Path_391" data-name="Path 391" class="cls-2" d="M510,381.2c-66.81,28.93-92,52-135.53,83.6,0,0,10.23-98.32-52.17-156.74" transform="translate(-0.18 -44.2)"/><path id="Path_392" data-name="Path 392" class="cls-3" d="M7.17,103.75a7,7,0,1,0,7,7A7,7,0,0,0,7.17,103.75Z" transform="translate(-0.18 -44.2)"/></g></g></svg>