<svg id="Layer_1" data-name="Layer 1" xmlns="http://www.w3.org/2000/svg" viewBox="0 0 512 512"><defs><style>.cls-1{fill:#fff;}</style></defs><path class="cls-1" d="M204.61,243.08c-15.67,0-28,13.75-28,30.51s12.65,30.51,28,30.51c15.66,0,28-13.75,28-30.51C232.91,256.83,220.27,243.08,204.61,243.08Z"/><ellipse class="cls-1" cx="304.92" cy="273.59" rx="28.03" ry="30.51"/><path class="cls-1" d="M256,1C115.17,1,1,115.17,1,256S115.17,511,256,511,511,396.83,511,256,396.83,1,256,1Zm76.4,370.43s-9.89-11.82-18.14-22.26C350.27,339,364,316.46,364,316.46a157.24,157.24,0,0,1-31.61,16.22,181,181,0,0,1-39.85,11.82,192.61,192.61,0,0,1-71.18-.28A230.38,230.38,0,0,1,181,332.4a160.16,160.16,0,0,1-20.06-9.34c-.83-.55-1.65-.83-2.47-1.37a3.73,3.73,0,0,1-1.1-.83c-5-2.75-7.7-4.67-7.7-4.67s13.19,22,48.1,32.43c-8.25,10.44-18.42,22.81-18.42,22.81-60.73-1.92-83.82-41.77-83.82-41.77,0-88.5,39.58-160.23,39.58-160.23,39.57-29.68,77.22-28.86,77.22-28.86l2.75,3.3c-49.47,14.29-72.28,36-72.28,36s6-3.29,16.22-8c29.4-12.91,52.76-16.49,62.38-17.31A26.56,26.56,0,0,1,226,154a232.44,232.44,0,0,1,55.52-.55,224,224,0,0,1,82.72,26.38s-21.71-20.61-68.43-34.9l3.85-4.4s37.65-.82,77.22,28.86c0,0,39.58,71.73,39.58,160.23C416.5,329.66,393.14,369.51,332.4,371.43Z"/></svg>