<svg id="Layer_1" data-name="Layer 1" xmlns="http://www.w3.org/2000/svg" viewBox="0 0 512 512"><defs><style>.cls-1{fill-rule:evenodd;}</style></defs><path class="cls-1" d="M256.18,1c-140.81,0-255,114.16-255,255,0,112.66,73.06,208.24,174.38,242,12.75,2.36,17.43-5.53,17.43-12.26,0-6.08-.24-26.17-.35-47.48-70.94,15.43-85.91-30.09-85.91-30.09-11.6-29.47-28.31-37.31-28.31-37.31-23.14-15.83,1.74-15.5,1.74-15.5,25.61,1.8,39.09,26.28,39.09,26.28,22.74,39,59.65,27.71,74.21,21.2,2.29-16.48,8.89-27.74,16.19-34.1-56.64-6.45-116.19-28.32-116.19-126,0-27.84,10-50.59,26.28-68.45-2.65-6.42-11.38-32.36,2.47-67.49,0,0,21.42-6.84,70.14,26.15a241.63,241.63,0,0,1,127.71,0c48.67-33,70.05-26.15,70.05-26.15,13.88,35.13,5.15,61.07,2.51,67.49,16.35,17.86,26.24,40.61,26.24,68.45,0,97.94-59.65,119.5-116.44,125.82,9.15,7.91,17.3,23.43,17.3,47.22,0,34.12-.3,61.58-.3,70,0,6.78,4.59,14.73,17.52,12.23C438.21,464.15,511.18,368.6,511.18,256,511.18,115.14,397,1,256.18,1Z"/><path d="M97.76,367.1c-.56,1.27-2.56,1.65-4.37.78s-2.89-2.56-2.29-3.83,2.55-1.67,4.39-.8,2.91,2.58,2.27,3.85Zm-3.14-2.33"/><path d="M108.09,378.62c-1.22,1.13-3.59.6-5.21-1.18s-2-4.16-.74-5.3,3.56-.6,5.23,1.18,2,4.16.72,5.3ZM105.66,376"/><path d="M118.14,393.3c-1.56,1.09-4.11.07-5.69-2.19s-1.57-5,0-6.08,4.1-.11,5.7,2.14,1.56,5,0,6.13Zm0,0"/><path d="M131.92,407.49c-1.4,1.55-4.38,1.13-6.55-1s-2.85-5-1.46-6.52,4.42-1.11,6.61,1,2.89,5,1.4,6.51Zm0,0"/><path d="M150.92,415.73c-.62,2-3.48,2.91-6.37,2.06s-4.77-3.22-4.19-5.23,3.48-3,6.39-2.05,4.77,3.19,4.17,5.22Zm0,0"/><path d="M171.79,417.26c.07,2.1-2.38,3.85-5.41,3.88s-5.52-1.63-5.55-3.7,2.4-3.85,5.44-3.9,5.52,1.63,5.52,3.72Zm0,0"/><path d="M191.21,414c.36,2.05-1.75,4.15-4.76,4.71s-5.69-.72-6.07-2.76,1.77-4.21,4.73-4.75,5.72.71,6.1,2.8Zm0,0"/></svg>