<svg id="Layer_1" data-name="Layer 1" xmlns="http://www.w3.org/2000/svg" viewBox="0 0 512 512"><defs><style>.cls-1{fill:#fff;}</style></defs><path class="cls-1" d="M277.44,237.35v-.56l-.37.56Z"/><path class="cls-1" d="M256.18,1.11c-140.83,0-255,114.17-255,255s114.17,255,255,255,255-114.17,255-255S397,1.11,256.18,1.11Zm-63.76,377H137.69V213.47h54.73ZM165.06,191h-.36c-18.37,0-30.25-12.65-30.25-28.45,0-16.16,12.25-28.45,31-28.45s30.25,12.29,30.6,28.45C196,178.34,184.14,191,165.06,191ZM389.77,378.13H335.05V290c0-22.13-7.93-37.23-27.73-37.23-15.12,0-24.13,10.18-28.08,20-1.45,3.52-1.8,8.44-1.8,13.36v91.95H222.71s.72-149.21,0-164.66h54.73v23.32c7.27-11.22,20.28-27.18,49.32-27.18,36,0,63,23.53,63,74.11Z"/></svg>