<svg id="Layer_1" data-name="Layer 1" xmlns="http://www.w3.org/2000/svg" viewBox="0 0 512 512"><path d="M256.18,1.11c-140.83,0-255,114.17-255,255s114.17,255,255,255,255-114.17,255-255S397,1.11,256.18,1.11Zm128,194.47c.12,2.62.17,5.24.17,7.88,0,80.47-61.25,173.27-173.28,173.27h0a172.44,172.44,0,0,1-93.36-27.35,124.6,124.6,0,0,0,14.53.84,122.15,122.15,0,0,0,75.64-26.07A61,61,0,0,1,151,281.85a60.79,60.79,0,0,0,27.5-1,60.93,60.93,0,0,1-48.86-59.7c0-.28,0-.53,0-.78a60.42,60.42,0,0,0,27.58,7.61,60.94,60.94,0,0,1-18.85-81.3,172.9,172.9,0,0,0,125.53,63.63,60.94,60.94,0,0,1,103.78-55.54A121.74,121.74,0,0,0,406.36,140a61,61,0,0,1-26.78,33.68,121.38,121.38,0,0,0,35-9.58A123.75,123.75,0,0,1,384.18,195.58Z"/></svg>