<svg id="Layer_1" data-name="Layer 1" xmlns="http://www.w3.org/2000/svg" viewBox="0 0 998.68 630.42"><defs><style>.cls-1{fill:#f6d2a2;}.cls-2{fill:#010101;}.cls-3{fill:#c7b199;}.cls-4{fill:#74cddd;}.cls-5{fill:#fff;}.cls-6{fill:#231f20;}.cls-7{font-size:48px;font-family:Verdana;}.cls-8{fill:#007d91;}.cls-8,.cls-9{stroke:#000;}.cls-11,.cls-12,.cls-8,.cls-9{stroke-miterlimit:10;}.cls-9{fill:#20ba53;}.cls-10{letter-spacing:-0.05em;}.cls-11,.cls-12{fill:none;stroke-linecap:round;stroke-width:10px;}.cls-11{stroke:#cf3063;}.cls-12{stroke:#1fbcaf;}</style></defs><path class="cls-1" d="M6723.92,6977.7c.23,5,5.27,2.64,7.47,1.11s2.64-.24,2.95-3.17a46,46,0,0,0,.24-5.75,14.1,14.1,0,0,0-9.42,2.4c-1.38,1-3.94,4.17-1.27,5.28" transform="translate(-6696.12 -6884)"/><path class="cls-2" d="M6726.5,6981.32a3,3,0,0,1-1.42-.32,3.25,3.25,0,0,1-1.64-2.9,2.19,2.19,0,0,1-1.19-1.72,6.08,6.08,0,0,1,2.64-4.38,14.52,14.52,0,0,1,9.74-2.48h.4v.4a35.76,35.76,0,0,1-.13,4.51v1.32c-.14,2.06-.53,2.38-1.59,2.64a5.65,5.65,0,0,0-1.58.77A10.77,10.77,0,0,1,6726.5,6981.32Zm6.71-10.9a13.24,13.24,0,0,0-7.76,2.37,5.28,5.28,0,0,0-2.22,3.54,1.29,1.29,0,0,0,.9,1.08h.26v.29a2.62,2.62,0,0,0,1.11,2.38,6.94,6.94,0,0,0,5.62-1.64,6.72,6.72,0,0,1,1.8-.89c.68-.24.84-.3.95-1.93v-1.32c.12-1.32.17-2.64.16-4h-.82Z" transform="translate(-6696.12 -6884)"/><path class="cls-3" d="M6723.92,6977.7a3.82,3.82,0,0,0,2-1.11" transform="translate(-6696.12 -6884)"/><path class="cls-2" d="M6723.92,6978.18a.48.48,0,0,1-.61-.32.49.49,0,0,1,.31-.61h.32a2.74,2.74,0,0,0,1.45-.84.49.49,0,0,1,.68-.09.48.48,0,0,1,.09.67h0a3.69,3.69,0,0,1-1.9,1.16h-.34Z" transform="translate(-6696.12 -6884)"/><path class="cls-4" d="M6735.42,6918.34c-19.08-5.28-4.88-29.65,10.56-19.67Z" transform="translate(-6696.12 -6884)"/><path class="cls-2" d="M6735.66,6918.89h-.37c-5.44-1.53-8.79-4.75-9.42-9.05a12.64,12.64,0,0,1,5.89-11.94,12.78,12.78,0,0,1,14.36.48l.36.24Zm2.64-22.12a11.15,11.15,0,0,0-6.1,1.82,11.67,11.67,0,0,0-5.46,11c.58,3.83,3.54,6.73,8.37,8.18l10-18.93a13.26,13.26,0,0,0-6.76-2Z" transform="translate(-6696.12 -6884)"/><path class="cls-4" d="M6820.21,6896.85c15.1-10.56,28.75,13.2,11.2,19.35Z" transform="translate(-6696.12 -6884)"/><path class="cls-2" d="M6831.19,6916.78l-11.61-20.06.34-.24a12.45,12.45,0,0,1,13.86-1.16,12.81,12.81,0,0,1,6.31,11.82c-.26,2.64-1.69,7.16-8.53,9.51Zm-10.34-19.8,10.77,18.64a10.34,10.34,0,0,0,7.52-8.56,11.84,11.84,0,0,0-5.83-11,11.22,11.22,0,0,0-12.46.87Z" transform="translate(-6696.12 -6884)"/><path class="cls-1" d="M6823.46,7039.05c3.83,2.38,10.85,9.56,5.09,13-5.51,5.07-8.63-5.57-13.48-7A13.44,13.44,0,0,1,6823.46,7039.05Z" transform="translate(-6696.12 -6884)"/><path class="cls-2" d="M6825.62,7053.91h-.21c-2.19-.13-4-2.27-5.73-4.3a12.28,12.28,0,0,0-4.75-4.09l-.63-.19.4-.66a14,14,0,0,1,8.68-6.2h.34c2.46,1.53,7.53,6,7.5,10a4.41,4.41,0,0,1-2.38,3.83A4.76,4.76,0,0,1,6825.62,7053.91Zm-9.82-9.08a15.12,15.12,0,0,1,4.57,4.15,9.21,9.21,0,0,0,5.07,4,3.77,3.77,0,0,0,2.64-1.24,3.47,3.47,0,0,0,1.95-3.06c0-3.22-4.06-7.26-6.89-9.08a12.39,12.39,0,0,0-7.31,5.25Z" transform="translate(-6696.12 -6884)"/><path class="cls-2" d="M6828.55,7052.59a.47.47,0,0,1-.42-.26,18.88,18.88,0,0,1-.74-1.8,8,8,0,0,0-1.74-3.22.47.47,0,0,1,0-.67.47.47,0,0,1,.67,0,8.64,8.64,0,0,1,1.95,3.48,16.81,16.81,0,0,0,.72,1.69.48.48,0,0,1-.21.63Z" transform="translate(-6696.12 -6884)"/><path class="cls-1" d="M6754.91,7047.16c-4.52.68-7.05,4.75-10.8,6.81a3.27,3.27,0,0,1-5.28-1.25,1.69,1.69,0,0,1-1.37-.63c-3.28-5.28,3.4-8.95,6.91-11.53,4.94-1,8,3.24,10.54,6.6Z" transform="translate(-6696.12 -6884)"/><path class="cls-2" d="M6741.73,7055.23a3,3,0,0,1-.84,0,3.88,3.88,0,0,1-2.3-2,1.57,1.57,0,0,1-1.29-.68c-3.17-5,2.22-8.77,5.78-11.28l1.24-.89c5-1,8.16,3.11,10.69,6.44l.71.95h-.79a13.69,13.69,0,0,0-6.68,3.83,24.4,24.4,0,0,1-4,2.95A5.19,5.19,0,0,1,6741.73,7055.23Zm-3.16-3.06a1.28,1.28,0,0,1,.55,0h.13l.21.42a3,3,0,0,0,1.77,1.61,3.59,3.59,0,0,0,2.64-.63,23.65,23.65,0,0,0,3.83-2.85,15.83,15.83,0,0,1,6.36-3.88c-2.43-3.17-5.28-6.6-9.42-5.81l-1.19.85c-3.64,2.64-8.16,5.75-5.54,9.95a.77.77,0,0,0,.55.37Z" transform="translate(-6696.12 -6884)"/><path class="cls-2" d="M6738.91,7053.23a.48.48,0,0,1-.5-.45.41.41,0,0,1,0-.19,7.37,7.37,0,0,1,1.53-3.46,10.81,10.81,0,0,0,1-1.66.48.48,0,0,1,.63-.24.49.49,0,0,1,.24.64,12.29,12.29,0,0,1-1.08,1.82,6.4,6.4,0,0,0-1.3,3.09.47.47,0,0,1-.49.45Zm-2.69-141.6c-2.64-1.32-4.36-3.14-2.83-6s4.07-2.41,6.6-1.09Zm91.2-2.53c2.64-1.32,4.35-3.14,2.82-6.05s-4.06-2.4-6.6-1.08Z" transform="translate(-6696.12 -6884)"/><path class="cls-1" d="M6844.76,6977.07c-.24,5-5.28,2.64-7.47,1.11s-2.64-.24-2.95-3.17a46,46,0,0,1-.24-5.75,14.13,14.13,0,0,1,9.42,2.4c1.37,1,3.93,4.17,1.27,5.28" transform="translate(-6696.12 -6884)"/><path class="cls-2" d="M6842.18,6980.58a10.85,10.85,0,0,1-5.05-1.9,6.09,6.09,0,0,0-1.58-.77c-1.06-.36-1.45-.68-1.58-2.63V6974a34.08,34.08,0,0,1-.14-4.52v-.63h.4a14.52,14.52,0,0,1,9.74,2.48,6.07,6.07,0,0,1,2.64,4.38,2.16,2.16,0,0,1-1.19,1.72,3.27,3.27,0,0,1-1.63,2.9,3.1,3.1,0,0,1-1.61.29Zm-7.69-10.87c0,1.32,0,2.64.16,3.95V6975c0,1.61.24,1.67,1,1.93a6.75,6.75,0,0,1,1.8.9,6.93,6.93,0,0,0,5.62,1.64,2.66,2.66,0,0,0,1.11-2.38v-.32h.26a1.31,1.31,0,0,0,.9-1.08,5.28,5.28,0,0,0-2.22-3.54,13.44,13.44,0,0,0-8.58-2.42Z" transform="translate(-6696.12 -6884)"/><path class="cls-3" d="M6844.76,6977.07a3.91,3.91,0,0,1-2-1" transform="translate(-6696.12 -6884)"/><path class="cls-2" d="M6844.76,6977.55h-.5a3.78,3.78,0,0,1-1.85-1.32.49.49,0,0,1,.77-.59,2.8,2.8,0,0,0,1.45.85h.32a.53.53,0,0,1,.43.62A.54.54,0,0,1,6844.76,6977.55Z" transform="translate(-6696.12 -6884)"/><path class="cls-4" d="M6782.44,6886.76c19.11,0,37,2.64,46.35,21.12,8.37,20.57,5.28,42.77,6.68,64.49,1.11,18.66,3.54,40.23-5.12,57.55-9.06,18.16-31.92,22.67-50.66,22.07-14.73-.53-32.52-5.28-40.83-18.8-9.77-15.84-5.15-39.28-4.44-56.83.85-20.8-5.65-41.68,1.19-62.06,7.1-21.12,26.21-25.9,46.8-27.54" transform="translate(-6696.12 -6884)"/><path class="cls-2" d="M6782.94,7052.59h-3.27a69.65,69.65,0,0,1-23-4.59,36.78,36.78,0,0,1-18.24-14.44c-7.92-12.78-6.49-30.41-5.28-46,.32-3.91.61-7.63.74-11.12a177.7,177.7,0,0,0-1-22.12c-1.11-13.2-2.27-26.84,2.17-40.07a35,35,0,0,1,18.48-21.35c7.12-3.49,15.83-5.5,28.64-6.5,18.84-.13,37.43,2.51,47,21.22,6.13,15,6.21,31.21,6.31,46.83,0,5.86,0,11.91.43,17.82,0,1.8.21,3.62.34,5.44,1.11,17.13,2.37,36.59-5.52,52.32C6820.9,7049.74,6796.09,7052.59,6782.94,7052.59Zm-.5-165.35c-19.88,1.69-39.25,6-46.38,27.22-4.38,13-3.22,26.58-2.14,39.59a179.38,179.38,0,0,1,.95,22.23c-.13,3.51-.45,7.23-.74,11.16-1.21,15.42-2.64,32.92,5.1,45.41,3.24,5.28,13.7,17.6,40.46,18.48,11.59.42,39.6-.9,50.16-21.86,7.76-15.52,6.52-34.82,5.41-51.85,0-1.84-.24-3.66-.34-5.43-.29-5.76-.43-11.83-.43-17.69,0-15.52-.15-31.68-6.23-46.46a34,34,0,0,0-19.24-17.18A78.77,78.77,0,0,0,6782.44,6887.24Z" transform="translate(-6696.12 -6884)"/><path class="cls-5" d="M6785.79,6912.4c3.43,19.93,36,14.67,31.33-5.44-4.19-18-32.46-13-31.33,5.44" transform="translate(-6696.12 -6884)"/><path class="cls-2" d="M6801.29,6925.41a18.1,18.1,0,0,1-6-1,14.74,14.74,0,0,1-10-12,15.19,15.19,0,0,1,4.12-11.72,18,18,0,0,1,10.56-5.28,16.86,16.86,0,0,1,10.72,1.84,14.37,14.37,0,0,1,6.83,9.53,13.93,13.93,0,0,1-4.06,14.15,18.48,18.48,0,0,1-12.22,4.41Zm-15-13.07a13.82,13.82,0,0,0,9.37,11.22,18,18,0,0,0,17.29-3.27,13.21,13.21,0,0,0,3.77-13.2,14.1,14.1,0,0,0-16.52-10.72,15.23,15.23,0,0,0-13.91,16Z" transform="translate(-6696.12 -6884)"/><path class="cls-5" d="M6746.85,6915.64c4.44,17.35,32.21,12.89,31.18-4.51-1.24-20.85-35.43-16.92-31.18,4.51" transform="translate(-6696.12 -6884)"/><path class="cls-2" d="M6761.69,6927.07a17.05,17.05,0,0,1-8.1-2,14.37,14.37,0,0,1-7.16-9.37,14.57,14.57,0,0,1,5-14.91,18.74,18.74,0,0,1,18.64-2.38,14.11,14.11,0,0,1,8.45,12.67c.55,9.24-6.79,14.63-13.81,15.84a18.53,18.53,0,0,1-3,.13Zm-14.31-11.53a14.43,14.43,0,0,0,17.24,10.56c6.65-1.06,13.59-6.13,13.07-14.81a13.21,13.21,0,0,0-7.92-11.93,17.82,17.82,0,0,0-17.72,2.27,13.73,13.73,0,0,0-4.67,13.91Z" transform="translate(-6696.12 -6884)"/><path class="cls-5" d="M6789.62,6936.44a45.69,45.69,0,0,1,0,8.27,5.28,5.28,0,0,1-3.09,1.9,4.55,4.55,0,0,1-3.46-2.64,58.4,58.4,0,0,1,.24-9.35Z" transform="translate(-6696.12 -6884)"/><path class="cls-2" d="M6786.82,6947h-.13a5,5,0,0,1-3.83-3,31.21,31.21,0,0,1,0-6.41c0-1,.16-2,.19-3v-.8l7.12,2.2v.44a18.23,18.23,0,0,0,.13,2.64,22.49,22.49,0,0,1,0,5.68v.13a4,4,0,0,1-2.5,1.8l-.82.31Zm-3.06-3.32a4,4,0,0,0,2.95,2.35l.74-.29a3.2,3.2,0,0,0,1.93-1.38,22.2,22.2,0,0,0,0-5.28,14.74,14.74,0,0,0-.13-2.4l-5.28-1.61a12.26,12.26,0,0,1-.16,2.43,30.82,30.82,0,0,0-.08,6.15Z" transform="translate(-6696.12 -6884)"/><ellipse class="cls-2" cx="58.39" cy="28.79" rx="4.7" ry="5.09"/><ellipse class="cls-5" cx="60.53" cy="29.95" rx="1.11" ry="1.29"/><ellipse class="cls-2" cx="97.73" cy="27.53" rx="4.62" ry="5.09"/><ellipse class="cls-5" cx="99.81" cy="28.69" rx="1.08" ry="1.29"/><path class="cls-5" d="M6776.42,6936.05c-2.06,5,1.13,14.89,6.7,7.57a58.28,58.28,0,0,1,.24-9.34Z" transform="translate(-6696.12 -6884)"/><path class="cls-2" d="M6779.3,6946.71a2.58,2.58,0,0,1-1.38-.37c-2.24-1.29-3.64-6.6-2.05-10.56v-.21l7.91-2v.63a17,17,0,0,1-.18,3,29.49,29.49,0,0,0,0,6.23v.34A5.57,5.57,0,0,1,6779.3,6946.71Zm-2.62-10.27c-1.13,3.09-.23,7.92,1.75,9.06,1.42.82,3-.61,4.11-2a32.42,32.42,0,0,1,0-6.23,12,12,0,0,1,.16-2.38Z" transform="translate(-6696.12 -6884)"/><path class="cls-1" d="M6777,6926.49a6.05,6.05,0,0,0-5.45,6.59,6.3,6.3,0,0,0,.48,1.86c2.64,4.75,8.5-.42,12.15,0,4.19,0,7.65,4.43,11,.79,3.75-4.06-1.61-7.92-5.81-9.79Z" transform="translate(-6696.12 -6884)"/><path class="cls-6" d="M6792.26,6937.74a10.66,10.66,0,0,1-3.86-1.08,11.65,11.65,0,0,0-4.17-1.17,10.69,10.69,0,0,0-4.38.95c-3,1-6.31,2.2-8.21-1.21a5.69,5.69,0,0,1,0-5.54,6.75,6.75,0,0,1,5.28-3.62l12.7-.55c3.11,1.32,6.68,3.72,7.28,6.52a5,5,0,0,1-4.32,5.67l-.32,0Zm-7.92-3.2a12.58,12.58,0,0,1,4.49,1.24c2.37,1,4.25,1.77,6.15-.29a3.5,3.5,0,0,0,1.08-3.19c-.53-2.43-3.88-4.65-6.63-5.81l-12.27.5a5.86,5.86,0,0,0-4.49,3.12,4.8,4.8,0,0,0,0,4.62c1.51,2.64,4.2,1.77,7.08.79a11.17,11.17,0,0,1,4.59-1Z" transform="translate(-6696.12 -6884)"/><path class="cls-2" d="M6776.42,6926.31c-.29-6.6,12.33-7.45,13.81-1.9S6777,6931.22,6776.42,6926.31Z" transform="translate(-6696.12 -6884)"/><text class="cls-7" transform="translate(7.42 237.26)">User A</text><path class="cls-1" d="M6718.13,7357.91c.24,5,5.28,2.64,7.47,1.11s2.64-.24,3-3.17a48.07,48.07,0,0,0,.23-5.76,14.14,14.14,0,0,0-9.42,2.41c-1.37,1-3.93,4.17-1.27,5.28" transform="translate(-6696.12 -6884)"/><path class="cls-2" d="M6720.72,7361.52a3.18,3.18,0,0,1-1.43-.31,3.3,3.3,0,0,1-1.64-2.91,2.14,2.14,0,0,1-1.18-1.71,6.05,6.05,0,0,1,2.63-4.38,14.6,14.6,0,0,1,9.75-2.49h.39v.4a33.93,33.93,0,0,1-.13,4.51V7356c-.13,2.06-.53,2.38-1.58,2.64a6.16,6.16,0,0,0-1.59.77A10.78,10.78,0,0,1,6720.72,7361.52Zm6.7-10.9a13.2,13.2,0,0,0-7.76,2.38,5.27,5.27,0,0,0-2.22,3.54,1.34,1.34,0,0,0,.9,1.08h.26v.29a2.66,2.66,0,0,0,1.11,2.37,6.87,6.87,0,0,0,5.62-1.63,6.9,6.9,0,0,1,1.8-.9c.69-.24.84-.29.95-1.93v-1.32a37.35,37.35,0,0,0,.16-4h-.82Z" transform="translate(-6696.12 -6884)"/><path class="cls-3" d="M6718.13,7357.91a4,4,0,0,0,2-1.11" transform="translate(-6696.12 -6884)"/><path class="cls-2" d="M6718.13,7358.38a.48.48,0,1,1-.29-.92h.31a2.82,2.82,0,0,0,1.46-.85.48.48,0,0,1,.67-.09.49.49,0,0,1,.09.68h0a3.76,3.76,0,0,1-1.9,1.16h-.34Z" transform="translate(-6696.12 -6884)"/><path class="cls-4" d="M6729.64,7298.54c-19.09-5.28-4.89-29.64,10.56-19.67Z" transform="translate(-6696.12 -6884)"/><path class="cls-2" d="M6729.87,7299.09h-.36c-5.44-1.53-8.79-4.75-9.43-9.05a12.63,12.63,0,0,1,5.89-11.93,12.78,12.78,0,0,1,14.36.47l.37.24Zm2.64-22.12a11.26,11.26,0,0,0-6.09,1.82,11.68,11.68,0,0,0-5.47,11c.58,3.83,3.54,6.73,8.37,8.19l10-18.93a13.24,13.24,0,0,0-6.76-2Z" transform="translate(-6696.12 -6884)"/><path class="cls-4" d="M6814.43,7277.05c15.1-10.56,28.74,13.2,11.19,19.35Z" transform="translate(-6696.12 -6884)"/><path class="cls-2" d="M6825.41,7297l-11.62-20.06.35-.24a12.44,12.44,0,0,1,13.85-1.16,12.78,12.78,0,0,1,6.31,11.83c-.26,2.64-1.69,7.15-8.52,9.5Zm-10.35-19.8,10.77,18.64a10.3,10.3,0,0,0,7.52-8.55,11.84,11.84,0,0,0-5.83-11,11.24,11.24,0,0,0-12.46.87Z" transform="translate(-6696.12 -6884)"/><path class="cls-1" d="M6817.67,7419.26c3.83,2.37,10.85,9.55,5.1,13-5.52,5.06-8.63-5.57-13.49-7A13.39,13.39,0,0,1,6817.67,7419.26Z" transform="translate(-6696.12 -6884)"/><path class="cls-2" d="M6819.84,7434.12h-.21c-2.19-.13-4-2.27-5.73-4.31a12.35,12.35,0,0,0-4.75-4.09l-.64-.18.4-.66a14,14,0,0,1,8.68-6.21h.35c2.45,1.54,7.52,6,7.49,10a4.4,4.4,0,0,1-2.37,3.83A4.81,4.81,0,0,1,6819.84,7434.12ZM6810,7425a15,15,0,0,1,4.56,4.14,9.26,9.26,0,0,0,5.07,4,3.81,3.81,0,0,0,2.64-1.24,3.5,3.5,0,0,0,2-3.07c0-3.22-4.07-7.26-6.89-9.08A12.46,12.46,0,0,0,6810,7425Z" transform="translate(-6696.12 -6884)"/><path class="cls-2" d="M6822.77,7432.8a.49.49,0,0,1-.43-.27,18.64,18.64,0,0,1-.73-1.79,7.92,7.92,0,0,0-1.75-3.22.48.48,0,0,1,.66-.69,8.76,8.76,0,0,1,2,3.49,15.51,15.51,0,0,0,.71,1.69.48.48,0,0,1-.21.63Z" transform="translate(-6696.12 -6884)"/><path class="cls-1" d="M6749.12,7427.36c-4.52.69-7.05,4.75-10.8,6.81a3.28,3.28,0,0,1-5.28-1.24,1.72,1.72,0,0,1-1.37-.63c-3.27-5.28,3.41-8.95,6.92-11.54,4.93-.95,8,3.25,10.53,6.6Z" transform="translate(-6696.12 -6884)"/><path class="cls-2" d="M6736,7435.44a4,4,0,0,1-.85,0,3.9,3.9,0,0,1-2.29-2,1.6,1.6,0,0,1-1.3-.69c-3.17-5,2.22-8.76,5.78-11.27l1.24-.9c5-1,8.16,3.12,10.69,6.44l.72.95h-.79a13.64,13.64,0,0,0-6.68,3.83,24.75,24.75,0,0,1-4,3A5.36,5.36,0,0,1,6736,7435.44Zm-3.17-3.07a1.28,1.28,0,0,1,.55,0h.14l.21.43a3.07,3.07,0,0,0,1.76,1.61,3.59,3.59,0,0,0,2.64-.64,22.67,22.67,0,0,0,3.83-2.85,15.83,15.83,0,0,1,6.36-3.88c-2.42-3.17-5.28-6.6-9.42-5.8l-1.19.84c-3.64,2.64-8.15,5.75-5.54,9.95a.76.76,0,0,0,.55.37Z" transform="translate(-6696.12 -6884)"/><path class="cls-2" d="M6733.12,7433.43a.47.47,0,0,1-.5-.45.57.57,0,0,1,0-.18,7.18,7.18,0,0,1,1.53-3.46,10.76,10.76,0,0,0,1-1.66.48.48,0,1,1,.87.39,11.48,11.48,0,0,1-1.08,1.82,6.42,6.42,0,0,0-1.29,3.09.49.49,0,0,1-.5.46Zm-2.69-141.59c-2.64-1.32-4.36-3.15-2.83-6.05s4.07-2.4,6.6-1.08Zm91.2-2.54c2.64-1.32,4.36-3.14,2.83-6s-4.07-2.41-6.6-1.09Z" transform="translate(-6696.12 -6884)"/><path class="cls-1" d="M6839,7357.27c-.24,5-5.28,2.64-7.48,1.11s-2.63-.23-2.95-3.16a46.24,46.24,0,0,1-.24-5.76,14.1,14.1,0,0,1,9.42,2.4c1.38,1,3.94,4.17,1.27,5.28" transform="translate(-6696.12 -6884)"/><path class="cls-2" d="M6836.39,7360.79a10.79,10.79,0,0,1-5-1.91,5.82,5.82,0,0,0-1.59-.76c-1.05-.37-1.45-.69-1.58-2.64v-1.32a34,34,0,0,1-.13-4.51V7349h.39a14.5,14.5,0,0,1,9.74,2.48,6.05,6.05,0,0,1,2.64,4.39,2.15,2.15,0,0,1-1.18,1.71,3.27,3.27,0,0,1-1.64,2.9,3.2,3.2,0,0,1-1.61.3Zm-7.68-10.88a35,35,0,0,0,.16,4v1.32c0,1.61.23,1.66.95,1.93a6.81,6.81,0,0,1,1.79.89,6.87,6.87,0,0,0,5.62,1.64,2.62,2.62,0,0,0,1.11-2.38V7357h.27a1.31,1.31,0,0,0,.89-1.08,5.26,5.26,0,0,0-2.21-3.54,13.46,13.46,0,0,0-8.58-2.43Z" transform="translate(-6696.12 -6884)"/><path class="cls-3" d="M6839,7357.27a3.83,3.83,0,0,1-2-1" transform="translate(-6696.12 -6884)"/><path class="cls-2" d="M6839,7357.75h-.51a3.71,3.71,0,0,1-1.84-1.32.48.48,0,0,1,.76-.58,2.89,2.89,0,0,0,1.45.84h.32a.54.54,0,1,1-.18,1.06Z" transform="translate(-6696.12 -6884)"/><path class="cls-4" d="M6776.65,7267c19.11,0,37,2.64,46.35,21.12,8.37,20.56,5.28,42.76,6.68,64.49,1.11,18.66,3.54,40.23-5.12,57.54-9.05,18.16-31.91,22.68-50.65,22.07-14.73-.53-32.53-5.28-40.84-18.79-9.77-15.84-5.15-39.28-4.44-56.84.85-20.8-5.64-41.68,1.19-62.06,7.1-21.12,26.21-25.89,46.8-27.53" transform="translate(-6696.12 -6884)"/><path class="cls-2" d="M6777.15,7432.8h-3.27a69.6,69.6,0,0,1-23-4.6,36.7,36.7,0,0,1-18.24-14.44c-7.92-12.77-6.5-30.41-5.28-46,.31-3.91.6-7.63.74-11.11a179.47,179.47,0,0,0-.95-22.12c-1.11-13.2-2.27-26.85,2.16-40.08a35,35,0,0,1,18.48-21.35c7.13-3.49,15.84-5.49,28.64-6.49,18.85-.14,37.43,2.5,47,21.22,6.12,15,6.2,31.2,6.31,46.83,0,5.86,0,11.9.42,17.82,0,1.79.21,3.61.34,5.43,1.11,17.14,2.38,36.59-5.52,52.32C6815.11,7430,6790.3,7432.8,6777.15,7432.8Zm-.5-165.36c-19.88,1.69-39.25,6-46.38,27.22-4.38,13-3.22,26.58-2.14,39.6a177.3,177.3,0,0,1,.95,22.22c-.13,3.51-.45,7.24-.74,11.17-1.21,15.41-2.64,32.92,5.1,45.4,3.25,5.28,13.7,17.61,40.47,18.48,11.58.42,39.59-.9,50.15-21.86,7.76-15.52,6.52-34.82,5.41-51.84,0-1.85-.24-3.67-.34-5.44-.29-5.75-.42-11.83-.42-17.69,0-15.52-.16-31.67-6.23-46.45a34,34,0,0,0-19.25-17.19A79,79,0,0,0,6776.65,7267.44Z" transform="translate(-6696.12 -6884)"/><path class="cls-5" d="M6780,7292.6c3.44,19.93,36,14.68,31.34-5.44-4.2-18-32.47-13-31.34,5.44" transform="translate(-6696.12 -6884)"/><path class="cls-2" d="M6795.5,7305.61a18.35,18.35,0,0,1-6-1,14.78,14.78,0,0,1-10-12,15.22,15.22,0,0,1,4.12-11.72,18,18,0,0,1,10.56-5.28,16.92,16.92,0,0,1,10.72,1.85,14.4,14.4,0,0,1,6.84,9.53,13.94,13.94,0,0,1-4.07,14.15,18.47,18.47,0,0,1-12.22,4.4Zm-15-13.06a13.88,13.88,0,0,0,9.37,11.22,18,18,0,0,0,17.29-3.28,13.19,13.19,0,0,0,3.77-13.2,14.09,14.09,0,0,0-16.52-10.71,15.22,15.22,0,0,0-13.91,16Z" transform="translate(-6696.12 -6884)"/><path class="cls-5" d="M6741.07,7295.85c4.43,17.34,32.2,12.88,31.17-4.52-1.24-20.85-35.42-16.92-31.17,4.52" transform="translate(-6696.12 -6884)"/><path class="cls-2" d="M6755.9,7307.28a17.05,17.05,0,0,1-8.1-2,14.38,14.38,0,0,1-7.15-9.37,14.54,14.54,0,0,1,5-14.92,18.72,18.72,0,0,1,18.63-2.37,14.07,14.07,0,0,1,8.45,12.67c.56,9.24-6.78,14.62-13.8,15.84a19.89,19.89,0,0,1-3,.13Zm-14.3-11.54a14.4,14.4,0,0,0,17.23,10.56c6.66-1.05,13.6-6.12,13.07-14.81a13.2,13.2,0,0,0-7.92-11.93,17.82,17.82,0,0,0-17.71,2.27,13.69,13.69,0,0,0-4.67,13.91Z" transform="translate(-6696.12 -6884)"/><path class="cls-5" d="M6783.83,7316.65a43.83,43.83,0,0,1,0,8.26,5.28,5.28,0,0,1-3.09,1.9,4.55,4.55,0,0,1-3.46-2.64,59.46,59.46,0,0,1,.24-9.34Z" transform="translate(-6696.12 -6884)"/><path class="cls-2" d="M6781,7327.21h-.13a5,5,0,0,1-3.83-3,31.21,31.21,0,0,1,0-6.41c0-1,.16-2,.19-3V7314l7.13,2.19v.45a18.37,18.37,0,0,0,.13,2.64,22.42,22.42,0,0,1,0,5.67v.14a4,4,0,0,1-2.51,1.79l-.82.32Zm-3.06-3.33a4,4,0,0,0,3,2.35l.74-.29a3.15,3.15,0,0,0,1.92-1.37,22.2,22.2,0,0,0,0-5.28,14.68,14.68,0,0,0-.13-2.4l-5.28-1.61a12.21,12.21,0,0,1-.16,2.42,30.93,30.93,0,0,0-.08,6.16Z" transform="translate(-6696.12 -6884)"/><ellipse class="cls-2" cx="52.61" cy="409" rx="4.7" ry="5.09"/><ellipse class="cls-5" cx="54.75" cy="410.16" rx="1.11" ry="1.29"/><ellipse class="cls-2" cx="91.94" cy="407.73" rx="4.62" ry="5.09"/><ellipse class="cls-5" cx="94.02" cy="408.89" rx="1.08" ry="1.29"/><path class="cls-5" d="M6770.63,7316.25c-2.06,5,1.14,14.89,6.71,7.58a58.4,58.4,0,0,1,.24-9.35Z" transform="translate(-6696.12 -6884)"/><path class="cls-2" d="M6773.51,7326.92a2.73,2.73,0,0,1-1.37-.37c-2.25-1.3-3.65-6.6-2.06-10.56v-.21l7.92-2v.63a16.08,16.08,0,0,1-.19,3,30.88,30.88,0,0,0,0,6.23v.34A5.56,5.56,0,0,1,6773.51,7326.92Zm-2.61-10.27c-1.14,3.09-.24,7.92,1.74,9.05,1.42.82,3-.6,4.12-2a32.42,32.42,0,0,1,0-6.23,12.11,12.11,0,0,1,.16-2.38Z" transform="translate(-6696.12 -6884)"/><path class="cls-1" d="M6771.24,7306.7a6,6,0,0,0-5.45,6.59,6.25,6.25,0,0,0,.49,1.85c2.64,4.76,8.5-.42,12.14,0,4.2,0,7.65,4.44,11,.8,3.75-4.07-1.61-7.92-5.8-9.8Z" transform="translate(-6696.12 -6884)"/><path class="cls-6" d="M6786.47,7317.94a10.55,10.55,0,0,1-3.85-1.08,11.7,11.7,0,0,0-4.17-1.16,10.54,10.54,0,0,0-4.39.95c-3,1-6.3,2.19-8.21-1.22a5.74,5.74,0,0,1,0-5.54,6.81,6.81,0,0,1,5.28-3.62l12.7-.55c3.12,1.32,6.68,3.72,7.29,6.52a5,5,0,0,1-4.33,5.67l-.32,0Zm-7.92-3.19A12.33,12.33,0,0,1,6783,7316c2.38,1,4.25,1.77,6.15-.29a3.52,3.52,0,0,0,1.08-3.2c-.53-2.42-3.88-4.64-6.62-5.8l-12.28.5a5.85,5.85,0,0,0-4.49,3.11,4.8,4.8,0,0,0,0,4.62c1.51,2.64,4.2,1.77,7.08.79a11.32,11.32,0,0,1,4.59-1Z" transform="translate(-6696.12 -6884)"/><path class="cls-2" d="M6770.63,7306.51c-.29-6.6,12.33-7.44,13.81-1.9S6771.24,7311.42,6770.63,7306.51Z" transform="translate(-6696.12 -6884)"/><text class="cls-7" transform="translate(0 615.87)">User B</text><circle class="cls-8" cx="878.84" cy="62.93" r="62.43"/><path class="cls-9" d="M7589.74,6896l.55.28-.28.82.55.27.55.55.55.55.82.54.82.55h.55s.27.55,0,.55a1,1,0,0,0-.55.27l.55.28s.27,0,0,.27a2.12,2.12,0,0,1-1.1.27h-2.46l-.55.28v-.28l.82-.82h-1.09l.54-.82-.54-.27.82-.55-.55-.27-.82-.55-.55-.55-.55-.55s.28-.27,0-.27h-.54l-.28-.55v-.55h1.64Z" transform="translate(-6696.12 -6884)"/><path class="cls-9" d="M7587.28,6897.64l-.55.28.27.55h-1.09l.27.27.27.27v1.1s0-.28.28,0,1.09,0,1.09,0l.55-.28s.55.28.55,0a6.11,6.11,0,0,0-.28-1.09s.28-.55,0-.55-.82-.55-.82-.55Z" transform="translate(-6696.12 -6884)"/><path class="cls-9" d="M7578.51,6892.17l.82.27.83.28h.54s0-.28.55-.28a2.81,2.81,0,0,1,1.1.28s.54,0,.54-.28v-.55a.58.58,0,0,0-.54-.54c-.28,0-.55-.28-.83-.28h-2.46a.26.26,0,0,0-.27-.27,2.8,2.8,0,0,0-.83.27s-.27-.27-.27,0S7578.51,6892.17,7578.51,6892.17Z" transform="translate(-6696.12 -6884)"/><path class="cls-9" d="M7633.83,6939c-.82.41-1,.71-1.45-.21s-.61-1.77-1.1-2.58-1.11-1.37-1.51-2.16c-.51-1-.61-2.26-1.49-3a1.75,1.75,0,0,1-.52-.45,1.68,1.68,0,0,1-.13-.74,5.48,5.48,0,0,0-.95-2.29c-1.18-1.93-2.35-3.93-3.58-5.81a2.25,2.25,0,0,1,.59-.32c.28-.09,2.64,3.53,2.92,3.91a7.3,7.3,0,0,1,.83,1.32c.24.52.34,1.1.59,1.61a7.37,7.37,0,0,0,.7,1,18,18,0,0,1,1.7,2.75,20.76,20.76,0,0,1,1.74,5.52l1.1-.55a3.68,3.68,0,0,0,0-.82c0-.35.58-.86.75-1.13a2.31,2.31,0,0,0,.48-1.8,1.12,1.12,0,0,1-.06-.44,1.09,1.09,0,0,1,.26-.42,2.31,2.31,0,0,0,.24-1.64,23.28,23.28,0,0,0-2.77-7.72c.17.32,0,2.14-.55,1.53a1,1,0,0,1-.2-.53,5.05,5.05,0,0,0-1.6-2.31,3.29,3.29,0,0,1-1.2-2.48c.38.43.73.88,1.09,1.33l1.37,1.37.55.54V6922l1.09,1.36-.12-.43a62.65,62.65,0,0,0-23.94-28.57l-3.21-1.93c-1.05-.63-2.16-1.13-3.24-1.69a4.15,4.15,0,0,0-2.76-.31c-2.19.23-4.26-.95-6.43-1.31l-.28.84a1.13,1.13,0,0,0-.81-.06c.05.56.74.84,1,1.37a1.57,1.57,0,0,1,.06.86,10.36,10.36,0,0,0-.14,2.22,2.27,2.27,0,0,0,1.13,1.82,1.29,1.29,0,0,0,1.79-.74l2.2,1.65-.28.85a2,2,0,0,0,2.19-.64,1.94,1.94,0,0,1-.61-1.87c-.15-.42-.7-.47-1.1-.64a2.64,2.64,0,0,1-1.32-2.34,9.19,9.19,0,0,1,2.56,2.41,3.71,3.71,0,0,0,2.28.15c.34-.08.8-.16.94.16l-1.37.27v.58a2.17,2.17,0,0,1,1,.22.76.76,0,0,1,.39.85l-.82-.55-.28.27,1.1,1.37-.27.55-.85-.55-1.05.81a1.36,1.36,0,0,0-1.89,0c.1-.1-2.06-1.26-1.17-1.94a1,1,0,0,1-.78-.78,1,1,0,0,1-1.07.16,4.27,4.27,0,0,0,1.58,2.32c-.15.37-.71.08-1.1.15-.85.13-.55,1.72-1.35,2a.61.61,0,0,0-.57-.05.86.86,0,0,1-.53,1.09,2.38,2.38,0,0,1-1.35,0l.43.48a2.76,2.76,0,0,1-2,0c-.05.33.33.54.63.66a5,5,0,0,1,2,1.45,2.71,2.71,0,0,1,.56,2.36l-3.88-.39c-.58-.06-1.31-.05-1.6.46a2.81,2.81,0,0,1,.31,2.56,2.07,2.07,0,0,0-.18.53.91.91,0,0,0,.71,1v1.12a2.5,2.5,0,0,1,2.73,1.11,7.29,7.29,0,0,1,3.29-.59,2.13,2.13,0,0,1,1.37-1.64l-.84-.82a4.12,4.12,0,0,1,2.21-2.17l-.56-1,1.44,0c1.09,0,1.95-.67,2.95-.67l1.37,1.37,1.64,1.09,1.64.55,1.1.82.27.82v.55l.55.55.27-1.1-.82-.82v-.55l1.1.55.27-.27-1.64-.82-.82-.55-.82-.55-1.1-.82-1.37-.82-.27-.82.55-.28.54.55h.28l1.37,1.09.82.28,1.09.55,1.1.82.55,1.37,1.09.82c.45.34,1,.57,1.13,1.13a1.76,1.76,0,0,0,1,1.21c.81.19.62-.74.72-1.42a.41.41,0,0,0,0-.19c0-.15-.22-.21-.37-.26a2.71,2.71,0,0,1-1.59-1.54l.68.21.09-.5c0,.35,2.12,0,2.31,0-.41.14-1.38-1.59-1.51-1.87a7.72,7.72,0,0,1-.5-2.57,1.85,1.85,0,0,1,1.57.34c.17.19.25.44.4.64a.55.55,0,0,0,.64.24.45.45,0,0,0,.17-.56.88.88,0,0,0-.46-.43.83.83,0,0,1-.27-.17.42.42,0,0,1,.26-.64.6.6,0,0,1,.64.43,5,5,0,0,1,.11.56c.18.6.88.83,1.46,1.06a4.19,4.19,0,0,1,2.33,2c.06.13.11.3,0,.41s-.27.08-.41,0a8.51,8.51,0,0,0-2.42-.56h-1.1v.83h-.55v.54h-.82l-.55.28.82,1.09,1.37,1.65,1.1.54.55.28.27-.28,1.1.28h.54l.28-.55,1.09.55.55,2.19.55,1.91v.55H7621c-.91-.3-1-.08-1.68.6l-3.73-1.75a3.42,3.42,0,0,0-1.18-.39,1.15,1.15,0,0,0-1.09.48,1.91,1.91,0,0,1-.25,2.13,8.84,8.84,0,0,1-3.09-1.8,3.72,3.72,0,0,0-.93-.7,4.11,4.11,0,0,0-1.31-.24,5.06,5.06,0,0,1-2.33-.93c.39-.33.27-.95.08-1.43s-.4-1-.12-1.46l-.8.29,0-.59a9.91,9.91,0,0,1-2.24.17c-.45,0-1,0-1.25.36a7.4,7.4,0,0,0-4.44.29,16.36,16.36,0,0,1-1.75.7c-1.1.29-1.88-.46-2.9-.38-.16,0-.86,1.5-1.21,1.73-.8.52-1.34.77-1.58,1.82a5.58,5.58,0,0,1-.86,2.64,10.16,10.16,0,0,1-2,1.24,5.87,5.87,0,0,0-1.24,1.34c-1.58,2.11-3.25,4.64-2.54,7.17a7.58,7.58,0,0,1,.54,2,5.62,5.62,0,0,1-.54,1.84,7.7,7.7,0,0,0-.35,4.09c2.5.91,3.05,4.19,4.86,6.14,2.13,2.27,5.64,2.38,8.75,2.34a11.41,11.41,0,0,0,3.69-.46c1.1-.38,2.16-1.12,3.32-1s1.89,1.12,2.77,1.81a2.46,2.46,0,0,0,3,.39l-.35,1.06a.75.75,0,0,1,1,.29,1.54,1.54,0,0,1,.13,1.08c-.21,1.25-1.08,2.38-.94,3.64s1,2,1.65,2.95c1.35,2.09,1.38,4.73,1.34,7.22a4.15,4.15,0,0,1-.4,2c-.38.62-1.08,1-1.5,1.58a4.08,4.08,0,0,0-.62,2.25c-.13,2.45.22,4.89.09,7.34s-.21,4.9-.14,7.35c0,1-.62,1.41-.93,2.34l.55.27.27.28,2.2-.55,3.28-.55,3.56-2.74,1.92-1.91a46.74,46.74,0,0,0,3.28-3.84c0-.27,1.1-4.65,1.1-4.65l2.74-2.47,2.19-1.37.82-4.65v-3.29l.55-.82-.28-1.64,2.74-7.12,1.92-4.11.55-3v-5.75Zm-12.19-31.08-1.92-1.64-.54-1.37,1.37,1.1,1.64,1.64,1.09,1.37,1.37,1.64,1.1,1.37.27.55h-.54l-.83-.82-1.09-1.37a1.32,1.32,0,0,0-.28-.82Zm5.75,46h-.55v-1.37l.52-1.29,0-.08.55.82Z" transform="translate(-6696.12 -6884)"/><path class="cls-9" d="M7633,6964.73l-1.1,1.65-1.09,1.91-1.1,1.1-.55,2.19-.82,1.1-.82,1.64-1.37,2.74.55.27,1.09-1.09,1.37-2.47a26.7,26.7,0,0,1,1.37-2.74,34.39,34.39,0,0,0,1.64-3.28l.83-3" transform="translate(-6696.12 -6884)"/><polygon class="cls-9" points="905.95 23.5 906.22 24.32 906.22 24.87 905.67 24.32 905.4 23.78 905.95 23.5"/><polygon class="cls-9" points="906.49 24.87 907.04 25.69 907.32 26.52 906.77 26.79 906.49 27.06 906.22 26.24 905.67 25.42 905.95 25.14 906.49 24.87"/><polygon class="cls-9" points="909.78 27.61 911.42 27.61 911.7 27.88 911.7 28.16 911.97 28.7 911.97 28.98 911.42 28.98 910.6 28.43 909.78 28.16 909.78 27.61"/><path class="cls-9" d="M7521.17,6915.21a32.61,32.61,0,0,0-1.52,3.84,17.93,17.93,0,0,0-1.54,5.63c-.15,2,1,3.89,1.92,5.55a7.62,7.62,0,0,1,.83,1.9c.19.8.12,1.63.24,2.44a5.19,5.19,0,0,0,2,3.53,3.23,3.23,0,0,0,.6-1h.55l.28,2.73c.18,1.85-.36,2.83-1.37,4.36a10.29,10.29,0,0,0-1.35,7,29.8,29.8,0,0,0,2.11,7,16.59,16.59,0,0,0,1.73,3.54c.93,1.33,2.22,2.36,3.2,3.65,1.85,2.47,2.38,5.65,3.1,8.65a57.64,57.64,0,0,0,7.38,17.42c1.78,2.79,3.88,5.26,7.13,6.34a5.8,5.8,0,0,0-2-2,.89.89,0,0,1-.42-.39c-.17-.4.32-.78.39-1.21.18-1.24-2-1.1-1.94-2.4a6.66,6.66,0,0,1,.36-1.15,1.71,1.71,0,0,0-1.17-2l1.55-.44-.23-1,1.52-.39a1.23,1.23,0,0,0,.75-.4c.26-.37,0-.88-.13-1.29s-.26-1,.13-1.24a1.18,1.18,0,0,1,.49-.12c1.71-.29,2.68-3.2,3.2-4.6.14-.39.7-4.24.3-4.11l5.12-1.73c.53-.18,1.14-.43,1.31-1,.11-.37,0-.81.22-1.13s.7-.34,1-.6a1.53,1.53,0,0,0,.37-1.2q.06-3.12-.17-6.24a5,5,0,0,0,3.4-3,7.86,7.86,0,0,0,.72-5.11c-1.79.42-3.13-1.56-4.75-2.41a13.64,13.64,0,0,0-2.81-.86,13.08,13.08,0,0,1-7.71-6.8c-.57-1.11-1.11-2.37-2.23-2.92-.86-.42-1.89-.31-2.78-.66-1.91-.73-2.51-3.08-3.79-4.67a2.25,2.25,0,0,0-1-.77,4.14,4.14,0,0,0-1.53,0,4.39,4.39,0,0,1-3.87-1.94l-1.33.86a1.78,1.78,0,0,1,.47-1.32c-1.91-.25-2.94,2.18-4.55,3.24l-.84-1.13-1.47.8a15.89,15.89,0,0,1,.13-8.1c-.42,0-1.55.39-1.75-.13-.41-1,.17-1.76.8-2.5a8.72,8.72,0,0,0,1.71-3.24l-1.9.56-.82,1.92-.82.27-.28-1.64,1.1-3.56,1.64-2.47.82-1.64,1.92-1.64.28.82,1.36-1.1c.72.09,2,0,2.17.63s-.35,1.56-.58,2.19-1.06,2.11-.9,2.95a2.64,2.64,0,0,0,1.71-1.89c.28-.85.34-1.75.65-2.59,1.29-3.51,5.95-4.58,8.75-6.53a1.81,1.81,0,0,0,.74-.81,7,7,0,0,0,.05-1.21,1.83,1.83,0,0,1,1.11-1.27c.54-.25,1.12-.36,1.67-.59,1.54-.64,2.76-2.19,4.43-2.19l-.7,1a32.59,32.59,0,0,0,4.23-1,1.42,1.42,0,0,0,.73-.4.51.51,0,0,0,0-.74.74.74,0,0,0-.49-.05l-1.58.18a1.36,1.36,0,0,1,1.1-1.63,1.85,1.85,0,0,0-2.32.06,2.31,2.31,0,0,1,3-.72,1.4,1.4,0,0,0,.59.28,1.23,1.23,0,0,0,.46-.1,9.09,9.09,0,0,1,2.77-.55l-2.28,2.12a4.75,4.75,0,0,1,1.88,0,1.76,1.76,0,0,1,1.29,1.26,2.08,2.08,0,0,0,.86-1.58c0-.33-.26-1.45-.78-1.34a12,12,0,0,0,2.39-1.11l3-1.32a1.61,1.61,0,0,0,.47-.29c.51-.52.09-1.53.13-2.18a3.62,3.62,0,0,0-2.25,1.1,1.71,1.71,0,0,1-.53.44,1.46,1.46,0,0,1-.59.08l-1.65,0a.24.24,0,0,1-.17,0,.21.21,0,0,1-.05-.2,3.9,3.9,0,0,1,.74-2.11c.16-.23.36-.49.29-.76a.65.65,0,0,0-.74-.37,5.87,5.87,0,0,0-1.62.47l.81-1.09c.36-.49-1.26-.86-1.49-.82a4.73,4.73,0,0,0-1.51.82l-1.92,1.09-1.92,1.92h-1.64l-1.37,1.92-.82-.28,1.91-1.91-.54-.28.82-1.91,2.46-1.37,3-1.1,1.91.27.82-.27,1.1.82.82,1.37,1.64-1.09.83-1.37.54.54,2.19-.82-.54-1.09,1.64-1.37-1.64-.82h-2.81A62.52,62.52,0,0,0,7521.17,6915.21Z" transform="translate(-6696.12 -6884)"/><polygon class="cls-9" points="872.95 2.01 870.21 6.39 869.12 8.85 870.49 9.95 874.59 6.93 880.89 5.84 882.81 4.47 884.18 2.01 878.7 1.19 872.95 2.01"/><text class="cls-7" transform="translate(759.34 171.94)"><tspan class="cls-10">W</tspan><tspan x="45.12" y="0">ebsite A</tspan></text><line class="cls-11" x1="196.99" y1="95.89" x2="763.55" y2="69.92"/><line class="cls-11" x1="196.99" y1="95.89" x2="760.84" y2="278.67"/><line class="cls-12" x1="191.63" y1="471.66" x2="760.84" y2="278.67"/><line class="cls-12" x1="191.63" y1="471.66" x2="754.04" y2="509.69"/><circle class="cls-8" cx="878.84" cy="283.5" r="62.43"/><path class="cls-9" d="M7589.74,7116.57l.55.27-.28.83.55.27.55.55.55.55.82.54.82.55h.55s.27.55,0,.55a1,1,0,0,0-.55.27l.55.28s.27,0,0,.27a2.12,2.12,0,0,1-1.1.27h-2.46l-.55.28v-.28l.82-.82h-1.09l.54-.82-.54-.27.82-.55-.55-.27-.82-.55-.55-.55-.55-.55s.28-.27,0-.27h-.54l-.28-.55V7116h1.64Z" transform="translate(-6696.12 -6884)"/><path class="cls-9" d="M7587.28,7118.21l-.55.28.27.55h-1.09l.27.27.27.27v1.1s0-.28.28,0,1.09,0,1.09,0l.55-.28s.55.28.55,0a6.11,6.11,0,0,0-.28-1.09s.28-.55,0-.55-.82-.55-.82-.55Z" transform="translate(-6696.12 -6884)"/><path class="cls-9" d="M7578.51,7112.74l.82.27.83.27h.54s0-.27.55-.27a2.89,2.89,0,0,1,1.1.27s.54,0,.54-.27v-.55a.58.58,0,0,0-.54-.54c-.28,0-.55-.28-.83-.28h-2.46a.26.26,0,0,0-.27-.27,2.8,2.8,0,0,0-.83.27s-.27-.27-.27,0S7578.51,7112.74,7578.51,7112.74Z" transform="translate(-6696.12 -6884)"/><path class="cls-9" d="M7633.83,7159.56c-.82.41-1,.71-1.45-.21s-.61-1.77-1.1-2.58-1.11-1.37-1.51-2.16c-.51-1-.61-2.26-1.49-3a1.9,1.9,0,0,1-.52-.45,1.7,1.7,0,0,1-.13-.75,5.5,5.5,0,0,0-.95-2.28c-1.18-1.93-2.35-3.93-3.58-5.81a2.25,2.25,0,0,1,.59-.32c.28-.09,2.64,3.53,2.92,3.91a7.3,7.3,0,0,1,.83,1.32c.24.52.34,1.1.59,1.61a7.37,7.37,0,0,0,.7,1.05,18.4,18.4,0,0,1,1.7,2.74,20.94,20.94,0,0,1,1.74,5.53l1.1-.55a3.68,3.68,0,0,0,0-.82c0-.35.58-.86.75-1.13a2.31,2.31,0,0,0,.48-1.8,1.12,1.12,0,0,1-.06-.44,1.09,1.09,0,0,1,.26-.42,2.31,2.31,0,0,0,.24-1.64,23.28,23.28,0,0,0-2.77-7.72c.17.32,0,2.14-.55,1.53a.9.9,0,0,1-.19-.53,5.1,5.1,0,0,0-1.61-2.31,3.29,3.29,0,0,1-1.2-2.48c.38.43.73.88,1.09,1.33l1.37,1.37.55.54v-.54l1.09,1.36-.12-.43a62.65,62.65,0,0,0-23.94-28.57l-3.21-1.93c-1.05-.63-2.16-1.13-3.24-1.69a4.15,4.15,0,0,0-2.76-.31c-2.19.23-4.26-1-6.43-1.31l-.28.84a1.13,1.13,0,0,0-.81-.06c.05.56.74.84,1,1.37a1.56,1.56,0,0,1,.06.86,10.36,10.36,0,0,0-.14,2.22,2.27,2.27,0,0,0,1.13,1.82,1.3,1.3,0,0,0,1.8-.74l2.19,1.65-.28.84a2,2,0,0,0,2.19-.63,1.94,1.94,0,0,1-.61-1.87c-.15-.42-.7-.47-1.1-.64a2.64,2.64,0,0,1-1.32-2.34,9.3,9.3,0,0,1,2.56,2.4,3.64,3.64,0,0,0,2.28.16c.34-.08.8-.16.94.16l-1.37.27v.58a2.17,2.17,0,0,1,1,.22.76.76,0,0,1,.39.85l-.82-.55-.28.27,1.1,1.37-.27.55-.85-.56-1.05.82a1.36,1.36,0,0,0-1.89,0c.1-.1-2.06-1.26-1.17-1.94a1,1,0,0,1-.78-.78,1,1,0,0,1-1.07.16,4.27,4.27,0,0,0,1.58,2.32c-.15.37-.71.08-1.1.15-.85.13-.55,1.72-1.35,2a.61.61,0,0,0-.57-.05.86.86,0,0,1-.53,1.09,2.47,2.47,0,0,1-1.35,0l.43.48a2.76,2.76,0,0,1-2,0c-.05.33.33.54.63.66a5,5,0,0,1,2,1.45,2.71,2.71,0,0,1,.56,2.36l-3.87-.39c-.59-.06-1.32-.05-1.61.46a2.81,2.81,0,0,1,.31,2.56,2,2,0,0,0-.18.53.9.9,0,0,0,.71,1v1.13a2.49,2.49,0,0,1,2.73,1.1,7.42,7.42,0,0,1,3.29-.58,2.13,2.13,0,0,1,1.37-1.64l-.84-.83a4.13,4.13,0,0,1,2.21-2.16l-.56-1,1.44,0c1.09,0,1.95-.67,2.95-.67l1.37,1.37,1.64,1.09,1.64.55,1.1.82.27.82v.55l.55.55.27-1.1-.82-.82v-.55l1.1.55.27-.27-1.64-.83-.82-.54-.82-.55-1.1-.82-1.37-.82-.27-.83.55-.27.54.55h.28l1.37,1.09.82.28,1.09.55,1.1.82.55,1.37,1.09.82c.45.34,1,.57,1.13,1.13a1.76,1.76,0,0,0,1,1.21c.81.19.62-.74.72-1.42a.41.41,0,0,0,0-.19c0-.15-.22-.21-.37-.26a2.71,2.71,0,0,1-1.59-1.54l.68.21.09-.5c0,.35,2.12,0,2.31,0-.41.15-1.38-1.58-1.51-1.86a7.72,7.72,0,0,1-.5-2.57,1.85,1.85,0,0,1,1.57.34,6.89,6.89,0,0,1,.4.64.55.55,0,0,0,.64.24.45.45,0,0,0,.17-.56.88.88,0,0,0-.46-.43.83.83,0,0,1-.27-.17.42.42,0,0,1,.26-.64.6.6,0,0,1,.64.43,5,5,0,0,1,.11.56c.18.6.88.82,1.46,1.06a4.19,4.19,0,0,1,2.33,2c.06.13.11.3,0,.41s-.27.08-.41,0a8.51,8.51,0,0,0-2.42-.56h-1.1v.82h-.55v.55h-.82l-.55.28.83,1.09,1.36,1.64,1.1.55.55.28.27-.28,1.1.28h.54l.28-.55,1.09.55.55,2.19.55,1.91v.55H7621c-.91-.3-1-.08-1.68.6l-3.73-1.75a3.42,3.42,0,0,0-1.18-.39,1.15,1.15,0,0,0-1.09.48,1.91,1.91,0,0,1-.25,2.13,8.84,8.84,0,0,1-3.09-1.8,4,4,0,0,0-.93-.71,4.39,4.39,0,0,0-1.31-.23,5.06,5.06,0,0,1-2.33-.93c.39-.33.27-.95.08-1.43s-.4-1-.12-1.46l-.8.29,0-.59a9.91,9.91,0,0,1-2.24.17c-.45,0-1,0-1.25.36a7.4,7.4,0,0,0-4.44.29,16.36,16.36,0,0,1-1.75.7c-1.1.29-1.88-.46-2.9-.38-.16,0-.86,1.5-1.21,1.73-.8.52-1.34.77-1.58,1.82a5.62,5.62,0,0,1-.86,2.64,10.16,10.16,0,0,1-2,1.24,5.87,5.87,0,0,0-1.24,1.34c-1.58,2.11-3.25,4.64-2.54,7.17a7.58,7.58,0,0,1,.54,2,5.62,5.62,0,0,1-.54,1.84,7.69,7.69,0,0,0-.35,4.09c2.5.9,3.05,4.19,4.86,6.14,2.13,2.27,5.64,2.38,8.75,2.34a11.41,11.41,0,0,0,3.69-.46c1.1-.39,2.16-1.12,3.32-.95s1.89,1.12,2.77,1.81a2.46,2.46,0,0,0,3,.39l-.35,1.06a.75.75,0,0,1,1,.29,1.54,1.54,0,0,1,.13,1.08c-.21,1.25-1.08,2.38-.94,3.64s1,2,1.65,3c1.35,2.08,1.38,4.73,1.34,7.22a4.15,4.15,0,0,1-.4,2c-.38.62-1.08,1-1.5,1.58a4.08,4.08,0,0,0-.62,2.25c-.13,2.45.22,4.89.09,7.34s-.21,4.9-.14,7.35c0,1-.62,1.41-.93,2.34l.55.27.27.28,2.2-.55,3.28-.55,3.56-2.74,1.92-1.91a46.74,46.74,0,0,0,3.28-3.84c0-.27,1.1-4.65,1.1-4.65l2.74-2.47,2.19-1.37.82-4.65v-3.29l.55-.82-.28-1.64,2.74-7.12,1.92-4.11.55-3v-5.75Zm-12.19-31.08-1.92-1.64-.54-1.37,1.37,1.1,1.64,1.64,1.09,1.37,1.37,1.64,1.1,1.37.27.55h-.54l-.83-.82-1.09-1.37a1.32,1.32,0,0,0-.28-.82Zm5.75,46h-.55v-1.37l.52-1.29,0-.08.55.82Z" transform="translate(-6696.12 -6884)"/><path class="cls-9" d="M7633,7185.3l-1.1,1.65-1.09,1.91-1.1,1.1-.55,2.19-.82,1.09-.82,1.65-1.37,2.74.55.27,1.09-1.1,1.37-2.46a26.7,26.7,0,0,1,1.37-2.74,34.39,34.39,0,0,0,1.64-3.28l.83-3" transform="translate(-6696.12 -6884)"/><polygon class="cls-9" points="905.95 244.07 906.22 244.89 906.22 245.44 905.67 244.89 905.4 244.34 905.95 244.07"/><polygon class="cls-9" points="906.49 245.44 907.04 246.26 907.32 247.08 906.77 247.36 906.49 247.63 906.22 246.81 905.67 245.99 905.95 245.72 906.49 245.44"/><polygon class="cls-9" points="909.78 248.18 911.42 248.18 911.7 248.45 911.7 248.73 911.97 249.28 911.97 249.55 911.42 249.55 910.6 249 909.78 248.73 909.78 248.18"/><path class="cls-9" d="M7521.17,7135.78a32.61,32.61,0,0,0-1.52,3.84,17.86,17.86,0,0,0-1.54,5.63c-.15,2,1,3.89,1.92,5.55a7.62,7.62,0,0,1,.83,1.9c.19.8.12,1.63.24,2.44a5.19,5.19,0,0,0,2,3.53,3.23,3.23,0,0,0,.6-1h.55l.28,2.73c.18,1.85-.36,2.83-1.37,4.36a10.29,10.29,0,0,0-1.35,7,29.8,29.8,0,0,0,2.11,7,16.59,16.59,0,0,0,1.73,3.54c.93,1.33,2.22,2.36,3.2,3.65,1.85,2.47,2.38,5.65,3.1,8.65a57.48,57.48,0,0,0,7.38,17.41c1.78,2.8,3.88,5.27,7.13,6.35a5.8,5.8,0,0,0-2-2,.89.89,0,0,1-.42-.39c-.17-.4.32-.78.39-1.21.18-1.24-2-1.11-1.94-2.41a6.84,6.84,0,0,1,.36-1.14,1.71,1.71,0,0,0-1.17-2l1.55-.44-.23-1,1.52-.39a1.23,1.23,0,0,0,.75-.4c.26-.37,0-.88-.13-1.29s-.26-1,.13-1.24a1.18,1.18,0,0,1,.49-.12c1.71-.29,2.68-3.2,3.2-4.6.14-.39.7-4.25.3-4.11l5.12-1.73c.53-.19,1.14-.44,1.31-1,.11-.37,0-.81.22-1.13s.7-.34,1-.6a1.53,1.53,0,0,0,.37-1.2q.06-3.12-.17-6.24a5,5,0,0,0,3.4-3,7.82,7.82,0,0,0,.72-5.1c-1.79.42-3.13-1.56-4.75-2.41a13.64,13.64,0,0,0-2.81-.86,13.07,13.07,0,0,1-7.71-6.81c-.57-1.1-1.11-2.36-2.23-2.91-.86-.42-1.89-.31-2.78-.66-1.91-.73-2.51-3.08-3.79-4.67a2.25,2.25,0,0,0-1-.77,3.93,3.93,0,0,0-1.53,0,4.42,4.42,0,0,1-3.87-1.94l-1.33.86a1.78,1.78,0,0,1,.47-1.32c-1.91-.25-2.94,2.18-4.55,3.24l-.84-1.13-1.47.8a16,16,0,0,1,.13-8.1c-.42,0-1.55.39-1.75-.13-.41-1,.17-1.76.8-2.5a8.72,8.72,0,0,0,1.71-3.24l-1.9.56-.82,1.92-.82.27-.28-1.64,1.1-3.56,1.64-2.47.82-1.64,1.92-1.64.28.82,1.36-1.1c.72.09,2,0,2.17.63s-.35,1.56-.58,2.19-1.06,2.11-.9,2.95a2.66,2.66,0,0,0,1.71-1.89c.28-.85.34-1.75.65-2.59,1.29-3.51,6-4.58,8.75-6.53a1.81,1.81,0,0,0,.74-.81,7,7,0,0,0,.05-1.21,1.83,1.83,0,0,1,1.11-1.27c.54-.25,1.12-.36,1.67-.59,1.54-.64,2.76-2.19,4.43-2.19l-.7,1a34.31,34.31,0,0,0,4.23-1,1.42,1.42,0,0,0,.73-.4.51.51,0,0,0,0-.74.74.74,0,0,0-.49-.05l-1.58.18a1.36,1.36,0,0,1,1.1-1.63,1.84,1.84,0,0,0-2.32.06,2.31,2.31,0,0,1,3-.72,1.4,1.4,0,0,0,.59.28,1.23,1.23,0,0,0,.46-.1,9.09,9.09,0,0,1,2.77-.55l-2.28,2.12a4.75,4.75,0,0,1,1.88.05,1.76,1.76,0,0,1,1.29,1.26,2.08,2.08,0,0,0,.86-1.58c0-.33-.26-1.45-.78-1.34a12,12,0,0,0,2.39-1.11l3-1.32a1.61,1.61,0,0,0,.47-.29c.51-.52.09-1.53.13-2.18a3.62,3.62,0,0,0-2.25,1.1,1.86,1.86,0,0,1-.53.44,1.46,1.46,0,0,1-.59.08l-1.65,0a.24.24,0,0,1-.17,0,.21.21,0,0,1-.05-.2,3.9,3.9,0,0,1,.74-2.11c.16-.23.36-.49.29-.76a.65.65,0,0,0-.74-.37,5.87,5.87,0,0,0-1.62.47l.81-1.09c.36-.49-1.26-.86-1.49-.82a4.73,4.73,0,0,0-1.51.82l-1.92,1.09-1.92,1.92h-1.64l-1.37,1.92-.82-.28,1.91-1.91-.54-.28.82-1.92,2.46-1.36,3-1.1,1.91.27.82-.27,1.1.82.82,1.37,1.64-1.09.83-1.37.54.54,2.19-.82-.54-1.09,1.64-1.37-1.64-.82h-2.81A62.52,62.52,0,0,0,7521.17,7135.78Z" transform="translate(-6696.12 -6884)"/><polygon class="cls-9" points="872.95 222.57 870.21 226.96 869.12 229.42 870.49 230.52 874.59 227.5 880.89 226.41 882.81 225.04 884.18 222.57 878.7 221.75 872.95 222.57"/><text class="cls-7" transform="translate(759.29 392.51)"><tspan class="cls-10">W</tspan><tspan x="45.12" y="0">ebsite B</tspan></text><circle class="cls-8" cx="878.84" cy="504.07" r="62.43"/><path class="cls-9" d="M7589.74,7337.14l.55.27-.28.83.55.27.55.55.55.54.82.55.82.55h.55s.27.55,0,.55a1,1,0,0,0-.55.27l.55.28s.27,0,0,.27a2.12,2.12,0,0,1-1.1.27h-2.46l-.55.28v-.28l.82-.82h-1.09l.54-.82-.54-.27.82-.55-.55-.28-.82-.54-.55-.55-.55-.55s.28-.27,0-.27h-.54l-.28-.55v-.55h1.64Z" transform="translate(-6696.12 -6884)"/><path class="cls-9" d="M7587.28,7338.78l-.55.28.27.54h-1.09l.27.28.27.27v1.1s0-.28.28,0,1.09,0,1.09,0l.55-.28s.55.28.55,0a6.11,6.11,0,0,0-.28-1.09s.28-.55,0-.55-.82-.55-.82-.55Z" transform="translate(-6696.12 -6884)"/><path class="cls-9" d="M7578.51,7333.31l.82.27.83.27h.54s0-.27.55-.27a2.89,2.89,0,0,1,1.1.27s.54,0,.54-.27V7333a.59.59,0,0,0-.54-.55c-.28,0-.55-.27-.83-.27h-2.46a.26.26,0,0,0-.27-.27,2.8,2.8,0,0,0-.83.27s-.27-.27-.27,0S7578.51,7333.31,7578.51,7333.31Z" transform="translate(-6696.12 -6884)"/><path class="cls-9" d="M7633.83,7380.13c-.82.41-1,.71-1.45-.21s-.61-1.77-1.1-2.58-1.11-1.37-1.51-2.16c-.51-1-.61-2.27-1.49-3a1.9,1.9,0,0,1-.52-.45,1.7,1.7,0,0,1-.13-.75,5.44,5.44,0,0,0-.95-2.28c-1.18-1.94-2.35-3.93-3.58-5.81a2.25,2.25,0,0,1,.59-.32c.28-.09,2.64,3.53,2.92,3.91a7.3,7.3,0,0,1,.83,1.32c.24.52.34,1.1.59,1.61a7.28,7.28,0,0,0,.7,1,19,19,0,0,1,1.7,2.75,20.94,20.94,0,0,1,1.74,5.53l1.1-.55a3.68,3.68,0,0,0,0-.82c0-.35.58-.86.75-1.13a2.31,2.31,0,0,0,.48-1.8,1.12,1.12,0,0,1-.06-.44,1.09,1.09,0,0,1,.26-.42,2.31,2.31,0,0,0,.24-1.64,23.2,23.2,0,0,0-2.77-7.72c.17.32,0,2.14-.55,1.53a.9.9,0,0,1-.19-.53,5.1,5.1,0,0,0-1.61-2.31,3.29,3.29,0,0,1-1.2-2.48c.38.43.73.88,1.09,1.33l1.37,1.36.55.55v-.55l1.09,1.37-.12-.43a62.65,62.65,0,0,0-23.94-28.57l-3.21-1.93c-1.05-.63-2.16-1.13-3.24-1.69a4.15,4.15,0,0,0-2.76-.31c-2.19.23-4.26-.95-6.43-1.31l-.28.84a1.13,1.13,0,0,0-.81-.06c.05.56.74.84,1,1.37a1.56,1.56,0,0,1,.06.86,10.36,10.36,0,0,0-.14,2.22,2.27,2.27,0,0,0,1.13,1.82,1.3,1.3,0,0,0,1.8-.74l2.19,1.65-.28.84a2,2,0,0,0,2.19-.63,1.94,1.94,0,0,1-.61-1.87c-.15-.42-.7-.47-1.1-.64a2.65,2.65,0,0,1-1.32-2.35,9.49,9.49,0,0,1,2.56,2.41,3.64,3.64,0,0,0,2.28.16c.34-.08.8-.16.94.16l-1.37.27v.58a2.17,2.17,0,0,1,1,.22.76.76,0,0,1,.39.85l-.82-.55-.27.27,1.09,1.37-.27.55-.85-.56-1.05.82a1.36,1.36,0,0,0-1.89,0c.1-.1-2.06-1.26-1.17-1.94a1,1,0,0,1-.78-.78,1,1,0,0,1-1.07.16,4.27,4.27,0,0,0,1.58,2.32c-.15.37-.71.08-1.1.15-.85.13-.55,1.72-1.35,2a.61.61,0,0,0-.57-.05.86.86,0,0,1-.53,1.09,2.57,2.57,0,0,1-1.35,0l.43.48a2.82,2.82,0,0,1-2,0c-.05.33.33.53.64.66a5,5,0,0,1,2,1.45,2.71,2.71,0,0,1,.56,2.36l-3.87-.39c-.59-.06-1.32,0-1.61.46a2.8,2.8,0,0,1,.31,2.56,2,2,0,0,0-.18.53.9.9,0,0,0,.71,1v1.13a2.49,2.49,0,0,1,2.73,1.1,7.42,7.42,0,0,1,3.29-.58,2.13,2.13,0,0,1,1.37-1.64l-.84-.83a4.13,4.13,0,0,1,2.21-2.16l-.56-1,1.44,0c1.09,0,1.95-.67,2.95-.67l1.37,1.36,1.64,1.1,1.64.55,1.1.82.27.82v.55l.55.55.27-1.1-.82-.82v-.55l1.1.55.27-.27-1.64-.83-.82-.54-.82-.55-1.1-.82-1.37-.82-.27-.83.55-.27.54.55h.28l1.37,1.09.82.28,1.09.54,1.1.83.55,1.37,1.09.82c.45.34,1,.56,1.13,1.13a1.78,1.78,0,0,0,1,1.21c.81.19.62-.74.72-1.42a.41.41,0,0,0,0-.19c0-.15-.22-.21-.37-.26a2.71,2.71,0,0,1-1.59-1.54l.68.21.09-.5c0,.35,2.12,0,2.31,0-.41.14-1.38-1.58-1.51-1.86a7.72,7.72,0,0,1-.5-2.57,1.81,1.81,0,0,1,1.57.34c.17.19.25.43.4.63a.55.55,0,0,0,.64.25.45.45,0,0,0,.17-.56.94.94,0,0,0-.46-.44.67.67,0,0,1-.27-.16.42.42,0,0,1,.26-.64.62.62,0,0,1,.65.43c.06.18.05.37.1.56.18.59.88.82,1.46,1a4.24,4.24,0,0,1,2.33,2c.06.13.11.3,0,.41s-.27.08-.41,0a8.51,8.51,0,0,0-2.42-.56h-1.1v.82h-.55v.55h-.82l-.55.28.83,1.09,1.36,1.64,1.1.55.55.28.27-.28,1.1.28h.54l.28-.55,1.09.55.55,2.19.55,1.91v.55H7621c-.91-.3-1-.08-1.68.6l-3.73-1.75a3.42,3.42,0,0,0-1.18-.39,1.15,1.15,0,0,0-1.09.48,1.91,1.91,0,0,1-.25,2.13,8.84,8.84,0,0,1-3.09-1.8,3.76,3.76,0,0,0-.93-.71,4.39,4.39,0,0,0-1.31-.23,5.06,5.06,0,0,1-2.33-.93c.39-.33.27-.95.08-1.43s-.4-1-.12-1.46l-.8.29,0-.59a10.52,10.52,0,0,1-2.24.17c-.45,0-1,0-1.25.36a7.4,7.4,0,0,0-4.44.29,16.36,16.36,0,0,1-1.75.7c-1.1.29-1.88-.46-2.9-.38-.16,0-.86,1.5-1.21,1.73-.8.52-1.34.77-1.58,1.82a5.62,5.62,0,0,1-.86,2.64,10.16,10.16,0,0,1-2,1.24,5.87,5.87,0,0,0-1.24,1.34c-1.58,2.11-3.25,4.64-2.54,7.17a7.58,7.58,0,0,1,.54,2,5.5,5.5,0,0,1-.54,1.83,7.7,7.7,0,0,0-.35,4.09c2.5.91,3.05,4.2,4.86,6.14,2.13,2.28,5.64,2.39,8.75,2.35a11.41,11.41,0,0,0,3.69-.46c1.1-.39,2.16-1.12,3.32-.95s1.89,1.11,2.77,1.81a2.48,2.48,0,0,0,3,.39l-.35,1.06a.74.74,0,0,1,1,.29,1.54,1.54,0,0,1,.13,1.08c-.21,1.25-1.08,2.38-.94,3.64s1,2,1.65,2.95c1.35,2.08,1.38,4.73,1.34,7.22a4.15,4.15,0,0,1-.4,2c-.38.62-1.08,1-1.5,1.58a4.08,4.08,0,0,0-.62,2.25c-.13,2.45.22,4.89.09,7.34s-.21,4.9-.14,7.35c0,1-.62,1.41-.93,2.34l.55.27.27.28,2.2-.55,3.28-.55,3.56-2.74,1.92-1.91a46.74,46.74,0,0,0,3.28-3.84c0-.27,1.1-4.65,1.1-4.65l2.74-2.47,2.19-1.37.82-4.65v-3.29l.55-.82L7630,7399l2.74-7.12,1.92-4.11.55-3V7379Zm-12.19-31.08-1.92-1.64-.54-1.37,1.37,1.09,1.64,1.65,1.09,1.37,1.37,1.64,1.1,1.37.27.55h-.54l-.83-.82-1.09-1.37a1.36,1.36,0,0,0-.28-.83Zm5.75,46h-.55v-1.37l.52-1.29,0-.08.55.82Z" transform="translate(-6696.12 -6884)"/><path class="cls-9" d="M7633,7405.87l-1.1,1.65-1.09,1.91-1.1,1.1-.55,2.19-.82,1.09-.82,1.65-1.37,2.74.55.27,1.09-1.1,1.37-2.46a26.7,26.7,0,0,1,1.37-2.74,34.39,34.39,0,0,0,1.64-3.28l.83-3" transform="translate(-6696.12 -6884)"/><polygon class="cls-9" points="905.95 464.64 906.22 465.46 906.22 466.01 905.67 465.46 905.4 464.92 905.95 464.64"/><polygon class="cls-9" points="906.49 466.01 907.04 466.83 907.32 467.65 906.77 467.93 906.49 468.2 906.22 467.38 905.67 466.56 905.95 466.28 906.49 466.01"/><polygon class="cls-9" points="909.78 468.75 911.42 468.75 911.7 469.02 911.7 469.3 911.97 469.84 911.97 470.12 911.42 470.12 910.6 469.57 909.78 469.3 909.78 468.75"/><path class="cls-9" d="M7521.17,7356.35a32.61,32.61,0,0,0-1.52,3.84,17.86,17.86,0,0,0-1.54,5.63c-.15,2,1,3.89,1.92,5.55a7.62,7.62,0,0,1,.83,1.9c.19.8.12,1.63.24,2.44a5.19,5.19,0,0,0,2,3.53,3.23,3.23,0,0,0,.6-1h.55l.28,2.73c.18,1.85-.36,2.83-1.37,4.36a10.29,10.29,0,0,0-1.35,7,29.58,29.58,0,0,0,2.11,7,16.44,16.44,0,0,0,1.73,3.55c.93,1.33,2.22,2.36,3.2,3.65,1.85,2.47,2.38,5.65,3.1,8.65a57.48,57.48,0,0,0,7.38,17.41c1.78,2.8,3.88,5.27,7.13,6.35a5.8,5.8,0,0,0-2-2,.89.89,0,0,1-.42-.39c-.17-.4.32-.78.39-1.21.18-1.24-2-1.11-1.94-2.41a6.84,6.84,0,0,1,.36-1.14,1.72,1.72,0,0,0-1.17-2l1.55-.43-.23-1,1.52-.39a1.23,1.23,0,0,0,.75-.4c.26-.37,0-.88-.13-1.3s-.26-1,.13-1.23a1.37,1.37,0,0,1,.49-.13c1.71-.28,2.68-3.19,3.2-4.59.14-.39.7-4.25.3-4.11l5.12-1.73c.53-.19,1.14-.44,1.31-1,.11-.36,0-.81.22-1.12s.7-.34,1-.6a1.53,1.53,0,0,0,.37-1.2q.06-3.12-.17-6.24a5,5,0,0,0,3.4-3,7.83,7.83,0,0,0,.72-5.1c-1.79.42-3.13-1.56-4.75-2.42a14.25,14.25,0,0,0-2.81-.85,13.07,13.07,0,0,1-7.71-6.81c-.57-1.1-1.11-2.36-2.23-2.91-.86-.42-1.89-.32-2.78-.66-1.91-.73-2.51-3.08-3.79-4.67a2.2,2.2,0,0,0-1-.77,3.93,3.93,0,0,0-1.53,0,4.42,4.42,0,0,1-3.87-1.94l-1.33.86a1.78,1.78,0,0,1,.47-1.32c-1.91-.26-2.94,2.18-4.55,3.24l-.84-1.13-1.47.8a16,16,0,0,1,.13-8.1c-.42,0-1.55.39-1.75-.13-.41-1.05.17-1.76.8-2.51a8.6,8.6,0,0,0,1.71-3.23l-1.9.56-.82,1.92-.82.27-.27-1.64,1.09-3.56,1.64-2.47.82-1.64,1.92-1.64.28.82,1.36-1.1c.72.09,2,0,2.17.63s-.35,1.56-.58,2.19-1.06,2.1-.9,2.95a2.68,2.68,0,0,0,1.71-1.89c.28-.85.34-1.76.65-2.59,1.29-3.51,6-4.58,8.75-6.53a1.86,1.86,0,0,0,.74-.81,7,7,0,0,0,.05-1.21,1.83,1.83,0,0,1,1.11-1.27c.54-.25,1.12-.36,1.67-.59,1.54-.64,2.76-2.19,4.43-2.19l-.7,1a34.31,34.31,0,0,0,4.23-1,1.42,1.42,0,0,0,.73-.4.51.51,0,0,0,0-.74.74.74,0,0,0-.49,0l-1.58.18a1.36,1.36,0,0,1,1.1-1.63,1.84,1.84,0,0,0-2.32.06,2.31,2.31,0,0,1,3-.72,1.4,1.4,0,0,0,.59.28,1.07,1.07,0,0,0,.46-.11,9.39,9.39,0,0,1,2.77-.54l-2.28,2.12a4.75,4.75,0,0,1,1.88.05,1.76,1.76,0,0,1,1.29,1.26,2.08,2.08,0,0,0,.86-1.58c0-.33-.26-1.45-.78-1.34a12,12,0,0,0,2.39-1.11l3-1.32a1.61,1.61,0,0,0,.47-.29c.51-.52.09-1.53.13-2.18a3.62,3.62,0,0,0-2.25,1.1,1.86,1.86,0,0,1-.53.44,1.3,1.3,0,0,1-.59.07h-1.65a.24.24,0,0,1-.17,0,.21.21,0,0,1-.05-.2,3.9,3.9,0,0,1,.74-2.11c.16-.23.36-.49.29-.76a.65.65,0,0,0-.74-.37,5.87,5.87,0,0,0-1.62.47l.81-1.09c.36-.49-1.26-.86-1.49-.82a4.73,4.73,0,0,0-1.51.82l-1.92,1.09-1.92,1.92h-1.64l-1.37,1.92-.82-.28,1.91-1.92-.54-.27.82-1.92,2.46-1.37,3-1.09,1.91.27.82-.27,1.1.82.82,1.37,1.64-1.1.83-1.36.54.54,2.19-.82-.54-1.09,1.64-1.37-1.64-.82h-2.81A62.52,62.52,0,0,0,7521.17,7356.35Z" transform="translate(-6696.12 -6884)"/><polygon class="cls-9" points="872.95 443.14 870.21 447.53 869.12 449.99 870.49 451.09 874.59 448.07 880.89 446.98 882.81 445.61 884.18 443.14 878.7 442.32 872.95 443.14"/><text class="cls-7" transform="translate(758.99 613.08)"><tspan class="cls-10">W</tspan><tspan x="45.12" y="0">ebsite C</tspan></text></svg>