<?xml version="1.0" encoding="UTF-8" standalone="no"?>
<svg width="206pt" height="264pt" viewBox="0.00 0.00 206.00 264.00" xmlns="http://www.w3.org/2000/svg" xmlns:xlink="http://www.w3.org/1999/xlink">
    <g id="graph0" class="graph" transform="scale(1 1) rotate(0) translate(4 260)">
        <polygon fill="#ffffff" stroke="transparent" points="-4,4 -4,-260 202,-260 202,4 -4,4"></polygon>
        <!-- hash -->
        <g id="node1" class="node">
            <polygon fill="none" stroke="#000000" points="60,-219.5 60,-255.5 138,-255.5 138,-219.5 60,-219.5"></polygon>
            <text text-anchor="middle" x="73" y="-233.8" fill="#000000">0</text>
            <polyline fill="none" stroke="#000000" points="86,-219.5 86,-255.5 "></polyline>
            <text text-anchor="middle" x="99" y="-233.8" fill="#000000">1</text>
            <polyline fill="none" stroke="#000000" points="112,-219.5 112,-255.5 "></polyline>
            <text text-anchor="middle" x="125" y="-233.8" fill="#000000">2</text>
        </g>
        <!-- 0 -->
        <g id="node2" class="node">
            <polygon fill="none" stroke="#000000" points="0,-146.5 0,-182.5 54,-182.5 54,-146.5 0,-146.5"></polygon>
            <text text-anchor="middle" x="27" y="-160.8" fill="#000000">0</text>
        </g>
        <!-- hash&#45;&gt;0 -->
        <g id="edge1" class="edge">
            <path fill="none" stroke="#000000" d="M66,-219.3315C66,-197.566 66,-164 66,-164 66,-164 64.0868,-164 64.0868,-164"></path>
            <polygon fill="#000000" stroke="#000000" points="64.0868,-160.5001 54.0868,-164 64.0868,-167.5001 64.0868,-160.5001"></polygon>
        </g>
        <!-- 1 -->
        <g id="node5" class="node">
            <polygon fill="none" stroke="#000000" points="72,-146.5 72,-182.5 126,-182.5 126,-146.5 72,-146.5"></polygon>
            <text text-anchor="middle" x="99" y="-160.8" fill="#000000">1</text>
        </g>
        <!-- hash&#45;&gt;1 -->
        <g id="edge4" class="edge">
            <path fill="none" stroke="#000000" d="M99,-219.4551C99,-219.4551 99,-192.5904 99,-192.5904"></path>
            <polygon fill="#000000" stroke="#000000" points="102.5001,-192.5903 99,-182.5904 95.5001,-192.5904 102.5001,-192.5903"></polygon>
        </g>
        <!-- 2 -->
        <g id="node8" class="node">
            <polygon fill="none" stroke="#000000" points="144,-146.5 144,-182.5 198,-182.5 198,-146.5 144,-146.5"></polygon>
            <text text-anchor="middle" x="171" y="-160.8" fill="#000000">2</text>
        </g>
        <!-- hash&#45;&gt;2 -->
        <g id="edge7" class="edge">
            <path fill="none" stroke="#000000" d="M132,-219.3315C132,-197.566 132,-164 132,-164 132,-164 133.9132,-164 133.9132,-164"></path>
            <polygon fill="#000000" stroke="#000000" points="133.9132,-167.5001 143.9132,-164 133.9132,-160.5001 133.9132,-167.5001"></polygon>
        </g>
        <!-- 3 -->
        <g id="node3" class="node">
            <polygon fill="none" stroke="#000000" points="0,-73.5 0,-109.5 54,-109.5 54,-73.5 0,-73.5"></polygon>
            <text text-anchor="middle" x="27" y="-87.8" fill="#000000">3</text>
        </g>
        <!-- 0&#45;&gt;3 -->
        <g id="edge2" class="edge">
            <path fill="none" stroke="#000000" d="M27,-146.4551C27,-146.4551 27,-119.5904 27,-119.5904"></path>
            <polygon fill="#000000" stroke="#000000" points="30.5001,-119.5903 27,-109.5904 23.5001,-119.5904 30.5001,-119.5903"></polygon>
        </g>
        <!-- 6 -->
        <g id="node4" class="node">
            <polygon fill="none" stroke="#000000" points="0,-.5 0,-36.5 54,-36.5 54,-.5 0,-.5"></polygon>
            <text text-anchor="middle" x="27" y="-14.8" fill="#000000">6</text>
        </g>
        <!-- 3&#45;&gt;6 -->
        <g id="edge3" class="edge">
            <path fill="none" stroke="#000000" d="M27,-73.4551C27,-73.4551 27,-46.5904 27,-46.5904"></path>
            <polygon fill="#000000" stroke="#000000" points="30.5001,-46.5903 27,-36.5904 23.5001,-46.5904 30.5001,-46.5903"></polygon>
        </g>
        <!-- 4 -->
        <g id="node6" class="node">
            <polygon fill="none" stroke="#000000" points="72,-73.5 72,-109.5 126,-109.5 126,-73.5 72,-73.5"></polygon>
            <text text-anchor="middle" x="99" y="-87.8" fill="#000000">4</text>
        </g>
        <!-- 1&#45;&gt;4 -->
        <g id="edge5" class="edge">
            <path fill="none" stroke="#000000" d="M99,-146.4551C99,-146.4551 99,-119.5904 99,-119.5904"></path>
            <polygon fill="#000000" stroke="#000000" points="102.5001,-119.5903 99,-109.5904 95.5001,-119.5904 102.5001,-119.5903"></polygon>
        </g>
        <!-- 7 -->
        <g id="node7" class="node">
            <polygon fill="none" stroke="#000000" points="72,-.5 72,-36.5 126,-36.5 126,-.5 72,-.5"></polygon>
            <text text-anchor="middle" x="99" y="-14.8" fill="#000000">7</text>
        </g>
        <!-- 4&#45;&gt;7 -->
        <g id="edge6" class="edge">
            <path fill="none" stroke="#000000" d="M99,-73.4551C99,-73.4551 99,-46.5904 99,-46.5904"></path>
            <polygon fill="#000000" stroke="#000000" points="102.5001,-46.5903 99,-36.5904 95.5001,-46.5904 102.5001,-46.5903"></polygon>
        </g>
        <!-- 5 -->
        <g id="node9" class="node">
            <polygon fill="none" stroke="#000000" points="144,-73.5 144,-109.5 198,-109.5 198,-73.5 144,-73.5"></polygon>
            <text text-anchor="middle" x="171" y="-87.8" fill="#000000">5</text>
        </g>
        <!-- 2&#45;&gt;5 -->
        <g id="edge8" class="edge">
            <path fill="none" stroke="#000000" d="M171,-146.4551C171,-146.4551 171,-119.5904 171,-119.5904"></path>
            <polygon fill="#000000" stroke="#000000" points="174.5001,-119.5903 171,-109.5904 167.5001,-119.5904 174.5001,-119.5903"></polygon>
        </g>
        <!-- 8 -->
        <g id="node10" class="node">
            <polygon fill="none" stroke="#000000" points="144,-.5 144,-36.5 198,-36.5 198,-.5 144,-.5"></polygon>
            <text text-anchor="middle" x="171" y="-14.8" fill="#000000">8</text>
        </g>
        <!-- 5&#45;&gt;8 -->
        <g id="edge9" class="edge">
            <path fill="none" stroke="#000000" d="M171,-73.4551C171,-73.4551 171,-46.5904 171,-46.5904"></path>
            <polygon fill="#000000" stroke="#000000" points="174.5001,-46.5903 171,-36.5904 167.5001,-46.5904 174.5001,-46.5903"></polygon>
        </g>
    </g>
</svg>