<?xml version="1.0" encoding="UTF-8" standalone="no"?>
<svg width="256pt" height="191pt" viewBox="0.00 0.00 255.50 191.00" xmlns="http://www.w3.org/2000/svg" xmlns:xlink="http://www.w3.org/1999/xlink">
    <g id="graph0" class="graph" transform="scale(1 1) rotate(0) translate(4 187)">
        <polygon fill="#ffffff" stroke="transparent" points="-4,4 -4,-187 251.5,-187 251.5,4 -4,4"></polygon>
        <!-- hash -->
        <g id="node1" class="node">
            <polygon fill="none" stroke="#000000" points="65.5,-146.5 65.5,-182.5 143.5,-182.5 143.5,-146.5 65.5,-146.5"></polygon>
            <text text-anchor="middle" x="78.5" y="-160.8" fill="#000000">A</text>
            <polyline fill="none" stroke="#000000" points="91.5,-146.5 91.5,-182.5 "></polyline>
            <text text-anchor="middle" x="104.5" y="-160.8" fill="#000000">B</text>
            <polyline fill="none" stroke="#000000" points="117.5,-146.5 117.5,-182.5 "></polyline>
            <text text-anchor="middle" x="130.5" y="-160.8" fill="#000000">C</text>
        </g>
        <!-- adam -->
        <g id="node2" class="node">
            <polygon fill="none" stroke="#000000" points="0,-73.5 0,-109.5 59,-109.5 59,-73.5 0,-73.5"></polygon>
            <text text-anchor="middle" x="29.5" y="-87.8" fill="#000000">Adam</text>
        </g>
        <!-- hash&#45;&gt;adam -->
        <g id="edge1" class="edge">
            <path fill="none" stroke="#000000" d="M70.5,-146.3315C70.5,-124.566 70.5,-91 70.5,-91 70.5,-91 69.2966,-91 69.2966,-91"></path>
            <polygon fill="#000000" stroke="#000000" points="69.2966,-87.5001 59.2966,-91 69.2965,-94.5001 69.2966,-87.5001"></polygon>
        </g>
        <!-- bart -->
        <g id="node4" class="node">
            <polygon fill="none" stroke="#000000" points="77.5,-73.5 77.5,-109.5 131.5,-109.5 131.5,-73.5 77.5,-73.5"></polygon>
            <text text-anchor="middle" x="104.5" y="-87.8" fill="#000000">Bart</text>
        </g>
        <!-- hash&#45;&gt;bart -->
        <g id="edge3" class="edge">
            <path fill="none" stroke="#000000" d="M104.5,-146.4551C104.5,-146.4551 104.5,-119.5904 104.5,-119.5904"></path>
            <polygon fill="#000000" stroke="#000000" points="108.0001,-119.5903 104.5,-109.5904 101.0001,-119.5904 108.0001,-119.5903"></polygon>
        </g>
        <!-- christina -->
        <g id="node6" class="node">
            <polygon fill="none" stroke="#000000" points="152.5,-73.5 152.5,-109.5 232.5,-109.5 232.5,-73.5 152.5,-73.5"></polygon>
            <text text-anchor="middle" x="192.5" y="-87.8" fill="#000000">Christina</text>
        </g>
        <!-- hash&#45;&gt;christina -->
        <g id="edge5" class="edge">
            <path fill="none" stroke="#000000" d="M137.5,-146.3315C137.5,-124.566 137.5,-91 137.5,-91 137.5,-91 142.239,-91 142.239,-91"></path>
            <polygon fill="#000000" stroke="#000000" points="142.239,-94.5001 152.239,-91 142.239,-87.5001 142.239,-94.5001"></polygon>
        </g>
        <!-- anna -->
        <g id="node3" class="node">
            <polygon fill="none" stroke="#000000" points="2.5,-.5 2.5,-36.5 56.5,-36.5 56.5,-.5 2.5,-.5"></polygon>
            <text text-anchor="middle" x="29.5" y="-14.8" fill="#000000">Anna</text>
        </g>
        <!-- adam&#45;&gt;anna -->
        <g id="edge2" class="edge">
            <path fill="none" stroke="#000000" d="M29.5,-73.4551C29.5,-73.4551 29.5,-46.5904 29.5,-46.5904"></path>
            <polygon fill="#000000" stroke="#000000" points="33.0001,-46.5903 29.5,-36.5904 26.0001,-46.5904 33.0001,-46.5903"></polygon>
        </g>
        <!-- beth -->
        <g id="node5" class="node">
            <polygon fill="none" stroke="#000000" points="75.5,-.5 75.5,-36.5 129.5,-36.5 129.5,-.5 75.5,-.5"></polygon>
            <text text-anchor="middle" x="102.5" y="-14.8" fill="#000000">Beth</text>
        </g>
        <!-- bart&#45;&gt;beth -->
        <g id="edge4" class="edge">
            <path fill="none" stroke="#000000" d="M103.5,-73.4551C103.5,-73.4551 103.5,-46.5904 103.5,-46.5904"></path>
            <polygon fill="#000000" stroke="#000000" points="107.0001,-46.5903 103.5,-36.5904 100.0001,-46.5904 107.0001,-46.5903"></polygon>
        </g>
        <!-- christopher -->
        <g id="node7" class="node">
            <polygon fill="none" stroke="#000000" points="147.5,-.5 147.5,-36.5 247.5,-36.5 247.5,-.5 147.5,-.5"></polygon>
            <text text-anchor="middle" x="197.5" y="-14.8" fill="#000000">Christopher</text>
        </g>
        <!-- christina&#45;&gt;christopher -->
        <g id="edge6" class="edge">
            <path fill="none" stroke="#000000" d="M192.5,-73.4551C192.5,-73.4551 192.5,-46.5904 192.5,-46.5904"></path>
            <polygon fill="#000000" stroke="#000000" points="196.0001,-46.5903 192.5,-36.5904 189.0001,-46.5904 196.0001,-46.5903"></polygon>
        </g>
    </g>
</svg>