<?xml version="1.0" encoding="UTF-8" standalone="no"?>
<svg width="84pt" height="101pt" viewBox="0.00 0.00 84.00 101.00" xmlns="http://www.w3.org/2000/svg" xmlns:xlink="http://www.w3.org/1999/xlink">
    <g id="graph0" class="graph" transform="scale(1 1) rotate(0) translate(4 97)">
        <polygon fill="#ffffff" stroke="transparent" points="-4,4 -4,-97 80,-97 80,4 -4,4"></polygon>
        <!-- data -->
        <g id="node1" class="node">
            <polygon fill="none" stroke="#000000" points="0,-.5 0,-92.5 76,-92.5 76,-.5 0,-.5"></polygon>
            <text text-anchor="middle" x="11.5" y="-77.3" fill="#000000">1</text>
            <polyline fill="none" stroke="#000000" points="0,-69.5 23,-69.5 "></polyline>
            <text text-anchor="middle" x="11.5" y="-54.3" fill="#000000">2</text>
            <polyline fill="none" stroke="#000000" points="0,-46.5 23,-46.5 "></polyline>
            <text text-anchor="middle" x="11.5" y="-31.3" fill="#000000">3</text>
            <polyline fill="none" stroke="#000000" points="0,-23.5 23,-23.5 "></polyline>
            <text text-anchor="middle" x="11.5" y="-8.3" fill="#000000">4</text>
            <polyline fill="none" stroke="#000000" points="23,-.5 23,-92.5 "></polyline>
            <text text-anchor="middle" x="49.5" y="-77.3" fill="#000000">Anna</text>
            <polyline fill="none" stroke="#000000" points="23,-69.5 76,-69.5 "></polyline>
            <text text-anchor="middle" x="49.5" y="-54.3" fill="#000000">Joe</text>
            <polyline fill="none" stroke="#000000" points="23,-46.5 76,-46.5 "></polyline>
            <text text-anchor="middle" x="49.5" y="-31.3" fill="#000000">Betty</text>
            <polyline fill="none" stroke="#000000" points="23,-23.5 76,-23.5 "></polyline>
            <text text-anchor="middle" x="49.5" y="-8.3" fill="#000000">Xavier</text>
        </g>
    </g>
</svg>