<?xml version="1.0" encoding="UTF-8" standalone="no"?>
<svg
   xmlns:dc="http://purl.org/dc/elements/1.1/"
   xmlns:cc="http://creativecommons.org/ns#"
   xmlns:rdf="http://www.w3.org/1999/02/22-rdf-syntax-ns#"
   xmlns:svg="http://www.w3.org/2000/svg"
   xmlns="http://www.w3.org/2000/svg"
   xmlns:sodipodi="http://sodipodi.sourceforge.net/DTD/sodipodi-0.dtd"
   xmlns:inkscape="http://www.inkscape.org/namespaces/inkscape"
   inkscape:version="1.0 (4035a4fb49, 2020-05-01)"
   sodipodi:docname="soundcloud.svg"
   id="svg9"
   version="1.1"
   viewBox="15.583 15.334 237.51696 158.35818"
   height="400"
   width="600">
  <metadata
     id="metadata15">
    <rdf:RDF>
      <cc:Work
         rdf:about="">
        <dc:format>image/svg+xml</dc:format>
        <dc:type
           rdf:resource="http://purl.org/dc/dcmitype/StillImage" />
        <dc:title></dc:title>
      </cc:Work>
    </rdf:RDF>
  </metadata>
  <defs
     id="defs13" />
  <sodipodi:namedview
     inkscape:current-layer="svg9"
     inkscape:window-maximized="1"
     inkscape:window-y="-11"
     inkscape:window-x="-11"
     inkscape:cy="712.5"
     inkscape:cx="1250"
     inkscape:zoom="0.6044"
     showgrid="false"
     id="namedview11"
     inkscape:window-height="2066"
     inkscape:window-width="3840"
     inkscape:pageshadow="2"
     inkscape:pageopacity="0"
     guidetolerance="10"
     gridtolerance="10"
     objecttolerance="10"
     borderopacity="1"
     bordercolor="#666666"
     pagecolor="#ffffff" />
  <linearGradient
     gradientTransform="matrix(2.4254338,0,0,-2.4254338,2357.4787,4193.852)"
     y2="1663.651"
     x2="-916.59802"
     y1="1716.657"
     x1="-916.59802"
     gradientUnits="userSpaceOnUse"
     id="a">
    <stop
       id="stop2"
       stop-color="#f79810"
       offset="0" />
    <stop
       id="stop4"
       stop-color="#f8310e"
       offset="1" />
  </linearGradient>
  <path
     style="fill:url(#a);stroke-width:0.227886"
     id="path7"
     fill="url(#a)"
     d="m 24.131479,88.810935 c -0.470584,0 -0.844089,0.36393 -0.904935,0.88282 l -1.649209,12.527335 1.649209,12.31153 c 0.06085,0.5189 0.434123,0.88032 0.904935,0.88032 0.455771,0 0.826997,-0.35892 0.899693,-0.87576 v -0.003 0.003 l 1.954804,-12.31632 -1.954804,-12.529605 c -0.07042,-0.51662 -0.446201,-0.88032 -0.899693,-0.88032 z m 9.274723,-6.84455 c -0.07771,-0.53827 -0.463292,-0.9095 -0.938662,-0.9095 -0.477876,0 -0.873258,0.38331 -0.938661,0.9095 0,0.005 -2.216873,20.254705 -2.216873,20.254705 l 2.216873,19.80601 c 0.06312,0.5312 0.458506,0.91451 0.938661,0.91451 0.472863,0 0.858674,-0.37351 0.936155,-0.9095 l 2.52224,-19.81102 z m 34.9358,-18.68299 c -0.909492,0 -1.661515,0.7445 -1.705041,1.69046 l -1.765659,37.264095 1.765659,24.08206 c 0.04603,0.94094 0.795549,1.68317 1.705041,1.68317 0.904707,0 1.654223,-0.74473 1.707548,-1.68795 v 0.007 L 72.045602,102.23766 70.04955,64.973565 c -0.05355,-0.94596 -0.803069,-1.69046 -1.707548,-1.69046 z m -18.081596,12.95166 c -0.69847,0 -1.268413,0.55786 -1.324473,1.30237 l -1.988759,24.690735 1.988759,23.88789 c 0.05333,0.73972 0.625775,1.29759 1.324473,1.29759 0.691177,0 1.261119,-0.55787 1.321965,-1.29759 L 53.84277,102.22816 51.582371,77.532405 c -0.06085,-0.73949 -0.630788,-1.29735 -1.321965,-1.29735 z m 36.45671,51.765845 c 1.127806,0 2.044591,-0.90972 2.090624,-2.07399 l 1.731932,-23.67688 -1.729426,-49.612095 c -0.04603,-1.16427 -0.963045,-2.07376 -2.090624,-2.07376 -1.137605,0 -2.056669,0.912 -2.093358,2.07627 l -1.535267,49.607085 1.535267,23.68668 c 0.03646,1.1547 0.955525,2.06669 2.090852,2.06669 z m 37.618234,0.11166 c 1.55236,0 2.83308,-1.27821 2.86202,-2.84994 v 0.0169 -0.0169 l 1.20802,-22.998 -1.20825,-57.298225 c -0.0267,-1.56923 -1.30966,-2.84972 -2.86201,-2.84972 -1.55464,0 -2.83764,1.27822 -2.86202,2.85222 l -1.07927,57.276355 c 0,0.0365 1.07927,23.03173 1.07927,23.03173 0.0246,1.55714 1.30989,2.83559 2.86224,2.83558 z m -18.95234,-0.0898 c 1.35113,0 2.43997,-1.08428 2.47643,-2.46663 v 0.0169 l 1.46964,-23.31795 -1.47215,-49.971015 c -0.0365,-1.38259 -1.1253,-2.46413 -2.47643,-2.46413 -1.3607,0 -2.44954,1.08177 -2.47871,2.46413 l -1.30715,49.973515 1.30966,23.31317 c 0.0292,1.36777 1.118,2.45205 2.47871,2.45205 z m -46.117015,-0.2183 c 0.802842,0 1.453,-0.64287 1.513618,-1.48923 l 2.129592,-24.08685 -2.129592,-22.912995 c -0.05811,-0.84637 -0.708041,-1.48445 -1.513618,-1.48445 -0.814691,0 -1.464849,0.64264 -1.515668,1.49425 l -1.875044,22.903195 1.875044,24.08457 c 0.05333,0.84864 0.700749,1.49151 1.515668,1.49151 z M 41.327739,126.485 c 0.586806,0 1.062176,-0.46329 1.130086,-1.10365 l 2.391433,-23.15798 -2.389155,-24.031005 c -0.07042,-0.64264 -0.545786,-1.10616 -1.132592,-1.10616 -0.594326,0 -1.069696,0.4658 -1.130313,1.10616 l -2.105209,24.031005 2.105209,23.15319 c 0.05834,0.64264 0.533708,1.10844 1.130541,1.10844 z M 114.82295,51.452025 c -1.46736,0 -2.64393,1.16677 -2.67288,2.66079 l -1.19321,48.147015 1.19321,23.16755 c 0.0292,1.47465 1.20301,2.64143 2.67288,2.64143 1.46485,0 2.63413,-1.16427 2.66786,-2.65829 v 0.0194 l 1.33882,-23.16755 -1.33882,-48.154535 c -0.034,-1.48901 -1.20324,-2.65578 -2.66786,-2.65578 z M 77.49549,128.04944 c 1.013864,0 1.85066,-0.82723 1.8992,-1.88234 L 81.257428,102.24502 79.39469,56.457985 c -0.05105,-1.05762 -0.885336,-1.88211 -1.8992,-1.88211 -1.023435,0 -1.857725,0.827 -1.901479,1.88211 l -1.649209,45.787035 1.651716,23.93188 c 0.04102,1.04531 0.875309,1.87254 1.898972,1.87254 z m 20.800502,-2.25812 v -0.0123 l 1.600669,-23.52647 -1.600669,-51.283185 c -0.03897,-1.27319 -1.043034,-2.27247 -2.282504,-2.27247 -1.246763,0 -2.250828,0.99677 -2.284555,2.27247 l -1.421324,51.280675 1.423603,23.53878 c 0.03395,1.26112 1.038247,2.25789 2.282504,2.25789 1.241749,0 2.241028,-0.99677 2.282504,-2.26518 v 0.01 z M 219.36805,72.691435 c -3.80068,0 -7.42657,0.76888 -10.73,2.15374 -2.2073,-25.00112 -23.17257,-44.61319 -48.74613,-44.61319 -6.25752,0 -12.35757,1.23217 -17.74433,3.31551 -2.09313,0.81013 -2.651,1.64442 -2.67037,3.26218 v 88.042755 c 0.0219,1.69775 1.33883,3.11178 2.99557,3.27927 0.0704,0.007 76.39824,0.046 76.89322,0.046 15.31894,0 27.73962,-12.42069 27.73962,-27.74191 0,-15.321435 -12.4184,-27.744395 -27.73757,-27.744395 z m -85.56154,-35.95924 c -1.6663,0 -3.03407,1.368 -3.05845,3.04866 l -1.25155,62.491055 1.25406,22.6801 c 0.0219,1.65673 1.38987,3.02222 3.05594,3.02222 1.66129,0 3.02929,-1.36549 3.05345,-3.04637 v 0.0267 l 1.3607,-22.68261 -1.3607,-62.495845 c -0.0242,-1.67587 -1.39216,-3.04387 -3.05345,-3.04387 z M 43.978734,145.81313 c -3.281555,-0.77139 -4.169398,-1.18364 -4.169398,-2.48372 0,-0.91656 0.739717,-1.86502 2.95659,-1.86502 1.894187,0 3.373849,0.76866 4.703107,2.12936 l 2.985759,-2.89574 c -1.952297,-2.03981 -4.317296,-3.25261 -7.538233,-3.25261 -4.084397,0 -7.395122,2.30665 -7.395122,6.06358 0,4.07938 2.663302,5.29242 6.476058,6.17753 3.902316,0.88533 4.613092,1.47943 4.613092,2.81097 0,1.56695 -1.156976,2.24833 -3.606748,2.24833 -1.981467,0 -3.844205,-0.6791 -5.29447,-2.36956 l -2.986215,2.6633 c 1.566714,2.30666 4.586429,3.75465 8.042544,3.75465 5.65134,0 8.134839,-2.66079 8.134839,-6.59228 2.28e-4,-4.49687 -3.637969,-5.61989 -6.921803,-6.38879 z m 19.048972,-8.36773 c -5.646326,0 -8.98622,4.37563 -8.98622,10.67439 0,6.29899 3.339666,10.67189 8.98622,10.67189 5.646554,0 8.991005,-4.3729 8.991005,-10.67189 0,-6.29876 -3.344451,-10.67439 -8.991005,-10.67439 z m 0,17.24001 c -3.339666,0 -4.732048,-2.86931 -4.732048,-6.56334 0,-3.69631 1.392154,-6.56562 4.732048,-6.56562 3.344679,0 4.732048,2.86931 4.732048,6.56562 0,3.69403 -1.387369,6.56334 -4.732048,6.56334 z m 25.700046,-5.29242 c 0,3.31072 -1.629839,5.35281 -4.258957,5.35281 -2.631625,0 -4.227737,-2.10042 -4.227737,-5.41092 v -11.5668 H 76.09855 v 11.62514 c 0,6.02963 3.373849,9.40097 8.370017,9.40097 5.263249,0 8.399186,-3.46113 8.399186,-9.45908 v -11.56703 h -4.140001 z m 21.998488,-2.86908 c 0,1.15447 0.0581,3.75464 0.0581,4.52353 -0.26662,-0.53371 -0.94572,-1.56694 -1.44798,-2.33811 l -7.33678,-10.94353 h -3.960881 v 20.70365 h 4.082121 v -9.11019 c 0,-1.15424 -0.0583,-3.75464 -0.0583,-4.52353 0.26434,0.5312 0.94823,1.56694 1.44798,2.33834 l 7.60113,11.29515 h 3.69631 v -20.70365 h -4.08189 v 8.75834 z m 15.87931,-8.75583 h -6.47583 v 20.70342 h 6.1773 c 5.32387,0 10.58963,-3.07782 10.58963,-10.35171 0,-7.57219 -4.37792,-10.35171 -10.2911,-10.35171 z M 126.30702,154.45 h -2.03707 v -12.65814 h 2.1877 c 4.37792,0 6.18255,2.09792 6.18255,6.32793 -2.3e-4,3.7861 -1.98421,6.33021 -6.33318,6.33021 z m 23.39339,-12.89582 c 1.86274,0 3.04615,0.8295 3.78586,2.24832 l 3.84421,-1.77295 c -1.30236,-2.68997 -3.66964,-4.58415 -7.57219,-4.58415 -5.40636,0 -9.19496,4.37563 -9.19496,10.67439 0,6.53417 3.63569,10.67189 9.04684,10.67189 3.75692,0 6.24065,-1.74378 7.65946,-4.67143 l -3.48779,-2.07125 c -1.09407,1.83607 -2.19021,2.63413 -4.05295,2.63413 -3.10448,0 -4.90888,-2.84037 -4.90888,-6.56334 -0.002,-3.84192 1.77819,-6.56561 4.8804,-6.56561 z m 15.35517,-3.7861 h -4.14023 v 20.70342 h 12.44256 v -4.08439 h -8.30233 z m 19.2094,-0.32268 c -5.65111,0 -8.991,4.37563 -8.991,10.67439 0,6.29899 3.33989,10.67189 8.991,10.67189 5.64633,0 8.9885,-4.3729 8.9885,-10.67189 2.3e-4,-6.29876 -3.34217,-10.67439 -8.9885,-10.67439 z m 0,17.24001 c -3.34468,0 -4.73205,-2.86931 -4.73205,-6.56334 0,-3.69631 1.38737,-6.56562 4.73205,-6.56562 3.33762,0 4.72704,2.86931 4.72704,6.56562 0,3.69403 -1.38942,6.56334 -4.72704,6.56334 z m 25.69503,-5.29242 c 0,3.31072 -1.62254,5.35281 -4.25417,5.35281 -2.63641,0 -4.23001,-2.10042 -4.23001,-5.41092 v -11.5668 h -4.14 v 11.62514 c 0,6.02963 3.37134,9.40097 8.37001,9.40097 5.26325,0 8.39691,-3.46113 8.39691,-9.45908 v -11.56703 h -4.14274 z m 15.79203,-11.62491 h -6.47355 v 20.70342 h 6.17753 c 5.32615,0 10.58689,-3.07782 10.58689,-10.35171 0,-7.57219 -4.37541,-10.35171 -10.29087,-10.35171 z M 225.45602,154.45 h -2.03981 v -12.65814 h 2.19021 c 4.3729,0 6.1773,2.09792 6.1773,6.32793 2.3e-4,3.7861 -1.98146,6.33021 -6.3277,6.33021 z" />
</svg>
